<?xml version="1.0" standalone="no"?>
<!DOCTYPE svg PUBLIC "-//W3C//DTD SVG 20010904//EN"
 "http://www.w3.org/TR/2001/REC-SVG-20010904/DTD/svg10.dtd">
<svg version="1.0" xmlns="http://www.w3.org/2000/svg"
 width="649.000000pt" height="354.000000pt" viewBox="0 0 649.000000 354.000000"
 preserveAspectRatio="xMidYMid meet">
<metadata>
Created by potrace 1.10, written by Peter Selinger 2001-2011
</metadata>
<g transform="translate(0.000000,354.000000) scale(0.050000,-0.050000)"
fill="#cc0000" stroke="none">
<path d="M4390 7021 c-44 -19 -442 -183 -885 -362 -443 -180 -805 -332 -805
-339 0 -6 126 -73 279 -149 336 -167 345 -195 260 -801 -23 -162 -1 -196 120
-186 l69 6 -9 110 c-11 130 -3 579 10 615 7 18 175 -57 530 -235 287 -143 530
-260 542 -260 34 0 1839 908 1839 925 0 8 -9 15 -20 15 -10 0 -425 158 -920
350 -495 193 -907 349 -915 348 -8 -1 -51 -17 -95 -37z m140 -711 c0 -35 -18
-42 -140 -53 -115 -11 -469 -94 -935 -219 -70 -18 -75 -24 -75 -97 0 -88 -16
-141 -42 -141 -10 0 -18 57 -18 127 l0 127 485 125 c267 68 499 137 515 153
48 47 210 30 210 -22z m-1164 -886 c10 -203 10 -206 -33 -200 -39 5 -43 17
-39 136 9 344 55 385 72 64z"/>
<path d="M3611 5755 c-5 -14 -19 -128 -31 -255 -12 -126 -26 -254 -32 -284
-24 -125 469 -351 843 -387 307 -29 766 110 1008 306 l46 37 -33 297 c-17 164
-34 300 -37 302 -3 2 -193 -89 -423 -203 -229 -115 -429 -208 -443 -208 -32 0
-249 100 -612 281 -190 96 -281 132 -286 114z"/>
<path d="M2796 4435 c-30 -64 -32 -140 -22 -761 l12 -690 68 -32 c56 -26 144
-32 504 -32 l437 0 33 68 c40 85 45 369 7 381 -14 4 -94 12 -179 18 l-153 10
-17 -104 -17 -103 -125 2 c-168 3 -159 -25 -167 518 l-7 480 127 6 c142 7 183
-14 183 -93 1 -138 8 -143 199 -143 l175 0 13 123 c42 403 56 392 -562 410
l-475 13 -34 -71z"/>
<path d="M3988 4473 c-5 -14 -7 -98 -4 -185 l6 -158 160 -10 160 -10 5 -595 6
-595 144 11 c277 22 247 -50 269 635 19 590 5 553 210 554 l133 0 7 182 c3
100 2 185 -2 190 -25 24 -1084 7 -1094 -19z"/>
<path d="M5200 3701 l0 -780 165 11 c227 16 215 7 215 162 1 236 -22 220 321
230 280 8 301 11 348 56 l51 47 0 455 c0 600 46 547 -500 576 -225 12 -453 22
-505 22 l-95 0 0 -779z m675 428 c33 -10 36 -420 3 -440 -12 -8 -80 -19 -150
-24 l-128 -10 0 147 c0 82 6 195 13 253 l13 105 112 -12 c61 -6 123 -15 137
-19z"/>
<path d="M7112 2628 c-47 -122 -7 -368 60 -368 48 0 67 46 28 70 -11 7 -20 66
-20 131 0 66 9 119 20 119 11 0 20 18 20 40 0 50 -89 56 -108 8z"/>
<path d="M8866 2628 c-7 -21 -3 -39 10 -43 30 -10 33 -265 4 -265 -11 0 -20
-13 -20 -30 0 -20 20 -30 61 -30 l60 0 -5 195 c-6 185 -8 195 -51 201 -29 4
-50 -6 -59 -28z"/>
<path d="M20 2461 l0 -161 101 0 c72 0 104 9 112 31 17 45 -9 61 -54 33 -66
-41 -79 -28 -79 86 0 106 33 149 70 90 25 -40 73 -21 66 25 -5 39 -20 46 -111
51 l-105 6 0 -161z"/>
<path d="M1540 2459 c0 -143 4 -161 35 -155 56 10 59 316 3 316 -34 0 -38 -15
-38 -161z"/>
<path d="M3054 2607 c-8 -7 -14 -30 -14 -50 0 -29 -15 -37 -71 -37 l-71 0 6
-105 6 -105 106 -6 106 -6 -6 154 c-5 142 -26 192 -62 155z m-14 -197 c0 -31
-11 -50 -30 -50 -19 0 -30 19 -30 50 0 31 11 50 30 50 19 0 30 -19 30 -50z"/>
<path d="M3290 2600 c-17 -27 6 -60 41 -60 22 0 29 -29 29 -120 0 -93 7 -120
30 -120 23 0 30 25 30 108 0 88 8 112 43 136 26 17 38 39 29 52 -17 29 -185
32 -202 4z"/>
<path d="M4400 2463 c0 -132 6 -163 30 -163 17 0 30 18 30 40 0 32 13 40 70
40 l70 0 0 110 c0 94 -5 110 -37 110 -21 0 -66 6 -100 13 l-63 12 0 -162z
m130 37 c0 -26 -11 -50 -25 -55 -31 -10 -54 44 -37 87 17 46 62 23 62 -32z"/>
<path d="M6380 2460 c0 -129 6 -160 30 -160 23 0 30 26 30 110 0 72 -8 110
-24 110 -19 0 -19 5 0 24 33 33 30 76 -6 76 -24 0 -30 -31 -30 -160z"/>
<path d="M7274 2608 c-8 -8 -14 -81 -14 -161 l0 -147 100 0 c87 0 100 5 100
40 0 47 -7 48 -59 16 -53 -33 -67 -14 -70 96 -3 96 29 136 74 91 39 -39 78
-27 71 22 -6 46 -165 79 -202 43z"/>
<path d="M7520 2580 c0 -22 13 -40 30 -40 23 0 30 -27 30 -120 0 -89 7 -120
28 -120 37 0 52 44 52 152 0 65 8 88 30 88 17 0 30 18 30 40 0 35 -13 40 -100
40 -87 0 -100 -5 -100 -40z"/>
<path d="M7775 2608 c-32 -32 -17 -308 17 -308 17 0 36 17 42 39 7 26 31 41
73 45 79 8 114 216 37 216 -22 0 -65 5 -97 12 -31 6 -64 4 -72 -4z m135 -108
c0 -31 -13 -52 -35 -56 -27 -5 -35 7 -35 56 0 49 8 61 35 56 22 -4 35 -25 35
-56z"/>
<path d="M8154 2607 c-26 -26 -16 -311 10 -302 31 10 60 142 52 233 -6 67 -34
98 -62 69z"/>
<path d="M4049 2533 c-6 -25 -9 -86 -5 -135 l6 -88 90 0 c71 0 91 8 97 37 6
32 -2 35 -55 23 -56 -12 -62 -9 -62 37 0 36 12 52 43 57 64 9 71 56 9 56 -33
0 -52 11 -52 30 0 48 -58 35 -71 -17z"/>
<path d="M6153 2552 c-6 -16 -5 -79 1 -141 l12 -113 82 6 c61 4 83 15 89 43 6
32 -2 35 -55 23 -56 -12 -62 -9 -62 37 0 36 12 52 43 57 58 8 73 56 18 56 -23
0 -47 14 -54 30 -14 38 -59 39 -74 2z"/>
<path d="M280 2410 l0 -112 105 6 105 6 0 100 0 100 -105 6 -105 6 0 -112z
m140 10 c0 -64 -51 -86 -73 -30 -16 42 6 90 42 90 21 0 31 -19 31 -60z"/>
<path d="M531 2502 c-6 -10 -5 -59 2 -110 l12 -92 96 0 96 0 -1 110 c-1 79 -9
110 -29 110 -18 0 -27 -26 -27 -80 0 -67 -7 -80 -40 -80 -33 0 -40 13 -40 80
0 76 -38 111 -69 62z"/>
<path d="M780 2409 c0 -138 65 -158 76 -24 9 108 64 103 64 -6 0 -135 68 -102
76 36 l6 105 -111 0 -111 0 0 -111z"/>
<path d="M1030 2500 c-30 -48 12 -100 81 -100 38 0 69 -9 69 -20 0 -11 -37
-20 -82 -20 -56 0 -79 -8 -73 -25 18 -55 204 -31 211 28 5 46 -3 54 -65 65
-39 8 -71 23 -71 35 0 14 26 17 70 8 55 -10 70 -6 70 18 0 36 -189 46 -210 11z"/>
<path d="M1280 2411 l0 -111 100 0 c78 0 100 7 100 32 0 24 -13 28 -60 18 -46
-10 -60 -6 -60 17 0 20 23 33 65 37 125 12 92 104 -40 112 l-105 6 0 -111z"/>
<path d="M1660 2410 c0 -84 7 -110 30 -110 20 0 30 21 30 65 0 36 6 85 13 110
9 36 3 45 -31 45 -38 0 -42 -11 -42 -110z"/>
<path d="M1769 2472 c-20 -79 -2 -161 36 -168 29 -6 35 8 35 75 0 68 7 81 40
81 33 0 40 -13 40 -80 0 -58 8 -80 30 -80 23 0 30 26 30 110 l0 110 -100 0
c-88 0 -101 -5 -111 -48z"/>
<path d="M2028 2492 c-34 -89 1 -182 67 -177 54 4 65 -2 65 -36 0 -36 -8 -39
-73 -27 -57 10 -70 7 -63 -14 6 -19 42 -28 108 -28 l98 0 6 155 6 155 -102 0
c-68 0 -105 -9 -112 -28z m132 -83 c0 -66 -67 -60 -76 6 -5 34 3 45 35 45 31
0 41 -13 41 -51z"/>
<path d="M2400 2501 c0 -33 41 -45 70 -21 16 13 38 18 49 11 40 -25 21 -48
-44 -55 -127 -12 -93 -124 40 -132 l105 -6 0 111 0 111 -110 0 c-60 0 -110 -8
-110 -19z"/>
<path d="M2660 2408 c0 -128 46 -146 56 -21 10 112 84 106 84 -7 0 -58 8 -80
30 -80 23 0 30 26 30 110 l0 110 -100 0 -100 0 0 -112z"/>
<path d="M3540 2410 l0 -110 100 0 c76 0 100 7 100 30 0 21 -17 29 -55 25 -30
-3 -59 4 -65 15 -5 11 19 23 55 26 125 12 94 124 -35 124 l-100 0 0 -110z
m140 40 c0 -17 -18 -30 -40 -30 -22 0 -40 13 -40 30 0 17 18 30 40 30 22 0 40
-13 40 -30z"/>
<path d="M3800 2461 c0 -54 7 -61 59 -61 32 0 64 -9 71 -20 7 -12 -20 -20 -69
-20 -60 0 -81 -8 -81 -31 0 -25 21 -30 105 -25 132 8 158 89 40 123 -81 23
-85 58 -6 49 33 -3 62 3 65 14 3 11 -37 23 -89 26 -94 6 -95 6 -95 -55z"/>
<path d="M4644 2410 c-4 -98 0 -110 36 -110 33 0 40 13 40 80 0 58 8 80 30 80
17 0 30 -9 30 -20 0 -11 14 -20 30 -20 19 0 30 19 30 50 0 46 -7 50 -96 50
l-95 0 -5 -110z"/>
<path d="M4884 2415 l6 -105 98 0 c66 0 102 9 108 28 7 21 -6 24 -63 14 -58
-11 -73 -8 -73 17 0 22 20 31 70 31 64 0 70 5 70 60 0 59 -1 60 -111 60 l-111
0 6 -105z"/>
<path d="M5140 2360 c0 -156 46 -239 64 -115 5 34 21 46 71 51 65 6 65 7 65
115 l0 109 -100 0 -100 0 0 -160z m140 50 c0 -51 -46 -70 -71 -29 -19 31 5 79
40 79 20 0 31 -18 31 -50z"/>
<path d="M5400 2488 c0 -25 12 -29 51 -20 28 7 62 6 75 -2 15 -10 -2 -20 -44
-26 -151 -22 -136 -140 17 -140 l101 0 0 110 0 110 -100 0 c-79 0 -100 -7
-100 -32z"/>
<path d="M5644 2415 c8 -138 76 -171 76 -36 0 59 8 81 30 81 17 0 30 -9 30
-20 0 -11 14 -20 30 -20 19 0 30 19 30 50 0 47 -7 50 -101 50 l-101 0 6 -105z"/>
<path d="M5891 2501 c-18 -28 22 -44 78 -29 32 7 51 4 51 -10 0 -12 -27 -22
-60 -22 -46 0 -62 -11 -72 -49 -18 -73 4 -91 113 -91 l99 0 0 110 0 110 -99 0
c-54 0 -104 -8 -110 -19z"/>
<path d="M6484 2415 l6 -105 100 0 100 0 6 105 6 105 -112 0 -112 0 6 -105z
m146 5 c0 -31 -13 -52 -35 -56 -27 -5 -35 7 -35 56 0 49 8 61 35 56 22 -4 35
-25 35 -56z"/>
<path d="M6740 2408 c0 -128 46 -146 56 -21 10 112 84 106 84 -7 0 -58 8 -80
30 -80 23 0 30 26 30 110 l0 110 -100 0 -100 0 0 -112z"/>
<path d="M8240 2409 c0 -138 65 -158 76 -24 10 113 84 109 84 -5 0 -58 8 -80
30 -80 23 0 30 26 30 110 l0 110 -110 0 -110 0 0 -111z"/>
<path d="M8500 2409 l0 -111 103 6 c120 7 164 56 50 56 -54 0 -73 10 -84 42
-20 63 19 91 81 58 55 -30 81 -18 63 29 -8 22 -40 31 -112 31 l-101 0 0 -111z"/>
</g>
</svg>
