<?xml version="1.0" standalone="no"?>
<!DOCTYPE svg PUBLIC "-//W3C//DTD SVG 20010904//EN"
 "http://www.w3.org/TR/2001/REC-SVG-20010904/DTD/svg10.dtd">
<svg version="1.0" xmlns="http://www.w3.org/2000/svg"
 width="450.000000pt" height="300.000000pt" viewBox="0 0 450.000000 300.000000"
 preserveAspectRatio="xMidYMid meet">
<metadata>
Created by potrace 1.10, written by Peter Selinger 2001-2011
</metadata>
<g transform="translate(0.000000,300.000000) scale(0.050000,-0.050000)"
fill="#e06666" stroke="none">
<path d="M73 5940 c-7 -34 -23 -58 -38 -55 -14 3 -28 -18 -31 -50 -6 -52 -2
-55 73 -55 89 0 167 53 120 82 -21 13 -22 21 -2 41 20 20 25 18 25 -11 0 -25
10 -32 32 -24 17 7 67 12 110 12 73 0 78 4 78 60 l0 60 -127 0 c-127 0 -128
-1 -140 -62 -17 -82 -86 -75 -77 7 9 74 -8 70 -23 -5z"/>
<path d="M540 5968 c0 -17 -18 -55 -40 -83 -33 -41 -36 -56 -15 -80 24 -30 26
-830 2 -869 -32 -53 -87 -13 -87 64 0 44 0 84 -1 90 -10 121 -109 255 -178
241 -28 -6 -64 -2 -81 9 -20 13 -22 19 -5 20 35 0 31 50 -6 81 -28 23 -27 29
12 50 38 20 40 25 10 36 -18 7 -28 22 -21 33 7 11 -3 20 -21 20 -21 0 -29 -11
-22 -30 9 -22 -2 -30 -38 -30 -30 0 -49 -11 -49 -30 0 -17 18 -30 40 -30 45 0
51 -21 16 -56 -18 -18 -15 -32 10 -60 19 -20 34 -48 34 -62 0 -13 10 -18 23
-10 17 10 19 3 9 -24 -8 -21 -18 -60 -23 -88 -32 -209 -30 -202 -70 -190 -32
11 -39 3 -39 -45 l0 -57 389 -3 c276 -1 394 5 408 21 31 38 50 207 25 223 -12
7 -22 48 -22 91 0 143 -32 175 -89 88 -41 -62 -54 -203 -24 -251 34 -55 -21
-141 -86 -133 -45 5 -51 15 -48 76 2 39 6 238 9 442 l7 373 50 -14 c28 -8 99
-11 158 -7 59 4 140 -2 180 -14 48 -13 75 -13 80 0 8 26 137 26 153 0 16 -27
103 -25 154 2 31 17 62 17 117 0 134 -40 317 -47 351 -12 25 24 39 25 74 6 75
-42 337 -55 390 -21 40 27 49 27 80 0 55 -50 329 -66 393 -24 48 32 55 32 88
2 44 -40 308 -49 385 -13 43 20 64 18 114 -8 86 -44 338 -44 387 1 33 30 40
30 89 -3 75 -49 378 -65 395 -21 15 39 70 40 113 1 49 -45 346 -61 380 -20 32
39 99 38 157 -2 38 -27 55 -28 106 -7 40 17 65 18 74 5 24 -36 137 -47 164
-15 29 36 107 38 143 4 34 -33 290 -41 362 -12 40 16 69 17 100 1 82 -39 329
-48 396 -13 46 24 68 26 88 9 45 -37 243 -48 360 -20 95 23 114 22 158 -7 59
-39 283 -45 359 -11 38 18 62 16 107 -6 84 -42 297 -46 356 -8 45 30 110 25
110 -8 0 -8 59 -10 130 -5 89 7 130 3 130 -13 0 -12 34 -22 80 -22 74 0 91 13
82 65 -4 27 36 16 53 -15 20 -37 220 -59 256 -29 38 32 46 0 28 -121 -34 -231
-24 -436 23 -461 51 -27 68 -14 42 34 -26 45 -9 481 21 542 16 33 15 58 -2 96
-13 28 -23 122 -23 210 0 128 -6 159 -30 159 -29 0 -42 -91 -35 -240 4 -86
-14 -143 -40 -127 -13 8 -122 21 -242 29 -133 9 -224 24 -233 38 -21 33 -44
-7 -28 -48 9 -24 4 -29 -21 -20 -18 7 -29 26 -23 41 8 20 -9 27 -67 27 -43 0
-81 -9 -84 -20 -20 -60 -138 5 -133 73 2 37 10 67 18 67 8 0 10 18 4 40 -6 22
-1 40 10 40 11 0 34 5 51 11 18 8 34 -3 42 -28 12 -37 232 -46 269 -11 5 4 20
-2 35 -14 20 -17 30 -15 39 10 15 38 80 43 95 7 5 -14 11 -5 11 19 1 24 -8 50
-20 57 -16 10 -14 19 5 31 19 12 10 17 -29 18 -31 0 -70 -13 -87 -30 -16 -16
-46 -30 -66 -30 -20 0 -42 14 -48 30 -7 17 -21 30 -32 30 -12 0 -21 -13 -21
-30 0 -20 -20 -30 -61 -30 -35 0 -65 12 -72 30 -16 43 -146 39 -179 -5 -25
-33 -29 -33 -91 2 -42 23 -69 28 -73 15 -9 -28 -117 -29 -134 -2 -7 11 -43 20
-80 20 -37 0 -73 -9 -80 -20 -16 -26 -124 -26 -140 -1 -7 12 -30 13 -59 2 -26
-10 -53 -12 -60 -5 -18 18 -571 18 -571 1 0 -45 27 -71 62 -62 29 7 43 -2 52
-32 6 -24 25 -43 43 -43 18 0 53 -6 78 -13 35 -9 43 -5 34 18 -15 40 54 57 87
22 19 -20 20 -27 1 -27 -13 0 -18 -6 -11 -13 16 -15 -21 -87 -45 -87 -10 0
-22 16 -27 35 -5 19 -10 5 -12 -31 -3 -106 -162 -119 -162 -13 0 28 -15 73
-33 100 -30 47 -30 49 5 36 29 -10 33 -7 16 11 -24 26 -94 8 -77 -20 6 -10 3
-18 -7 -18 -10 0 -14 -23 -9 -52 9 -43 4 -51 -27 -45 -27 5 -39 26 -41 72 -2
36 5 60 15 54 10 -6 18 3 18 21 0 18 -8 27 -18 21 -16 -10 -51 43 -46 70 1 7
-79 14 -177 16 -139 4 -179 -1 -179 -22 0 -36 146 -74 191 -49 25 14 32 12 25
-9 -6 -18 -45 -28 -115 -29 -114 -2 -140 -23 -126 -100 8 -42 3 -47 -38 -41
-34 6 -46 19 -42 50 2 24 -3 43 -12 43 -10 0 -15 36 -13 80 l5 80 -189 0
c-183 0 -188 -1 -175 -42 8 -25 4 -49 -10 -57 -13 -8 -24 -43 -25 -78 -2 -55
-9 -63 -58 -63 -31 0 -61 -9 -68 -20 -16 -26 -230 -26 -270 0 -23 15 -18 19
25 20 62 0 72 28 20 58 -28 16 -30 25 -10 45 14 14 25 18 25 9 0 -9 12 -7 26
4 16 14 52 16 100 5 43 -10 74 -9 74 1 0 10 -10 18 -21 18 -12 0 -16 9 -9 20
14 23 19 22 -145 32 l-125 7 11 -74 c16 -103 -23 -155 -95 -127 -28 10 -57 14
-64 7 -40 -40 -289 -44 -319 -5 -28 36 -176 38 -259 3 -124 -51 -298 -11 -218
50 44 34 -16 39 -77 7 -62 -34 -143 -5 -118 42 12 22 15 49 7 61 -8 13 2 35
23 50 31 23 -118 27 -951 27 l-987 0 46 -48 45 -49 -61 -31 c-73 -38 -85 -39
-78 -7 9 45 -87 42 -99 -3 -7 -28 -27 -42 -60 -42 -26 0 -43 8 -37 18 15 25
-9 84 -29 72 -20 -12 -44 47 -29 72 6 10 -12 18 -40 18 -42 0 -51 -9 -51 -56
0 -43 -13 -60 -60 -78 -49 -18 -60 -17 -60 6 0 17 -20 28 -51 28 -29 0 -46 -9
-39 -20 7 -11 -10 -20 -39 -20 -38 0 -51 10 -51 40 0 43 -32 55 -45 16 -12
-37 -75 -1 -75 43 0 23 -8 41 -17 41 -10 0 -16 -25 -15 -55 l2 -55 -200 0
-200 0 6 55 c4 39 -4 55 -25 55 -17 0 -31 -14 -31 -32z m1660 -46 c0 -51 -58
-122 -100 -122 -89 0 -87 139 2 161 63 16 98 2 98 -39z m1134 24 c7 -19 3 -37
-10 -41 -13 -5 -24 -17 -24 -28 0 -11 10 -13 23 -5 13 8 19 3 13 -13 -4 -14
-28 -27 -52 -29 -53 -4 -58 41 -10 94 32 36 32 37 -3 23 -26 -9 -33 -7 -23 10
21 34 71 28 86 -11z m3468 -72 c-12 -12 -22 -52 -22 -88 0 -50 -9 -66 -36 -66
-41 0 -53 176 -14 205 12 8 8 15 -10 15 -26 1 -26 3 -1 19 41 26 116 -52 83
-85z m-4471 67 c-6 -10 8 -32 33 -50 45 -31 44 -31 -22 -31 -52 0 -64 7 -54
32 7 17 12 40 12 50 0 10 10 18 21 18 12 0 16 -8 10 -19z m332 -61 c-8 -84 -2
-77 -77 -92 -74 -15 -100 33 -67 121 35 91 154 67 144 -29z m149 49 c-16 -42
12 -51 43 -14 15 19 22 24 15 10 -18 -37 11 -30 44 10 20 25 31 28 39 11 7
-17 38 -21 98 -13 l89 12 0 -81 0 -81 -80 1 c-75 1 -80 4 -80 61 0 59 -1 59
-50 27 -32 -21 -50 -25 -50 -10 0 17 -8 16 -29 -1 -16 -14 -40 -21 -54 -17
-33 11 -35 109 -2 109 15 0 22 -11 17 -24z m791 -9 c11 0 17 -34 13 -75 -7
-86 -153 -133 -158 -51 -6 92 41 158 98 136 15 -5 36 -10 47 -10z m2058 1
c-25 -16 -25 -26 -3 -68 32 -60 13 -107 -30 -72 -23 20 -28 14 -28 -29 0 -46
-8 -52 -66 -52 -77 0 -114 30 -114 92 0 25 -11 49 -25 54 -14 5 10 16 53 24
50 10 92 7 115 -7 51 -32 57 -30 57 27 0 34 11 50 35 50 29 -1 30 -4 6 -19z
m539 -10 c0 -16 -7 -33 -16 -39 -9 -5 -15 -37 -12 -71 3 -52 -3 -61 -42 -61
-25 0 -51 -13 -57 -29 -30 -79 -153 -13 -153 84 0 69 0 69 80 62 60 -6 78 -1
71 17 -5 14 0 26 11 26 11 0 15 9 8 20 -7 12 13 20 49 20 40 0 61 -10 61 -29z
m1068 -3 c7 -17 12 -53 12 -80 0 -26 9 -48 20 -48 11 0 20 17 20 37 0 20 11
38 25 39 14 1 63 8 109 15 78 12 85 9 97 -38 17 -67 3 -124 -29 -117 -14 3
-30 -13 -36 -35 -14 -54 -42 -52 -98 9 -56 60 -108 65 -108 10 0 -47 -2 -47
-69 -17 -56 26 -61 48 -31 126 12 33 12 51 -1 51 -11 0 -8 17 6 40 30 48 66
52 83 8z m-301 -30 c23 -2 7 -10 -37 -18 -88 -17 -101 -14 -80 20 8 13 27 18
44 11 16 -6 49 -12 73 -13z m133 -67 c0 -52 -7 -67 -28 -59 -23 9 -24 24 -8
70 26 76 36 73 36 -11z m-84 -74 c5 -64 0 -74 -48 -86 -73 -18 -107 21 -94
105 17 104 133 88 142 -19z"/>
<path d="M1580 5984 c0 -8 54 -15 120 -15 66 1 120 8 120 16 0 8 -54 15 -120
15 -66 0 -120 -7 -120 -16z"/>
<path d="M3932 5983 c-19 -3 -32 -20 -28 -38 6 -31 228 -55 246 -26 30 49
-101 87 -218 64z"/>
<path d="M8292 5981 c34 -8 70 -20 81 -27 11 -7 20 1 20 17 0 21 -22 28 -81
27 -79 -2 -80 -3 -20 -17z"/>
<path d="M8675 5985 c-5 -8 -11 -93 -13 -188 l-5 -173 96 -8 c54 -5 107 -1
120 8 14 11 29 9 37 -3 16 -27 -106 -81 -149 -66 -17 6 -25 4 -17 -4 24 -27
136 -32 136 -7 0 18 6 18 24 0 13 -13 40 -24 60 -24 47 0 47 63 1 92 -22 14
-34 45 -32 85 1 35 3 108 5 163 1 74 10 100 32 100 17 0 30 9 30 20 0 23 -313
28 -325 5z"/>
<path d="M4404 5936 c5 -37 19 -46 76 -46 39 -1 89 -8 113 -16 51 -18 79 31
37 66 -60 49 -234 46 -226 -4z"/>
<path d="M7840 5791 c0 -39 25 -51 77 -38 66 18 54 67 -17 67 -39 0 -60 -10
-60 -29z"/>
<path d="M1000 5562 c0 -53 -59 -101 -62 -49 0 21 -6 26 -11 12 -6 -14 -19
-20 -30 -13 -31 19 -155 -55 -143 -85 8 -20 22 -17 61 13 69 55 99 50 135 -20
37 -71 12 -140 -50 -140 -35 0 -37 -6 -15 -52 23 -51 24 -51 42 -11 30 68 73
70 73 2 0 -63 17 -74 56 -35 29 29 32 109 4 126 -50 31 -13 135 50 141 11 1
36 8 55 17 84 39 138 -88 64 -149 -37 -31 -33 -201 6 -214 15 -5 25 9 25 36 0
36 5 40 30 19 24 -20 41 -15 91 28 46 38 75 49 112 39 48 -12 50 -9 46 75 -7
136 -6 138 79 138 131 0 136 -277 6 -332 -71 -29 -72 -32 -35 -59 54 -40 66
-37 128 31 50 55 60 58 124 40 38 -11 71 -20 73 -20 3 0 0 26 -7 58 -9 46 -2
63 31 81 33 18 42 41 42 110 l0 88 105 -4 105 -4 -7 -159 c-9 -183 -18 -196
-148 -182 -74 8 -95 4 -95 -19 0 -16 12 -29 28 -29 15 0 38 -13 52 -29 26 -32
152 4 182 53 8 13 39 17 73 10 33 -7 69 -2 81 10 17 17 26 13 36 -16 26 -71
51 -91 81 -65 22 18 41 16 81 -5 41 -22 54 -23 61 -3 11 34 55 31 85 -5 32
-38 78 13 79 86 1 37 9 44 39 35 27 -9 42 -2 48 23 8 31 10 30 12 -5 6 -118
157 -164 258 -79 53 44 62 64 55 120 -12 95 88 132 101 38 11 -74 29 -99 49
-67 14 22 18 17 19 -22 0 -86 40 -120 145 -122 101 -2 158 28 153 81 -5 62 2
82 32 82 17 0 30 10 30 21 0 12 8 17 17 11 10 -6 17 14 17 44 -1 30 5 79 11
109 7 33 5 51 -6 44 -11 -6 -19 -1 -19 11 0 12 -9 17 -20 10 -20 -13 -62 69
-48 93 13 22 -37 31 -162 29 -109 -2 -121 -6 -126 -47 -4 -25 -17 -46 -30 -47
-13 0 -41 -4 -63 -8 -67 -13 -134 34 -71 50 28 7 57 3 65 -9 14 -20 54 18 55
51 0 23 -413 31 -435 9 -17 -16 37 -52 59 -38 9 5 16 1 16 -9 0 -27 -103 -44
-142 -23 -20 11 -41 8 -55 -6 -17 -17 -23 -15 -23 9 0 17 18 36 40 42 22 6 40
20 40 32 0 30 -66 28 -97 -3 -20 -20 -28 -20 -40 0 -22 36 -267 24 -279 -13
-5 -15 0 -22 11 -15 11 7 30 1 42 -13 17 -21 9 -25 -38 -22 -32 2 -64 -4 -70
-14 -19 -30 -69 -20 -69 14 0 19 11 28 26 22 31 -12 82 59 55 75 -30 19 -270
2 -286 -19 -10 -13 -21 -11 -31 5 -21 32 -236 41 -267 10 -46 -46 128 -79 208
-41 22 11 35 10 35 -3 0 -12 -13 -21 -30 -21 -16 0 -48 -18 -70 -40 -22 -22
-40 -34 -40 -26 0 8 -10 4 -23 -9 -17 -17 -30 -15 -51 6 -16 16 -37 24 -47 18
-10 -6 -38 3 -63 19 -71 46 -214 20 -238 -43 -12 -33 -29 -45 -50 -37 -17 7
-40 12 -51 12 -11 0 -15 7 -9 16 5 9 -8 32 -29 50 -21 19 -39 48 -39 65 0 23
-11 28 -43 18 -26 -8 -37 -6 -30 7 17 26 -33 45 -66 24 -15 -9 -20 -27 -11
-43 13 -22 11 -22 -11 -2 -34 32 -60 32 -54 0 3 -13 -17 -27 -45 -31 -40 -6
-45 -2 -25 18 30 31 33 78 5 78 -11 0 -20 -17 -20 -38z m1640 -142 c40 -22 34
-83 -12 -122 -21 -17 -35 -17 -58 2 -26 21 -30 16 -30 -39 0 -53 6 -62 38 -52
36 12 74 -74 49 -114 -37 -60 -307 30 -307 102 1 71 22 101 80 109 32 5 53 25
60 55 7 28 32 53 61 61 71 20 78 20 119 -2z m504 -50 c-12 -83 -18 -142 -21
-215 l-3 -75 -93 5 -93 5 -5 118 c-5 104 1 123 47 166 66 61 177 59 168 -4z
m356 10 c0 -11 32 -20 70 -20 71 0 102 -58 49 -91 -12 -7 -16 -27 -10 -44 7
-17 -2 -47 -20 -66 -21 -23 -24 -39 -10 -48 45 -28 17 -51 -61 -51 -73 0 -81
5 -72 40 6 22 -6 60 -28 88 -54 69 -46 172 14 172 15 0 28 9 28 20 0 11 9 20
20 20 11 0 20 -9 20 -20z m-679 -81 c41 -77 5 -162 -66 -155 -83 8 -109 54
-76 134 31 74 107 85 142 21z"/>
<path d="M1371 5581 c-19 -30 29 -46 60 -20 16 13 29 15 29 4 0 -10 27 -20 60
-21 33 -1 60 7 60 17 0 11 -25 20 -55 20 -30 1 -75 6 -99 10 -24 5 -49 0 -55
-10z"/>
<path d="M1633 5550 c-8 -21 2 -30 35 -30 26 0 58 14 72 30 21 26 16 30 -35
30 -36 0 -66 -13 -72 -30z"/>
<path d="M4235 5528 c-17 -16 16 -178 35 -172 11 4 17 22 13 40 -4 19 -8 43
-10 54 -4 28 253 32 270 5 10 -16 23 -15 46 4 21 18 60 22 120 14 83 -11 149
16 87 36 -34 11 -552 28 -561 19z"/>
<path d="M3944 5483 c-17 -11 -22 -35 -13 -70 18 -72 138 -79 156 -9 20 78
-68 126 -143 79z"/>
<path d="M5333 5450 c6 -16 18 -25 27 -20 22 13 80 -10 80 -31 0 -21 -140 -61
-163 -47 -33 20 -17 -38 18 -66 19 -16 24 -23 10 -16 -36 18 -31 -11 6 -38 20
-15 33 -63 38 -135 8 -149 16 -157 137 -155 l104 2 -95 29 -94 29 4 153 5 153
79 17 c118 24 187 -61 111 -137 -12 -12 -13 -53 -3 -109 14 -71 20 -81 32 -49
43 111 62 150 74 150 8 0 28 6 47 13 27 10 31 0 26 -65 -5 -61 1 -77 25 -73
19 3 38 -19 50 -60 19 -65 77 -88 306 -123 26 -4 54 -18 63 -32 11 -18 26 -14
58 18 23 23 55 42 70 42 21 0 29 26 29 89 0 110 8 125 84 141 73 16 125 -19
108 -73 -9 -27 -2 -37 26 -37 57 0 205 -122 206 -169 0 -37 3 -38 25 -8 21 27
57 32 199 28 l174 -5 -8 62 c-9 73 64 172 127 172 34 0 38 11 31 82 -7 76 -5
82 35 71 24 -6 56 -2 70 10 19 16 34 15 56 -3 34 -29 40 -80 9 -80 -14 0 -16
-41 -7 -120 l13 -120 -62 0 c-50 0 -63 -9 -63 -40 0 -76 114 -53 154 30 18 39
46 70 60 70 15 0 33 14 39 32 16 41 94 -38 113 -115 22 -84 234 -99 234 -16 0
44 33 69 46 34 12 -36 27 -15 43 60 12 57 9 65 -27 65 -23 0 -42 10 -42 21 0
12 -9 16 -21 9 -12 -8 -15 -42 -7 -81 15 -85 -14 -101 -129 -70 l-80 22 5 139
c6 164 -1 156 108 145 65 -7 91 -20 102 -52 l16 -42 24 45 c28 53 98 58 133 9
14 -19 32 -28 41 -20 18 18 -49 95 -84 95 -14 0 -39 19 -55 42 -60 85 -333 55
-333 -38 0 -42 -7 -47 -52 -39 -32 6 -55 0 -62 -17 -17 -44 -46 -32 -46 18 0
32 -17 53 -55 68 -49 19 -50 22 -11 24 61 3 75 36 20 46 -57 11 -98 -2 -83
-26 6 -10 -7 -18 -30 -18 -22 0 -41 -9 -41 -20 0 -11 -22 -20 -50 -20 -27 0
-50 -8 -50 -19 0 -56 -65 -83 -89 -37 -13 25 -39 45 -59 43 -20 -2 -73 14
-119 34 l-83 38 85 1 c80 0 115 30 60 51 -14 5 -151 13 -305 17 -154 4 -289 9
-300 12 -74 18 -152 -3 -173 -48 -24 -53 -118 -83 -142 -45 -10 16 -15 14 -15
-7 0 -18 -6 -22 -15 -10 -8 12 -103 23 -210 25 -200 4 -275 24 -275 76 0 16
-16 30 -35 31 -256 18 -283 17 -272 -12z m1327 -65 c0 -8 49 -14 110 -13 60 1
110 -7 110 -17 0 -10 -16 -14 -35 -10 -28 6 -102 -18 -152 -50 -4 -3 -22 7
-40 22 -36 31 -45 83 -13 83 11 0 20 -7 20 -15z m-566 -97 c6 -18 -1 -40 -16
-50 -36 -23 9 -57 77 -58 25 0 45 -8 45 -19 0 -10 24 -21 54 -25 58 -6 104
-101 79 -165 -15 -41 -130 -42 -146 -1 -8 23 -45 30 -149 30 -130 0 -138 3
-150 50 -7 28 -21 50 -31 50 -22 0 -55 82 -44 110 16 43 145 100 243 108 14 1
31 -12 38 -30z m432 7 c64 -32 36 -119 -40 -125 -74 -6 -159 67 -139 119 13
34 115 38 179 6z m489 -26 c17 -5 25 -56 25 -161 l0 -154 -134 13 c-73 7 -140
24 -149 38 -40 63 -2 195 56 195 20 0 27 11 19 32 -23 61 53 77 183 37z"/>
<path d="M4955 5445 c-19 -4 -35 -17 -35 -28 0 -10 -8 -14 -19 -8 -44 27 -79
-214 -38 -263 35 -42 55 -10 32 51 -32 85 -11 114 87 120 48 3 88 7 90 9 52
66 -20 140 -117 119z"/>
<path d="M6210 5440 c-38 -13 -38 -14 3 -36 33 -18 48 -17 65 4 29 35 -10 53
-68 32z"/>
<path d="M4723 5407 c-18 -32 -45 -37 -212 -34 -182 2 -191 0 -193 -40 -2 -75
5 -582 8 -586 2 -2 90 -9 194 -15 263 -15 380 -32 380 -56 0 -34 -782 -1 -817
34 -5 5 26 10 69 11 73 0 75 2 39 30 -26 19 -87 29 -184 29 -79 0 -150 9 -158
21 -8 14 -22 13 -42 -4 -24 -20 -38 -14 -74 32 -45 55 -129 66 -118 15 3 -13
-8 -24 -24 -24 -17 0 -25 12 -19 28 9 23 -55 27 -390 25 -296 -2 -406 3 -425
22 -14 14 -34 25 -46 25 -12 0 -8 -9 7 -18 15 -10 22 -32 16 -50 -17 -43 -214
-47 -214 -4 0 38 -100 55 -114 20 -11 -30 -346 -42 -346 -13 0 8 -97 16 -215
17 -118 1 -321 3 -450 5 l-234 3 -14 54 c-12 50 -14 51 -29 12 -16 -45 -117
-80 -137 -48 -20 33 -90 12 -110 -33 -23 -51 -94 -65 -321 -62 -88 1 -169 -1
-180 -3 -11 -3 -29 -3 -40 0 -17 3 -188 4 -295 1 -50 -1 -44 -41 6 -41 23 0
60 -10 83 -22 22 -12 36 -14 30 -4 -6 10 42 18 107 18 66 -1 119 -8 119 -16 0
-14 -28 -23 -62 -19 -6 0 -11 -12 -11 -28 0 -19 22 -30 61 -31 268 -7 332 -2
332 30 0 15 26 31 60 36 33 5 60 2 60 -7 0 -9 63 -11 140 -4 l139 12 -3 -165
c-3 -141 -9 -167 -40 -175 -19 -5 -31 -18 -24 -28 6 -10 18 -13 27 -7 9 5 23
-6 30 -25 20 -53 50 8 51 103 l0 77 85 -14 c47 -8 117 -19 155 -26 59 -9 64
-13 30 -26 -33 -13 -28 -16 24 -18 35 0 69 7 75 17 6 10 58 29 116 43 117 28
87 58 -50 49 -41 -2 -75 1 -75 8 0 7 -81 9 -181 6 l-181 -7 6 87 6 86 255 0
c140 0 410 -6 600 -13 313 -13 360 -10 509 28 158 41 204 40 178 -2 -13 -21
-78 -44 -227 -83 -51 -13 -85 -33 -85 -51 0 -16 -11 -29 -24 -29 -17 0 -14
-10 6 -31 32 -32 28 -33 478 124 50 18 113 32 140 32 28 0 55 8 62 19 19 30
203 -3 190 -35 -14 -37 20 -43 177 -30 l139 11 -77 30 c-79 31 -120 93 -87
134 33 42 76 9 56 -44 -21 -54 40 -82 103 -48 38 20 41 16 45 -50 3 -64 47
-58 62 7 16 73 50 81 50 11 0 -39 10 -49 45 -48 41 2 508 -14 945 -31 99 -4
194 -10 210 -14 20 -5 29 8 28 38 -1 47 57 65 82 25 7 -11 31 -20 53 -20 27 0
38 -10 31 -28 -6 -15 -2 -65 8 -112 13 -59 12 -93 -3 -112 -17 -20 -16 -53 3
-128 28 -109 64 -123 75 -28 3 32 15 69 26 82 13 16 9 39 -11 71 -23 34 -28
76 -21 147 20 179 -2 203 -195 216 -324 23 -292 11 -306 112 -7 50 -3 167 9
260 11 93 21 179 21 192 0 13 15 22 34 21 39 -3 60 61 30 91 -13 13 -27 7 -41
-17z m-134 -125 c33 -37 32 -40 -9 -62 -50 -27 -160 -8 -160 28 0 73 112 96
169 34z m-2 -159 c45 -49 10 -76 -92 -72 -94 4 -105 14 -72 67 33 53 119 55
164 5z m-118 -181 c6 -10 29 -14 51 -8 28 8 40 1 40 -22 0 -38 -64 -70 -75
-38 -4 12 -23 17 -44 12 -40 -10 -71 22 -51 54 15 25 64 26 79 2z m-1629 -161
c0 -21 -78 -50 -94 -34 -5 6 -4 20 3 32 16 26 91 28 91 2z"/>
<path d="M7132 5393 c13 -34 108 -39 108 -6 0 16 -24 28 -59 29 -38 1 -55 -7
-49 -23z"/>
<path d="M8645 5255 c5 -14 19 -24 32 -23 13 1 43 3 68 5 37 3 39 7 15 23 -44
28 -125 25 -115 -5z"/>
<path d="M3949 5199 c-7 -11 -2 -33 10 -48 14 -17 15 -32 4 -39 -10 -7 -22
-48 -26 -92 -9 -86 20 -106 67 -49 14 18 42 47 61 65 34 32 33 35 -9 67 -35
27 -39 39 -20 62 13 16 18 35 10 42 -20 20 -82 15 -97 -8z"/>
<path d="M4920 5182 c0 -9 14 -28 30 -42 35 -29 6 -80 -45 -80 -19 0 -2 -27
44 -70 40 -38 81 -70 89 -70 19 0 13 125 -7 158 -8 13 -3 37 10 53 14 17 21
33 17 37 -20 17 -138 29 -138 14z"/>
<path d="M1321 5070 c-1 -79 19 -150 41 -150 29 0 20 129 -11 171 -28 37 -30
36 -30 -21z"/>
<path d="M8216 5065 c-27 -32 -47 -205 -24 -205 59 0 128 68 128 127 0 101
-51 140 -104 78z"/>
<path d="M8694 5009 c-39 -53 -35 -56 81 -49 36 1 65 -4 64 -13 0 -18 -138
-87 -171 -87 -33 0 -167 -74 -156 -86 16 -16 -69 -38 -92 -24 -11 7 -20 -2
-20 -19 0 -17 -8 -31 -17 -31 -10 0 -13 21 -8 47 5 29 22 47 42 45 20 -1 33
13 34 38 0 22 8 52 17 67 39 63 -25 63 -92 -1 -94 -89 -162 -128 -172 -99 -13
39 -83 26 -194 -35 -101 -56 -341 -78 -383 -35 -7 6 -25 -2 -41 -18 -16 -16
-60 -30 -97 -31 -38 -1 -93 -3 -123 -4 -56 -2 -89 40 -43 54 88 27 96 32 85
61 -25 64 -171 41 -156 -24 7 -30 14 -63 16 -72 5 -35 -416 -14 -443 22 -16
21 -25 24 -25 7 0 -33 -403 -17 -490 19 -73 31 -226 41 -242 16 -6 -10 -29
-13 -50 -6 -83 26 -33 -47 97 -142 74 -55 139 -100 145 -100 5 -1 64 -52 130
-115 66 -63 138 -119 160 -126 22 -6 60 -35 84 -64 24 -29 50 -47 56 -40 18
17 -28 176 -51 176 -10 0 -19 18 -19 40 0 22 -13 40 -30 40 -16 0 -30 -14 -30
-31 0 -17 -9 -26 -20 -19 -11 7 -20 29 -20 50 0 48 -34 69 -103 64 -30 -3 -59
2 -64 11 -5 8 87 15 204 14 l213 0 -3 -80 c-2 -43 -5 -160 -6 -259 -2 -165 -5
-177 -32 -140 -17 22 -44 40 -60 40 -17 0 -39 14 -49 30 -14 22 -19 23 -20 4
0 -63 -90 -15 -96 51 -5 54 -31 85 -135 169 -71 57 -129 115 -129 130 0 14
-17 26 -37 26 -20 0 -53 18 -73 40 -49 54 -78 41 -82 -33 -4 -72 -61 -167
-100 -167 -46 0 -35 140 14 192 81 86 -12 272 -167 337 -299 125 -587 -154
-457 -441 21 -46 44 -113 52 -150 17 -85 128 -254 176 -270 71 -22 29 -78 -60
-81 -94 -3 -206 -70 -206 -123 1 -30 3 -30 22 -4 14 19 24 22 30 8 28 -66 69
-99 57 -45 -10 41 -3 59 29 76 31 17 42 17 42 0 0 -13 14 -18 30 -12 22 9 30
-2 30 -36 0 -27 9 -54 20 -61 12 -7 20 20 20 69 0 44 9 81 20 81 11 0 20 -27
20 -60 0 -40 10 -60 30 -60 17 0 30 9 30 20 0 12 16 11 39 -4 32 -20 34 -30
15 -55 -21 -27 -20 -28 11 -4 54 43 46 136 -13 151 -78 19 -78 66 -2 118 38
26 87 71 111 100 49 63 79 69 79 16 0 -21 10 -42 23 -46 17 -6 17 -19 -1 -52
-25 -46 10 -58 42 -15 8 12 33 8 65 -8 56 -30 71 -33 418 -60 276 -21 293 -26
293 -82 0 -153 -121 -160 -358 -19 -188 112 -195 114 -210 65 -7 -20 -33 -36
-62 -38 -51 -3 -69 23 -26 38 13 4 16 12 5 18 -10 6 -104 -48 -209 -119 -104
-71 -176 -125 -160 -119 17 5 46 1 65 -8 25 -13 35 -11 35 10 0 52 171 98 380
101 72 1 110 -6 110 -21 0 -32 91 -109 112 -96 10 6 37 1 60 -12 34 -18 47
-17 60 4 14 22 17 22 18 1 0 -15 9 -21 19 -14 11 6 38 -25 60 -69 29 -55 50
-76 72 -68 16 6 124 5 240 -3 l209 -14 0 -93 c0 -78 -8 -97 -45 -113 -25 -11
-48 -40 -51 -65 -4 -25 -15 -45 -26 -45 -10 0 -13 21 -7 47 9 37 3 50 -32 59
-29 8 -40 22 -33 41 12 32 -31 81 -52 60 -8 -7 -9 -32 -3 -55 16 -72 -18 -103
-73 -65 -89 63 -122 45 -110 -60 13 -125 12 -125 262 -130 l220 -4 1 119 c3
254 -18 633 -33 594 -18 -49 -372 -67 -402 -21 -72 114 -17 155 185 137 200
-19 189 -23 159 67 -20 62 -18 80 19 139 31 51 36 71 16 78 -18 7 -12 23 20
56 25 26 45 37 45 25 0 -13 12 -28 28 -33 19 -8 24 0 17 27 -5 22 -26 39 -47
39 -24 0 -33 10 -25 30 6 17 1 30 -11 30 -12 0 -22 -11 -22 -24 0 -13 -14 -6
-30 15 -29 37 -30 36 -25 -21 3 -40 -3 -58 -21 -55 -19 4 -21 -4 -6 -32 12
-21 15 -43 8 -50 -7 -7 -2 -13 11 -13 37 0 27 -56 -12 -67 -43 -12 -278 -7
-291 7 -6 6 -4 104 3 218 l13 208 200 -4 c128 -3 204 -13 214 -28 11 -18 24
-18 55 1 22 14 55 25 73 25 17 0 56 12 85 28 29 15 116 48 193 73 77 25 151
50 165 54 113 40 -33 -100 -210 -203 -14 -8 -90 -18 -168 -22 -202 -11 -251
-68 -69 -81 50 -3 102 -13 116 -22 14 -9 42 -13 61 -10 40 6 45 -29 15 -108
-18 -47 -29 -52 -85 -43 -64 11 -64 11 -13 -12 28 -13 48 -34 44 -47 -5 -13 1
-29 13 -36 12 -8 21 4 21 28 0 42 75 52 103 13 20 -28 -6 -320 -30 -335 -14
-10 -12 -41 7 -96 40 -122 6 -139 -99 -52 -66 55 -103 71 -164 71 l-79 0 6
-125 6 -125 75 7 c73 6 75 4 75 -60 -1 -142 -51 -205 -98 -122 -29 52 -38 28
-44 -115 l-5 -130 163 -6 c152 -5 164 -3 164 34 0 21 13 52 29 68 48 48 17
116 -46 101 -56 -13 -59 -13 -98 -9 -31 3 -35 214 -4 233 51 31 119 -11 122
-76 2 -36 10 -6 19 65 28 242 37 265 92 251 40 -10 48 -6 41 23 -4 20 -19 33
-33 30 -76 -16 -91 79 -51 329 8 52 2 66 -30 77 -64 20 -60 169 4 165 25 -2
52 -13 60 -24 10 -14 14 -14 15 2 0 23 111 87 340 195 39 18 97 48 130 65 113
61 173 87 199 87 15 0 90 32 168 70 78 39 190 91 248 117 122 54 159 93 168
175 l7 60 -47 -51 c-52 -56 -76 -65 -68 -26 3 15 -21 28 -60 31 -36 4 -65 15
-65 25 0 33 -29 19 -66 -32z m-2927 -290 c76 -60 124 -313 51 -268 -10 6 -9
-12 2 -41 12 -32 13 -82 2 -131 -10 -43 -14 -79 -10 -79 13 0 -94 -149 -118
-164 -50 -32 -122 -19 -92 16 23 28 19 39 -28 79 -61 53 -67 69 -24 69 17 0
30 9 30 20 0 11 23 20 50 20 52 0 70 -48 25 -67 -14 -6 -16 -11 -3 -11 72 -6
102 121 35 146 -16 6 -24 3 -18 -7 7 -10 3 -24 -9 -31 -11 -7 -20 6 -20 27 0
38 -70 80 -94 56 -21 -21 19 -55 51 -43 27 10 28 7 8 -13 -37 -37 -170 -39
-156 -2 6 16 11 33 11 38 0 5 8 4 19 -2 10 -6 24 7 31 29 10 31 24 37 61 28
27 -7 50 -5 51 5 0 9 4 35 8 57 7 35 4 36 -16 8 -24 -31 -73 -28 -96 6 -6 9
-44 20 -85 24 -95 8 -101 15 -84 103 10 55 19 67 38 51 18 -15 50 -8 113 22
48 24 76 47 64 51 -55 19 -17 45 63 45 58 0 105 -14 140 -41z m406 -512 c46
-46 94 -103 107 -127 13 -24 34 -39 48 -33 36 13 80 -18 63 -46 -9 -14 -38
-18 -78 -9 -35 7 -110 17 -168 22 -129 12 -165 54 -165 191 0 133 38 195 80
131 16 -25 67 -83 113 -129z m184 85 c23 -24 18 -30 -34 -41 -73 -16 -94 -6
-109 51 -13 49 91 42 143 -10z"/>
<path d="M1460 5002 c0 -10 -6 -34 -13 -53 -9 -23 -5 -32 13 -26 40 14 66 97
29 97 -16 0 -29 -8 -29 -18z"/>
<path d="M5213 4822 c-4 -6 0 -34 7 -62 13 -43 17 -45 29 -15 9 19 28 35 43
35 15 0 28 8 28 18 0 20 -98 43 -107 24z"/>
<path d="M203 4648 c-15 -17 -42 -25 -65 -17 -21 6 -38 2 -38 -9 0 -14 -16
-15 -50 -2 -42 16 -50 13 -50 -16 0 -38 148 -39 171 -2 6 10 39 18 73 18 52 0
57 4 36 30 -31 37 -43 37 -77 -2z"/>
<path d="M1908 4562 c-178 -81 -277 -367 -204 -588 18 -57 23 -102 12 -122
-23 -40 -7 -40 54 0 46 30 49 29 61 -18 19 -78 132 -174 221 -188 43 -7 85
-22 93 -34 9 -14 14 -11 15 8 0 53 102 148 124 117 16 -23 21 -23 30 0 6 15
28 42 48 60 39 33 54 95 18 73 -11 -7 -20 1 -20 18 0 48 65 172 83 160 9 -6
17 17 17 50 0 33 10 66 22 73 25 16 61 -29 45 -55 -5 -9 3 -21 19 -27 21 -8
27 -36 20 -105 -17 -188 -41 -226 -95 -151 -21 27 -25 21 -27 -40 -3 -75 11
-90 50 -51 14 14 34 15 59 3 20 -11 48 -16 62 -11 52 19 75 -189 34 -318 -7
-20 -2 -36 11 -36 12 0 17 9 10 20 -7 11 4 21 24 22 21 0 26 5 11 11 -14 6
-25 18 -25 28 0 10 13 13 28 7 24 -9 25 4 8 76 -38 161 -35 415 6 437 55 30
58 26 60 -96 2 -121 31 -345 35 -273 2 23 35 82 74 130 79 99 82 192 9 343
-32 65 -22 124 14 88 6 -7 28 10 49 36 39 50 50 131 17 131 -10 0 -25 23 -32
51 -11 42 -60 89 -95 89 -9 0 -93 -153 -93 -169 0 -5 15 -23 33 -41 22 -22 26
-39 12 -53 -23 -23 -105 36 -105 75 0 13 -13 34 -30 48 -16 14 -30 42 -30 62
0 59 -77 49 -92 -12 -7 -27 -21 -50 -31 -50 -11 0 -28 -27 -40 -60 -26 -74
-57 -60 -57 26 0 230 -272 365 -512 256z m285 -152 c103 -30 145 -80 158 -185
5 -42 3 -43 -36 -15 -62 42 -173 8 -175 -55 0 -7 24 -5 53 6 99 38 215 -56
138 -112 -22 -17 -25 -28 -9 -33 17 -6 14 -25 -9 -71 -18 -35 -33 -77 -33 -95
0 -18 -9 -27 -19 -21 -11 7 -34 -10 -51 -36 -60 -92 -207 -72 -240 33 -13 44
-14 43 -28 -6 -15 -54 -44 -19 -53 64 -2 19 -17 64 -34 100 -39 82 -46 146
-27 236 31 147 52 178 129 191 40 7 82 15 93 19 34 12 40 11 143 -20z m527
-268 c0 -41 -26 -82 -52 -82 -30 0 -35 19 -16 68 13 34 68 45 68 14z m80 -40
c0 -10 5 -33 12 -50 20 -53 -24 -36 -48 18 -19 41 -18 50 6 50 17 0 30 -8 30
-18z m-1012 -132 l12 -80 -29 60 c-33 68 -42 149 -13 119 11 -10 24 -55 30
-99z"/>
<path d="M1925 4245 c-45 -15 -26 -45 30 -46 l55 0 -50 -29 c-58 -33 -5 -41
70 -11 23 9 51 7 65 -4 28 -23 33 2 8 41 -19 30 -138 62 -178 49z"/>
<path d="M2004 3986 c-42 -8 -81 -56 -61 -76 4 -4 46 1 93 11 89 20 177 -4
153 -42 -16 -27 15 -22 56 9 81 61 -83 128 -241 98z"/>
<path d="M3626 4504 c-57 -40 -111 -82 -120 -91 -21 -23 117 6 147 30 15 12
28 11 36 -2 8 -12 28 -21 46 -21 17 0 25 7 17 15 -9 8 -25 15 -37 15 -43 0
-36 47 9 62 74 24 685 11 1095 -22 133 -11 168 -39 93 -73 l-54 -24 46 -26
c86 -48 94 -39 120 123 6 38 -8 41 -324 52 -181 7 -474 18 -650 24 l-320 13
-104 -75z"/>
<path d="M738 4388 c-24 -139 -30 -150 -71 -143 -24 5 -56 2 -70 -7 -14 -8
-35 -9 -46 -2 -12 8 -124 14 -251 15 -126 1 -246 9 -265 17 -30 14 -35 5 -35
-66 l0 -82 245 -4 c135 -2 296 -1 358 2 129 6 152 -13 116 -99 -23 -58 -27
-59 -171 -59 -82 0 -146 -7 -143 -15 17 -50 -124 -30 -145 20 l-18 45 -13 -44
c-15 -49 -182 -49 -213 1 -9 12 -16 -28 -16 -89 0 -111 1 -113 55 -107 95 11
275 -19 278 -46 1 -14 3 -62 5 -106 1 -51 10 -77 23 -68 12 7 19 37 17 66 -10
137 -7 141 107 134 58 -3 152 -7 210 -8 l105 -3 0 -119 c0 -126 -16 -151 -80
-131 -31 10 -40 30 -40 90 0 116 -39 121 -43 6 -2 -53 -1 -124 1 -158 3 -35
-9 -72 -27 -87 -17 -14 -31 -18 -31 -8 0 9 -9 4 -20 -13 -14 -22 -20 1 -22 80
-3 105 -28 247 -38 215 -13 -38 -15 -62 -17 -155 -2 -58 -12 -100 -25 -100
-12 0 -17 14 -11 30 7 17 3 30 -8 30 -10 0 -19 -7 -19 -17 0 -9 -13 -16 -29
-16 -16 0 -25 7 -19 16 6 10 1 17 -11 17 -11 0 -22 -16 -23 -35 0 -19 -6 -24
-11 -11 -5 13 0 42 12 65 16 29 16 41 1 41 -12 0 -26 -13 -33 -30 -6 -16 -25
-30 -42 -30 -24 0 -25 6 -6 29 14 16 20 41 14 55 -6 16 -10 13 -11 -9 -1 -19
-12 -35 -24 -35 -12 0 -17 13 -12 28 12 31 -96 52 -180 36 -59 -11 -60 -48 -1
-43 102 7 150 -26 115 -81 -16 -26 -19 -25 -20 6 0 29 -7 32 -39 15 -21 -12
-52 -15 -70 -9 -25 10 -31 -3 -31 -70 l0 -82 135 -1 c74 -1 218 -6 320 -12
l184 -10 231 123 230 123 0 117 c0 137 11 145 195 139 197 -6 223 -1 269 52
24 27 55 46 69 41 13 -5 35 3 48 19 41 50 -73 71 -398 72 -139 0 -316 6 -393
14 l-140 13 7 70 c8 78 33 102 93 90 22 -4 200 -13 396 -20 l356 -13 -14 52
c-9 38 -2 62 27 87 32 28 82 204 58 204 -4 0 -33 -8 -65 -18 -375 -117 -386
-118 -360 -51 7 18 25 28 41 22 15 -6 39 2 52 18 28 35 14 36 -88 8 -60 -17
-73 -29 -62 -55 23 -57 20 -94 -6 -89 -14 3 -25 -4 -25 -15 0 -11 -9 -20 -20
-20 -11 0 -20 16 -20 35 -1 27 -4 29 -18 8 -15 -24 -89 -32 -245 -25 -30 2
-32 21 -23 152 11 141 9 150 -28 150 -35 0 -45 -22 -68 -152z m812 -188 c0
-16 -20 -33 -45 -36 -35 -5 -45 3 -45 36 0 33 10 41 45 36 25 -3 45 -19 45
-36z m-535 -478 c111 -4 87 -242 -24 -242 -6 0 -11 41 -11 91 0 56 -8 87 -20
79 -11 -7 -20 -43 -20 -81 0 -117 -93 -100 -103 18 -11 131 -2 151 59 144 30
-4 83 -7 119 -9z"/>
<path d="M3790 4439 c-7 -10 -5 -19 4 -19 9 0 127 -4 262 -8 136 -4 239 0 230
8 -26 24 -483 41 -496 19z"/>
<path d="M4455 4441 c-90 -18 -132 -51 -45 -36 33 6 123 -1 200 -14 148 -26
190 -22 190 17 0 14 -35 26 -85 28 -47 3 -107 8 -135 12 -27 4 -84 1 -125 -7z"/>
<path d="M7080 4438 c-46 -13 -46 -14 -6 -16 24 -1 49 -11 56 -22 18 -29 64
-24 76 8 13 34 -55 50 -126 30z"/>
<path d="M191 4421 c-19 -30 13 -37 129 -26 81 8 99 15 70 27 -57 22 -185 22
-199 -1z"/>
<path d="M3356 4296 c-2 -58 -5 -142 -6 -186 -5 -147 -6 -150 -68 -150 -76 0
-123 72 -121 185 4 181 -58 291 -90 160 -28 -115 -33 -409 -7 -400 14 4 25 30
26 57 0 29 12 48 30 48 22 0 28 -19 23 -75 -4 -55 2 -75 23 -75 16 0 28 16 27
35 -3 39 64 40 140 2 31 -16 62 -16 104 -1 38 13 86 14 136 2 240 -58 770 -53
710 7 -15 15 -30 14 -50 -2 -20 -17 -43 -18 -81 -4 -64 25 -67 66 -7 108 l45
31 -51 1 c-28 1 -62 -10 -75 -23 -20 -20 -33 -20 -64 0 -37 22 -40 19 -40 -46
0 -89 -41 -108 -113 -52 -52 42 -54 42 -89 5 -40 -43 -138 -36 -138 10 0 42
32 50 231 64 39 3 169 96 169 121 0 7 -52 13 -115 13 -63 1 -178 6 -254 10
l-140 9 -3 -64 c-5 -103 -28 -170 -54 -160 -17 6 -21 49 -16 146 19 295 16
317 -33 324 -41 6 -45 -2 -49 -100z"/>
<path d="M8882 4352 c-12 -14 -15 -33 -7 -42 8 -9 1 -11 -17 -5 -19 7 -31 0
-31 -17 0 -42 48 -34 63 11 6 21 27 42 46 45 32 7 32 8 0 20 -18 8 -43 2 -54
-12z"/>
<path d="M3649 4289 c22 -16 52 -25 67 -19 15 5 38 10 51 10 13 0 10 9 -7 20
-55 35 -158 25 -111 -11z"/>
<path d="M4947 4296 c-27 -34 -22 -161 6 -170 27 -9 51 130 30 168 -13 23 -20
24 -36 2z"/>
<path d="M8191 4302 c-13 -22 88 -90 106 -71 7 8 2 19 -12 24 -14 5 -38 21
-54 37 -16 16 -33 20 -40 10z"/>
<path d="M4341 4262 c-37 -25 -3 -40 89 -39 33 1 98 -8 145 -18 50 -12 91 -12
97 -2 6 10 19 13 29 6 10 -6 13 3 7 20 -7 17 -36 31 -65 32 -29 0 -102 5 -163
11 -60 5 -123 1 -139 -10z"/>
<path d="M7329 4193 c-7 -27 -24 -55 -38 -60 -16 -6 -22 -30 -16 -61 9 -50 43
-67 72 -38 64 63 132 -40 103 -158 -13 -52 77 -113 104 -70 7 12 2 25 -10 29
-35 12 -29 65 7 65 16 0 35 14 42 30 15 39 -28 91 -63 77 -15 -6 -38 13 -54
47 -15 31 -42 55 -59 54 -21 -2 -28 11 -22 41 13 67 -50 109 -66 44z"/>
<path d="M4816 4105 c-22 -44 -38 -54 -84 -48 -40 5 -54 -1 -47 -20 5 -15 23
-25 41 -21 42 7 62 -29 24 -43 -80 -31 -7 -180 83 -169 52 5 56 12 50 72 -5
53 2 69 34 77 22 6 45 25 52 41 9 23 1 28 -30 20 -48 -13 -77 36 -42 71 16 16
16 29 0 49 -33 39 -52 32 -81 -29z"/>
<path d="M7893 4147 c-22 -23 -15 -47 15 -47 15 0 38 -13 52 -30 43 -52 59
-32 24 30 -33 58 -64 74 -91 47z"/>
<path d="M8804 4066 c-20 -7 -20 -16 -3 -38 19 -22 14 -31 -23 -45 -60 -22 -5
-42 92 -33 33 2 76 -3 95 -13 28 -15 35 -10 35 22 0 23 -12 41 -27 41 -15 0
-43 18 -63 40 -36 40 -58 46 -106 26z"/>
<path d="M5154 4027 c-31 -51 -35 -367 -6 -526 16 -92 25 -175 20 -185 -18
-29 -48 -17 -48 20 0 20 -18 56 -40 79 -22 24 -40 55 -40 70 0 36 -219 298
-239 285 -9 -5 -28 4 -41 20 -14 17 -36 30 -50 30 -13 0 -49 19 -78 42 -39 31
-69 39 -108 29 -30 -7 -85 -20 -124 -29 -106 -25 -176 -63 -210 -115 -17 -26
-44 -47 -60 -47 -17 0 -30 -9 -30 -20 0 -23 -140 -243 -167 -262 -9 -7 -16
-18 -15 -25 10 -75 -2 -133 -28 -133 -49 0 -34 -66 30 -137 33 -36 60 -76 60
-88 0 -12 -11 -7 -26 12 -31 44 -94 24 -94 -29 0 -21 -9 -38 -20 -38 -25 0
-25 23 -1 88 12 30 12 55 1 62 -29 18 -45 -115 -21 -177 26 -69 26 -79 1 -63
-11 7 -20 -10 -20 -38 0 -46 -5 -49 -51 -32 -70 27 -68 28 -49 -38 9 -33 12
-63 7 -68 -5 -6 4 -9 20 -7 65 6 40 -39 -44 -80 -3 -2 3 -22 15 -44 23 -42 11
-103 -20 -103 -10 0 -18 25 -18 55 1 30 -5 84 -12 120 -8 42 -5 65 10 65 12 0
22 10 22 21 0 12 -8 17 -17 11 -32 -20 -140 320 -152 478 -19 241 -66 411
-137 486 -64 70 -180 125 -215 103 -16 -10 -52 -19 -81 -19 -156 -1 -234 -147
-279 -519 -28 -234 -52 -301 -109 -301 -26 0 -53 -9 -60 -20 -18 -29 -93 -25
-87 5 18 93 -30 263 -95 334 -37 42 -68 93 -68 113 -1 31 -4 33 -19 9 -10 -16
-14 -36 -9 -45 6 -9 1 -16 -10 -16 -12 0 -35 48 -52 107 -51 175 -81 201 -109
92 -13 -49 -27 -100 -31 -114 -5 -14 -39 -25 -75 -25 -65 0 -70 7 -174 213
-91 178 -112 207 -131 180 -18 -24 -38 -28 -82 -16 -62 18 -108 10 -108 -17 0
-9 25 -14 56 -10 52 7 59 -2 103 -116 27 -68 55 -133 65 -143 9 -10 16 -37 16
-59 0 -39 -1 -39 -31 4 -36 51 -169 124 -227 124 -22 0 -45 9 -52 20 -7 11 -3
20 9 20 11 0 21 8 21 18 0 21 -27 17 -100 -12 -27 -12 -78 -27 -113 -35 -35
-7 -69 -26 -74 -42 -6 -15 -60 -55 -120 -89 -210 -118 -282 -233 -344 -550
-16 -77 -38 -180 -49 -230 -64 -275 -84 -437 -71 -570 7 -77 15 -167 17 -200
l4 -60 -190 6 c-104 4 -217 11 -250 15 -106 14 -119 15 -185 12 -70 -3 -82
-29 -36 -75 18 -18 33 -21 41 -8 20 32 111 25 98 -8 -7 -17 6 -34 32 -42 59
-19 78 7 31 42 -36 26 -34 28 30 26 38 0 58 -6 44 -11 -37 -15 -30 -41 15 -53
26 -6 36 -21 29 -40 -17 -43 32 -67 55 -26 10 18 27 28 37 21 10 -6 13 4 5 24
-8 21 -16 26 -21 11 -6 -17 -16 -16 -37 5 -41 41 -36 47 42 45 38 -1 70 -10
70 -20 0 -11 11 -11 25 1 14 11 48 17 75 15 28 -3 60 3 72 12 16 13 26 -33 34
-153 7 -94 26 -200 44 -235 20 -40 24 -66 11 -70 -12 -4 -21 -21 -21 -38 0
-18 -16 -45 -35 -60 -33 -27 -32 -28 5 -15 102 35 110 34 110 -9 0 -23 9 -42
20 -42 11 0 20 -8 20 -18 0 -10 -31 -17 -70 -16 -38 1 -70 11 -70 23 0 12 -9
8 -20 -9 -17 -26 -19 -26 -20 3 0 18 -19 37 -43 44 -39 10 -40 15 -15 46 40
50 -80 -36 -282 -202 -298 -245 -340 -290 -340 -363 0 -75 31 -107 49 -51 6
20 36 48 66 63 30 14 44 29 31 34 -13 5 -41 -1 -62 -12 -21 -11 -44 -15 -51
-8 -21 21 91 67 132 55 27 -9 54 5 93 49 31 34 63 62 72 62 9 0 33 14 52 32
51 46 178 73 164 34 -13 -33 31 -70 60 -52 10 6 7 18 -6 26 -42 26 0 64 55 51
42 -11 45 -9 22 13 -74 68 -109 75 -158 29 l-48 -43 40 50 c53 68 70 78 106
65 21 -9 26 -3 17 21 -13 35 30 28 84 -14 16 -12 31 -20 35 -17 30 22 28 -3
-2 -25 -21 -16 -32 -36 -24 -43 23 -23 72 60 61 103 -8 29 -6 33 8 13 15 -21
28 -22 61 -4 66 35 51 -9 -22 -67 -48 -38 -56 -52 -30 -52 19 0 35 -9 35 -20
0 -11 -20 -20 -45 -20 -36 -1 -39 -4 -15 -19 16 -11 52 -14 80 -8 45 11 41 3
-35 -74 -90 -91 -110 -134 -46 -100 27 15 43 15 52 0 7 -12 26 -17 41 -11 15
6 28 4 28 -5 0 -32 -27 -42 -53 -20 -21 17 -27 14 -27 -10 0 -22 -11 -28 -35
-19 -30 12 -31 9 -8 -19 30 -38 15 -75 -30 -75 -20 0 -27 11 -19 32 15 39 -96
-62 -151 -137 -31 -43 -33 -55 -11 -55 16 0 50 31 76 70 27 38 62 70 78 70 25
-1 25 -4 2 -18 -28 -18 -14 -62 20 -62 11 0 15 8 9 19 -12 19 85 121 115 121
23 0 81 -59 60 -62 -9 -2 -25 -4 -36 -5 -89 -13 -143 -113 -60 -113 28 0 50
-8 50 -19 0 -10 -36 -14 -79 -9 -65 8 -83 2 -101 -31 -12 -23 -35 -41 -51 -41
-16 0 -29 -13 -29 -30 0 -16 -13 -30 -30 -30 -16 0 -30 9 -30 20 0 11 9 20 20
20 11 0 20 9 20 20 0 11 -13 20 -30 20 -16 0 -30 -9 -30 -20 0 -11 -24 -47
-53 -80 -54 -60 -107 -79 -107 -38 0 16 -10 15 -31 -3 -17 -14 -26 -37 -21
-51 5 -14 -1 -30 -14 -35 -13 -5 8 -11 46 -12 39 -1 115 -7 170 -13 l100 -12
144 146 c79 81 150 141 158 133 25 -26 19 -264 -8 -292 -19 -21 -20 -34 -2
-56 19 -22 17 -25 -9 -15 -18 7 -33 2 -33 -10 0 -27 119 -30 123 -2 1 11 5 45
9 75 32 243 32 246 5 241 -21 -5 -28 56 -32 292 -3 164 -14 309 -24 321 -10
12 -18 61 -17 108 1 120 94 118 122 -2 10 -41 26 -75 36 -75 10 0 18 -9 18
-21 0 -88 215 -127 272 -49 16 21 35 28 52 18 20 -12 20 -8 -1 18 -15 18 -37
28 -48 21 -12 -7 -15 -4 -8 9 8 11 5 26 -5 33 -10 6 -24 -5 -31 -24 -13 -33
-16 -32 -42 4 -28 38 -29 37 -29 -6 0 -28 -8 -40 -22 -32 -12 8 -29 4 -37 -9
-10 -16 -24 -11 -49 15 -53 60 167 180 233 128 14 -11 93 -26 175 -33 83 -7
161 -14 175 -16 98 -11 11 -343 -100 -382 -19 -7 -35 -27 -35 -45 0 -35 24
-26 98 39 l47 42 -32 -64 c-43 -83 -42 -86 16 -86 29 0 52 14 57 35 5 19 6 8
2 -25 -3 -33 -12 -80 -20 -105 -15 -54 33 -45 105 20 51 45 103 -7 66 -66 -25
-39 -24 -84 1 -69 11 7 20 2 20 -12 0 -13 22 0 49 29 31 34 51 44 58 27 5 -13
11 0 11 30 1 29 11 59 22 66 12 7 15 -11 7 -49 -10 -52 -7 -60 20 -49 22 8 33
2 33 -18 0 -16 -12 -34 -27 -40 -14 -6 -46 -65 -70 -131 -25 -67 -53 -127 -64
-134 -50 -30 -6 -45 131 -43 155 2 158 37 5 52 -8 1 -15 12 -15 23 0 12 16 17
35 11 40 -13 72 6 81 45 3 18 -9 22 -40 13 -36 -10 -39 -8 -16 8 17 12 45 22
64 22 18 0 39 8 45 19 7 10 -12 17 -41 15 -45 -3 -55 5 -62 54 -8 57 -7 57 72
47 85 -12 104 6 100 92 -2 39 -3 38 -16 -7 l-15 -50 -15 45 c-8 25 -24 45 -35
45 -10 0 -14 9 -7 20 7 11 3 20 -9 20 -11 0 -21 -13 -21 -30 0 -16 -8 -30 -19
-30 -10 0 -17 18 -16 40 2 22 12 40 23 40 13 0 12 8 -1 21 -14 14 -37 14 -74
0 -51 -19 -58 -15 -114 73 -32 52 -59 79 -59 60 0 -19 -9 -34 -20 -34 -11 0
-20 9 -20 20 0 11 -9 20 -20 20 -12 0 -12 -18 0 -51 26 -68 25 -75 -6 -46 -42
39 -36 97 12 117 35 14 36 18 9 19 -40 1 -42 8 -16 96 12 42 11 69 -2 77 -12
7 -17 34 -12 61 5 26 2 53 -8 59 -10 6 -12 19 -6 29 6 11 -3 19 -20 19 -17 0
-31 10 -31 22 0 12 -12 18 -28 12 -18 -7 -40 17 -63 68 -21 48 -49 78 -70 78
-20 0 -51 6 -71 13 -23 10 -30 6 -20 -10 15 -25 -12 -32 -35 -9 -8 8 -29 16
-48 19 -19 3 -37 13 -40 23 -4 10 -31 14 -61 8 -46 -9 -50 -6 -29 19 20 25 19
30 -5 30 -17 0 -30 -12 -30 -26 0 -15 0 -34 -1 -42 -2 -29 -101 -67 -142 -54
-33 11 -36 17 -15 31 16 9 44 12 63 6 19 -6 35 -2 35 9 0 11 6 36 14 56 11 31
9 33 -17 12 -91 -73 -267 -91 -226 -22 14 22 10 22 -18 -1 -39 -31 -58 -20
-67 41 -5 31 1 38 27 29 28 -11 29 -8 7 18 -23 28 -30 26 -66 -18 l-40 -50
-39 50 c-22 28 -35 55 -29 60 6 6 -15 84 -47 174 -31 89 -54 166 -50 170 4 4
13 -12 21 -34 7 -23 26 -42 43 -42 18 0 24 9 14 25 -23 36 -26 73 -7 85 20 12
2 90 -21 90 -9 0 -15 18 -14 40 2 22 12 40 21 40 10 0 13 15 5 33 -7 19 -1 42
13 52 18 13 11 15 -20 8 -35 -7 -41 -4 -26 15 20 24 15 106 -7 128 -6 6 -1 22
10 35 14 18 13 45 -6 90 -29 72 39 177 118 180 34 2 34 3 -3 18 -22 9 -47 12
-55 7 -26 -15 -16 23 18 72 26 38 27 49 5 63 -21 13 -20 24 8 54 19 21 34 54
34 74 0 24 10 31 31 23 41 -15 30 53 -11 72 -20 9 -11 14 25 15 57 1 73 28 32
53 -14 9 -18 5 -9 -9 9 -15 -2 -22 -32 -21 -25 0 -35 6 -21 11 14 6 25 28 25
49 0 21 10 38 21 38 12 0 16 9 9 20 -7 12 2 14 22 6 22 -8 30 -5 21 9 -7 12
-2 26 12 31 17 7 13 19 -15 40 -38 30 -36 31 36 25 41 -3 71 -1 65 5 -6 6 1
24 14 41 18 22 10 20 -30 -6 -30 -19 -55 -27 -55 -15 0 11 15 25 33 32 18 7
27 18 21 25 -28 27 46 72 77 46 25 -20 28 -19 17 8 -9 23 -1 33 25 33 28 1 30
5 10 18 -19 12 -5 25 50 48 43 18 64 33 47 34 -20 2 -17 8 10 19 23 9 51 7 65
-4 18 -14 25 -11 25 13 0 17 16 32 35 32 27 -1 29 -4 8 -18 -15 -9 -20 -20
-10 -25 31 -13 88 -134 69 -146 -11 -6 -19 -39 -18 -73 2 -40 8 -52 19 -34 9
14 11 41 6 59 -6 19 -1 40 11 47 11 7 15 22 8 33 -64 103 13 207 90 120 39
-45 138 -110 175 -115 48 -8 29 11 -48 44 -41 18 -65 36 -53 41 12 4 47 -5 78
-21 32 -17 66 -24 77 -18 11 7 15 -1 8 -18 -7 -17 2 -51 18 -74 16 -24 26 -54
21 -68 -4 -13 3 -56 17 -96 15 -44 18 -83 7 -100 -9 -15 -17 -46 -16 -68 1
-27 9 -18 25 26 13 37 32 59 41 50 10 -9 6 2 -7 24 -17 28 -19 62 -7 109 19
74 57 103 59 46 0 -19 5 -47 9 -63 4 -15 -5 -32 -20 -37 -17 -6 -22 -1 -14 12
8 13 5 23 -7 23 -11 0 -21 -17 -21 -37 0 -36 94 -95 117 -73 6 6 -9 17 -33 23
-24 6 -39 20 -32 30 6 10 17 14 25 9 8 -5 16 13 19 39 2 27 -4 49 -13 49 -9 0
-17 29 -19 65 -1 36 -5 83 -8 105 -5 32 7 41 57 46 54 5 63 0 62 -40 -1 -111
13 -216 28 -216 9 0 16 7 15 15 -6 36 3 111 12 102 26 -27 31 -204 6 -220 -20
-12 -20 -16 -1 -17 17 0 25 -34 25 -103 0 -57 5 -99 11 -93 15 15 15 297 1
436 -11 106 -11 109 22 64 19 -28 35 -96 39 -170 9 -177 44 -286 43 -134 -1
316 35 391 53 110 4 -55 9 -109 11 -120 3 -11 3 -24 1 -30 -19 -47 -9 -115 13
-96 29 23 32 12 27 -104 -5 -117 -9 -133 -33 -133 -14 0 -29 48 -37 116 -7 65
-22 117 -32 117 -18 0 -9 -129 14 -200 5 -16 14 -142 20 -280 5 -137 16 -254
23 -260 27 -20 12 -200 -26 -321 -11 -35 -8 -35 49 -7 34 17 61 43 61 57 0 44
56 51 120 15 33 -19 60 -41 60 -49 0 -8 14 -15 30 -15 17 0 30 -9 30 -20 0
-11 -17 -20 -38 -20 -21 0 -53 -5 -70 -12 -24 -9 -32 1 -32 42 0 47 -5 51 -30
30 -16 -14 -29 -49 -28 -77 l2 -53 14 50 c12 43 16 45 28 14 7 -20 29 -33 48
-30 19 3 35 -4 36 -17 0 -38 30 -57 30 -20 0 18 14 33 32 33 20 0 28 -11 21
-28 -6 -16 2 -34 18 -40 38 -14 37 -52 -1 -52 -27 0 -39 -24 -32 -65 4 -26
-32 -16 -58 15 -13 16 -19 43 -13 59 12 33 -17 58 -72 62 -30 2 -35 -15 -35
-111 0 -62 -6 -120 -14 -127 -19 -19 -23 -272 -5 -284 8 -5 10 10 4 34 -7 26
1 52 19 65 16 12 35 36 41 52 9 22 12 18 13 -11 1 -23 11 -50 22 -61 14 -14 9
-33 -16 -59 -36 -38 -36 -39 3 -59 22 -11 44 -31 48 -45 12 -35 -45 -31 -75 5
-51 61 -82 35 -79 -65 1 -52 -4 -142 -12 -200 -13 -95 -11 -105 23 -105 32 1
33 4 8 20 -20 13 -22 19 -5 20 14 0 25 14 25 31 0 17 8 26 18 20 21 -12 67 37
50 54 -6 6 7 30 29 52 22 22 46 34 53 26 7 -7 19 -14 27 -15 7 -1 31 -8 53
-17 92 -34 130 -59 130 -86 0 -19 13 -24 42 -14 26 8 49 3 59 -12 12 -20 27
-18 70 10 30 19 60 28 67 18 17 -24 68 -32 53 -9 -6 10 26 25 72 32 45 8 73
20 61 28 -26 15 -6 49 33 58 19 4 24 -6 15 -30 -10 -31 -8 -31 18 3 34 43 33
46 41 -119 4 -80 -4 -135 -23 -165 -22 -35 -23 -45 -3 -45 19 -1 18 -5 -3 -18
-15 -10 -21 -28 -13 -40 7 -12 4 -22 -6 -22 -19 0 -50 -64 -54 -110 -3 -40
-35 -120 -51 -131 -10 -6 -20 -44 -23 -85 -3 -41 -12 -74 -20 -74 -28 0 -15
-76 14 -87 20 -8 36 9 49 53 32 104 138 389 160 428 38 70 81 237 94 371 23
227 77 245 74 24 0 -24 43 -23 98 0 52 22 74 -3 57 -64 -18 -65 -111 -71 -158
-11 -24 31 -26 22 -15 -74 6 -60 4 -168 -6 -240 -18 -143 -12 -168 28 -114 29
41 36 13 62 -251 15 -162 92 -213 83 -55 -3 44 -13 80 -22 80 -10 0 -7 14 7
30 19 22 19 30 1 30 -13 0 -18 9 -11 20 7 11 2 20 -10 20 -12 0 -17 9 -10 20
7 12 22 15 34 8 13 -9 15 4 6 34 -14 47 -13 47 17 8 18 -22 32 -30 32 -17 1
39 -56 74 -84 51 -29 -24 -38 120 -10 148 8 8 15 31 15 51 0 21 9 37 19 37 11
0 15 14 8 30 -8 21 2 30 31 30 27 0 42 13 42 35 0 20 20 58 45 85 29 32 46 78
48 127 2 74 36 122 71 100 9 -5 16 0 16 12 0 13 22 17 55 10 42 -9 48 -7 25 9
-19 14 -21 21 -6 22 14 0 35 -19 47 -42 13 -25 34 -37 52 -30 16 7 47 3 67 -8
26 -14 42 -13 52 3 9 16 5 18 -14 7 -22 -12 -23 -10 -5 9 13 14 77 26 143 28
66 2 116 10 111 18 -5 8 -1 15 10 15 11 0 36 6 56 13 35 13 35 12 2 -26 -27
-31 -29 -45 -10 -65 20 -20 18 -30 -7 -49 -23 -17 -28 -36 -16 -68 9 -24 9
-48 0 -53 -8 -6 -12 -35 -7 -66 4 -31 -6 -83 -23 -116 -26 -49 -27 -64 -6 -80
43 -33 57 -93 29 -126 -22 -27 -20 -27 19 -3 39 25 49 22 92 -25 42 -45 46
-103 7 -98 -35 5 -35 -2 -5 -48 18 -27 24 -50 12 -50 -11 0 -20 9 -20 20 0 11
-9 20 -19 20 -23 0 -3 -63 28 -87 15 -11 15 -19 -1 -25 -12 -5 -18 -31 -13
-57 6 -34 -2 -50 -28 -58 -20 -5 -2 -8 40 -6 l77 3 67 230 c95 329 119 380
178 380 30 0 63 21 87 55 43 60 45 58 -81 153 -41 31 -75 67 -75 79 0 13 9 10
20 -7 14 -21 19 -22 20 -4 0 16 22 9 64 -20 93 -66 109 -83 112 -116 1 -17 30
-138 63 -270 34 -131 61 -259 61 -284 0 -112 61 -207 129 -203 74 5 126 47 80
65 -16 6 -29 0 -30 -14 0 -13 -14 -6 -31 16 -17 22 -26 61 -21 87 5 27 -6 65
-24 86 -36 42 -48 117 -19 117 10 0 13 9 6 20 -7 11 4 20 24 21 34 0 34 1 1
21 -20 11 -30 29 -23 40 6 12 -5 40 -25 63 -20 23 -26 36 -13 28 13 -7 29 -5
36 7 7 11 -1 20 -17 20 -20 0 -26 14 -19 45 7 32 4 37 -9 18 -16 -21 -22 -20
-32 7 -19 49 -16 106 7 113 12 4 8 29 -9 62 -16 30 -25 56 -20 58 5 1 20 3 34
5 36 3 42 84 9 115 -15 14 -24 42 -19 61 5 20 -1 36 -14 36 -15 0 -11 13 9 33
30 30 37 29 90 -10 32 -23 63 -34 69 -24 6 10 -5 23 -26 30 -21 7 -54 30 -73
52 -20 21 -54 39 -76 39 -34 0 -35 4 -11 33 21 26 21 35 2 42 -30 10 -34 165
-5 165 31 0 120 -84 120 -113 0 -14 23 -41 51 -59 28 -19 47 -43 43 -56 -4
-12 25 -36 64 -54 72 -33 72 -33 24 -52 -37 -15 -42 -23 -22 -36 17 -11 31 -8
36 7 4 13 16 18 26 12 10 -6 18 3 18 20 0 18 -22 42 -49 54 -27 12 -54 36 -60
53 -10 23 -6 25 16 6 22 -18 31 -17 38 2 22 61 -48 110 -72 51 -13 -32 -53 21
-41 54 5 12 -41 58 -102 101 -107 78 -131 115 -90 140 12 7 15 21 9 31 -38 62
20 4 72 -72 35 -51 68 -87 74 -81 6 7 -5 30 -25 52 -20 22 -32 45 -26 51 16
16 77 -13 66 -32 -6 -9 -1 -22 10 -29 11 -7 26 2 32 19 16 42 48 39 108 -11
l50 -40 -65 12 c-102 20 -77 -22 30 -49 65 -17 96 -17 101 -3 5 15 19 15 45 1
32 -17 36 -14 26 16 -8 25 2 21 36 -15 26 -27 74 -53 107 -56 34 -3 78 -27
101 -55 45 -55 89 -64 89 -19 0 17 8 30 17 30 20 0 14 -85 -7 -120 -8 -13 -2
-21 13 -19 56 8 107 -2 86 -16 -22 -15 -30 -108 -9 -95 40 25 68 -31 32 -64
-21 -20 -32 -25 -24 -12 7 13 5 28 -3 33 -9 6 -16 -16 -16 -48 1 -33 9 -59 19
-59 10 0 2 -17 -17 -39 -19 -21 -29 -47 -23 -58 7 -11 2 -23 -10 -27 -15 -5
-16 -39 -1 -117 11 -60 12 -112 2 -115 -9 -4 -9 -28 2 -55 21 -57 7 -62 -45
-15 -48 43 -97 51 -83 14 6 -15 19 -23 29 -17 27 17 22 -59 -6 -87 -19 -19
-16 -24 11 -24 26 0 32 -13 26 -55 -4 -30 1 -71 10 -90 13 -24 11 -35 -7 -35
-19 -1 -19 -5 2 -19 16 -9 30 -39 32 -64 2 -26 10 -62 18 -80 11 -23 4 -36
-22 -43 -20 -5 7 -10 59 -12 52 -1 95 2 95 7 0 5 -14 50 -31 100 -48 141 -20
216 89 240 74 17 84 25 76 65 -6 35 1 46 31 46 27 0 36 -10 28 -30 -7 -19 0
-30 19 -30 17 0 25 9 18 20 -16 26 50 26 90 0 24 -15 20 -20 -20 -22 -42 -2
-43 -4 -10 -12 22 -6 50 -18 62 -28 12 -10 50 -9 89 2 101 29 145 26 132 -10
-9 -22 2 -30 38 -30 27 0 49 9 49 20 0 11 -12 20 -27 20 -15 0 -25 19 -23 45
3 37 14 44 62 40 49 -4 52 -2 18 14 -22 10 -60 19 -85 20 -28 0 -45 14 -45 33
0 25 -6 28 -27 10 -15 -12 -51 -24 -80 -26 -49 -4 -78 -36 -34 -36 11 0 14
-14 8 -30 -9 -25 -20 -21 -55 20 -29 33 -50 44 -63 31 -27 -27 -193 2 -204 34
-6 19 22 22 113 12 78 -8 122 -5 122 8 0 11 36 29 80 40 45 12 80 13 80 3 0
-10 9 -18 20 -18 11 0 20 14 20 30 0 34 71 41 91 9 7 -12 25 -17 39 -12 33 13
98 -57 81 -86 -20 -32 20 -25 48 8 19 22 15 37 -20 72 -35 35 -38 47 -16 61
21 14 19 17 -8 18 -46 0 -45 44 3 74 30 19 46 18 75 -5 20 -15 29 -28 20 -28
-10 -1 -8 -13 5 -29 18 -21 16 -30 -7 -39 -44 -17 -38 -53 7 -53 33 0 65 -38
70 -84 1 -8 13 -25 27 -39 34 -34 31 -77 -5 -77 -16 0 -30 -9 -30 -20 0 -11
13 -20 28 -20 16 0 44 -6 62 -13 28 -11 31 -2 18 65 -13 71 -11 76 19 51 18
-16 33 -40 33 -55 0 -16 10 -28 22 -28 13 0 18 -18 12 -41 -7 -26 6 -57 34
-86 51 -50 85 -153 51 -153 -11 0 -41 43 -65 95 -64 138 -74 150 -101 128 -13
-10 -41 -23 -63 -29 -26 -6 -18 -10 25 -12 72 -2 88 -46 30 -81 -29 -18 -27
-20 15 -10 45 10 54 2 82 -74 31 -86 78 -127 78 -69 0 18 14 32 30 32 17 0 30
-14 30 -30 0 -25 82 -26 113 -2 17 14 -201 408 -222 400 -15 -6 -33 -1 -40 11
-7 11 1 21 19 21 77 0 10 47 -69 49 -90 2 -92 3 -150 129 -35 78 -39 102 -13
102 10 0 24 -23 31 -52 17 -69 69 -120 136 -132 64 -12 64 -12 24 65 -29 57
-69 80 -69 39 0 -33 -29 -22 -56 22 -23 36 -21 42 12 51 69 18 -138 430 -221
441 -62 8 -71 -8 -23 -43 17 -13 33 -47 35 -77 2 -29 14 -58 28 -63 14 -5 25
-27 25 -49 0 -22 9 -45 20 -52 11 -7 20 -36 20 -64 l0 -51 -36 47 c-20 27 -49
80 -64 118 -15 39 -41 91 -57 117 -17 25 -33 75 -37 109 -8 74 -36 109 -52 66
-7 -17 -4 -36 7 -43 10 -6 19 -33 19 -60 0 -48 -13 -55 -140 -76 -50 -8 -50
-8 -5 -23 73 -24 52 -47 -33 -36 -42 6 -92 2 -111 -8 -18 -10 -62 -15 -97 -9
-55 8 -58 11 -24 25 39 15 39 15 -3 17 -35 1 -82 -51 -62 -70 12 -13 230 -15
250 -2 12 8 59 8 103 1 73 -12 79 -10 69 29 -9 32 0 44 42 54 66 17 80 4 52
-49 -19 -36 -17 -42 16 -42 45 0 74 -80 37 -105 -17 -12 -15 -15 6 -11 17 3
35 -3 40 -14 6 -11 -19 -23 -55 -26 -41 -4 -68 3 -73 20 -26 85 -34 97 -54 85
-15 -10 -15 -20 0 -35 27 -27 29 -94 3 -94 -10 0 -23 8 -29 17 -6 10 -31 16
-57 15 -47 -3 -74 20 -75 65 0 20 16 24 55 15 41 -10 47 -8 25 7 -50 34 -114
24 -126 -19 -8 -33 -27 -40 -100 -40 -50 0 -94 -8 -97 -17 -4 -9 -39 -13 -78
-8 l-71 8 31 126 c17 69 41 138 54 153 13 15 33 95 46 176 28 182 28 183 101
162 37 -11 64 -9 72 3 18 30 -6 44 -77 46 -45 1 -66 12 -71 36 -6 31 6 33 120
21 124 -14 328 -14 486 -2 99 8 146 -18 97 -54 -55 -40 -19 -93 58 -86 36 3
227 -1 425 -9 796 -34 1192 -38 1219 -16 19 16 31 16 40 2 22 -35 51 -24 51
20 0 23 -9 36 -20 29 -11 -7 -20 -3 -20 9 0 11 9 21 20 21 11 0 20 18 20 40 0
54 -27 58 -520 70 -236 6 -506 14 -600 18 -93 4 -345 13 -560 20 -343 12 -759
45 -776 61 -15 15 62 70 81 58 12 -7 16 -4 9 7 -17 28 43 80 111 97 30 7 55
19 55 26 0 18 -125 16 -153 -2 -51 -33 -187 51 -172 105 7 26 6 26 -13 0 -23
-34 -104 -40 -127 -10 -21 29 -18 54 5 40 11 -7 20 -3 20 9 0 11 -10 21 -22
21 -17 0 -17 7 -1 27 13 15 17 33 9 40 -7 7 -1 13 13 13 21 0 21 6 1 30 -21
25 -17 30 23 32 33 2 37 5 12 12 -35 9 -48 67 -20 94 8 9 16 24 18 34 1 10 3
27 5 37 1 11 17 14 35 7 22 -8 29 -4 23 16 -6 15 -25 27 -42 25 -52 -4 -58 52
-9 72 36 15 38 19 9 20 -19 0 -57 15 -83 32 -27 18 -52 23 -59 12 -6 -10 1
-24 16 -30 38 -14 62 -131 34 -159 -16 -16 -22 -12 -22 15 0 21 -6 32 -13 24
-8 -7 -1 -36 14 -65 25 -47 24 -55 -10 -80 -26 -19 -30 -28 -11 -28 21 0 22
-6 6 -22 -13 -13 -18 -34 -13 -48 5 -14 1 -31 -10 -38 -10 -7 -15 -29 -9 -50
5 -21 0 -43 -12 -51 -12 -7 -26 10 -34 38 -7 28 -19 51 -28 51 -9 0 -3 -42 12
-93 36 -119 36 -185 0 -199 -22 -8 -27 -41 -21 -132 l7 -122 -124 12 c-326 30
-902 313 -804 394 17 14 30 37 30 52 0 35 -10 37 152 -23 76 -29 165 -61 198
-72 33 -12 88 -34 123 -49 111 -49 142 -30 42 26 -99 55 -128 98 -50 75 44
-13 44 -13 5 17 -22 17 -44 24 -50 17 -18 -26 -148 -10 -230 27 -44 20 -88 34
-99 32 -82 -19 -140 49 -82 97 17 14 29 62 30 117 1 127 13 217 40 322 12 48
18 92 12 98 -6 6 -16 -18 -23 -53 -7 -35 -21 -69 -31 -75 -10 -6 -12 -19 -6
-29 6 -11 -3 -19 -20 -19 -37 0 -42 73 -6 86 18 6 13 23 -17 56 -49 56 -77
144 -42 133 90 -30 106 448 19 543 -55 59 -77 133 -49 167 11 14 25 66 31 115
6 50 17 119 24 155 11 51 7 65 -17 65 -31 0 -66 125 -44 160 7 11 4 34 -6 52
-10 18 -24 25 -30 15z m-1869 -398 c81 -54 104 -110 91 -219 -4 -39 -1 -70 8
-70 9 0 16 11 16 25 1 18 6 17 18 -3 19 -29 -11 -122 -39 -122 -8 0 -24 -26
-36 -59 -69 -198 -363 -178 -415 29 -29 115 37 437 92 452 104 29 190 18 265
-33z m1398 -82 c10 -12 18 -48 17 -80 -1 -31 7 -103 16 -160 9 -57 10 -120 3
-140 -25 -68 10 -306 36 -247 23 51 28 22 34 -200 1 -58 27 -105 49 -91 20 12
89 -220 91 -304 0 -36 3 -65 4 -65 26 0 67 30 67 50 0 15 11 32 25 38 20 10
20 14 0 24 -19 8 -18 18 5 41 17 17 24 40 17 52 -8 13 -4 15 10 7 13 -8 19
-22 13 -32 -19 -31 68 4 102 42 44 49 59 48 59 -2 0 -22 -12 -40 -26 -40 -15
0 -22 -9 -15 -20 7 -11 -2 -20 -19 -20 -17 0 -31 -10 -31 -22 0 -12 -13 -17
-29 -11 -38 15 -62 -24 -33 -53 12 -12 22 -30 22 -39 0 -10 -15 -3 -32 15 -18
17 -38 26 -45 18 -7 -7 -2 -17 12 -22 44 -16 27 -46 -26 -46 -48 0 -50 -5 -46
-110 3 -117 21 -137 58 -67 18 33 17 46 -4 59 -20 13 -20 17 -2 18 14 0 25 15
25 34 0 29 4 29 29 -5 29 -38 30 -37 31 11 0 40 5 44 20 20 17 -26 19 -25 20
5 0 19 7 34 15 33 40 -7 63 4 58 27 -4 14 -3 18 2 10 5 -8 19 -9 32 -1 15 9
15 4 -2 -17 -13 -17 -20 -36 -14 -42 6 -6 -12 -29 -40 -51 -28 -22 -52 -61
-52 -87 -2 -44 -3 -44 -19 -7 -9 22 -18 28 -19 13 0 -15 -14 -22 -29 -17 -17
7 -33 -6 -40 -32 -16 -62 -15 -109 3 -83 32 45 147 78 167 47 15 -24 17 -24
18 0 0 16 5 24 11 17 14 -13 -43 -130 -81 -168 -14 -14 -31 -20 -38 -13 -6 7
-12 3 -12 -8 0 -12 18 -26 40 -32 27 -7 40 -27 40 -62 0 -60 -82 -156 -96
-113 -5 15 12 43 38 63 55 41 41 71 -19 40 -22 -12 -45 -22 -51 -22 -13 0 1
73 20 103 10 16 1 20 -29 12 -24 -6 -43 -2 -43 9 0 11 18 24 40 30 22 6 40 18
40 27 0 9 17 22 38 28 21 7 43 32 49 57 10 41 9 42 -17 7 -15 -20 -36 -32 -47
-25 -11 7 -23 2 -27 -11 -17 -49 -76 -35 -76 18 0 28 -5 47 -10 41 -18 -17
-16 -210 2 -239 10 -15 18 -63 19 -107 5 -196 6 -202 37 -159 16 21 23 47 17
57 -6 10 3 13 21 6 20 -7 32 -3 29 9 -3 12 5 26 17 30 39 15 5 -114 -45 -168
-36 -39 -42 -57 -24 -78 17 -21 15 -36 -10 -64 -18 -20 -33 -44 -34 -55 0 -10
-18 -54 -39 -98 -21 -44 -39 -107 -39 -140 -1 -33 -14 -85 -30 -115 -16 -31
-20 -55 -9 -55 11 0 15 -9 8 -20 -7 -11 -3 -20 8 -20 11 0 25 9 32 20 17 28
33 24 88 -21 61 -52 13 -119 -86 -119 -49 -1 -56 -5 -32 -22 23 -16 19 -17
-19 -7 -69 20 -156 129 -103 129 10 0 23 -15 30 -33 7 -18 19 -27 26 -20 7 7
25 2 40 -10 47 -40 47 -6 -1 59 -61 83 -130 47 -127 -66 1 -38 8 -59 16 -47 8
14 19 6 27 -21 8 -25 24 -37 37 -30 13 8 0 -12 -29 -42 -75 -78 -127 -57 -109
45 8 41 19 102 25 135 12 67 188 535 236 628 35 69 41 173 10 192 -13 9 -16
-4 -8 -35 12 -48 -57 -195 -91 -195 -37 0 -79 25 -69 42 16 25 -51 -3 -126
-54 -73 -50 -250 -98 -295 -81 -17 7 -30 3 -30 -8 0 -29 -114 -18 -249 24
-140 44 -211 87 -211 127 0 35 -51 40 -72 7 -7 -12 1 -31 19 -41 58 -32 36
-52 -82 -72 -128 -22 -145 -18 -145 36 0 29 11 35 50 28 28 -5 50 0 50 12 0
11 -27 20 -60 20 -42 0 -60 10 -60 32 0 25 16 31 70 24 38 -4 73 2 78 13 5 13
17 9 30 -9 17 -23 21 -24 22 -3 0 19 15 24 50 15 56 -14 56 -12 32 91 -11 50
-10 82 5 98 18 19 16 21 -5 9 -22 -12 -26 -4 -18 36 6 29 4 49 -4 44 -7 -4
-28 23 -46 61 -38 79 -87 90 -113 24 -15 -40 -19 -41 -31 -10 -8 19 -9 50 -2
68 7 17 3 44 -9 58 -13 15 -14 30 -2 37 10 6 24 -9 30 -35 7 -25 26 -46 42
-46 37 0 19 94 -22 119 -16 9 -23 25 -16 35 6 11 0 19 -15 19 -19 1 -18 6 4
20 39 25 66 25 50 0 -7 -11 -3 -20 8 -20 44 0 38 36 -10 57 -29 14 -44 33 -36
46 7 12 16 41 18 65 3 23 6 49 7 58 2 8 31 1 65 -17 67 -35 118 -27 118 19 0
16 11 33 25 39 15 6 11 10 -9 11 -24 2 -31 13 -22 37 7 19 6 29 -2 22 -8 -7
-17 -29 -20 -49 -7 -48 -52 -61 -54 -15 0 21 -5 26 -11 12 -22 -54 -67 -28
-46 27 10 28 14 59 8 69 -15 26 12 159 33 159 9 0 12 -13 5 -30 -6 -16 -1 -30
12 -30 12 0 21 -11 20 -25 -10 -76 2 -122 25 -99 33 33 56 30 56 -6 0 -16 7
-30 15 -30 21 1 69 33 64 42 -3 5 2 31 11 58 15 47 17 48 32 10 14 -38 15 -38
17 5 0 25 11 45 22 45 12 0 16 9 9 19 -6 11 6 30 27 43 21 14 34 39 29 59 -5
19 13 70 41 114 31 49 47 99 41 128 -8 42 -7 43 9 7 17 -37 20 -36 43 20 l25
60 18 -70 c39 -148 65 -175 193 -194 78 -11 164 37 164 93 0 36 -4 36 -55 10
-70 -37 -115 -37 -151 0 -16 16 -35 24 -42 17 -6 -7 -12 -4 -12 8 0 11 35 30
78 43 44 13 105 54 140 94 72 81 84 135 17 76 -53 -47 -205 -127 -242 -127
-51 0 -168 159 -179 245 -14 100 -6 115 57 115 49 0 61 -72 23 -134 -60 -96
100 -161 185 -76 26 26 22 27 -32 7 -36 -14 -76 -17 -99 -7 -35 16 -35 18 7
25 56 10 57 32 2 69 -36 24 -39 35 -20 71 37 68 27 102 -38 135 l-60 32 35 61
c52 88 130 137 219 137 42 0 91 9 107 20 22 14 32 10 37 -16 4 -18 16 -44 26
-57z m206 -89 c-39 -43 -39 -43 11 -28 44 14 47 12 22 -17 -23 -28 -22 -33 8
-33 27 0 30 -6 13 -26 -18 -22 -9 -26 42 -20 49 5 55 2 26 -10 -25 -11 -31
-22 -16 -31 37 -23 9 -63 -45 -66 -42 -2 -50 6 -50 55 0 32 -9 58 -20 58 -12
0 -15 -22 -7 -53 9 -38 6 -49 -10 -39 -13 8 -18 23 -12 33 6 11 2 19 -11 19
-15 0 -15 11 0 40 15 28 15 52 1 79 -26 47 -27 67 -3 52 9 -6 23 9 29 34 9 35
17 39 36 20 19 -19 16 -33 -14 -67z m-745 -78 c5 -33 1 -60 -10 -60 -10 0 -9
-12 4 -28 18 -21 16 -30 -10 -40 -23 -9 -29 -4 -21 16 6 16 -2 40 -18 53 -16
13 -29 34 -29 45 0 12 14 4 31 -17 29 -37 31 -35 24 35 -8 86 16 84 29 -4z
m-144 -70 c0 -16 9 -30 20 -30 11 0 20 -16 20 -35 -1 -28 -4 -29 -18 -7 -22
35 -64 11 -49 -29 6 -16 2 -29 -9 -29 -34 0 -45 61 -13 73 19 7 26 26 18 49
-6 21 -2 38 10 38 11 0 21 -13 21 -30z m1120 -87 c0 -22 -91 -63 -140 -63 -21
0 -43 -9 -50 -20 -7 -12 2 -14 22 -6 20 7 30 5 23 -6 -7 -11 5 -19 25 -19 20
0 33 6 29 13 -11 18 73 39 96 25 21 -13 14 -148 -9 -180 -11 -14 -5 -35 13
-53 17 -17 30 -48 30 -68 -1 -30 -4 -29 -19 7 -23 58 -56 75 -89 48 -21 -18
-38 -17 -67 1 -41 26 -38 77 3 79 24 0 113 68 113 85 0 22 -78 -12 -88 -38 -6
-15 -29 -28 -51 -28 -23 0 -41 -9 -41 -20 0 -11 -10 -20 -22 -20 -16 0 -15 9
2 30 14 17 19 30 12 30 -7 0 -4 20 8 45 20 41 19 42 -6 10 -32 -40 -102 -48
-89 -10 5 14 18 25 30 25 12 0 28 7 37 15 8 8 -4 15 -27 15 -24 0 -48 9 -55
20 -7 11 1 20 18 20 21 0 27 11 17 35 -12 33 -11 33 23 0 20 -20 45 -29 59
-20 22 14 147 59 178 63 8 1 15 -6 15 -15z m-995 -57 c-14 -5 -20 -18 -14 -28
24 -38 27 -106 6 -132 -16 -19 -15 -34 4 -57 22 -26 19 -33 -17 -42 -24 -6
-40 -17 -36 -24 4 -7 -5 -25 -20 -39 -16 -15 -28 -17 -28 -5 0 12 -14 21 -31
21 -19 0 -26 -9 -17 -23 10 -16 3 -20 -21 -10 -26 10 -32 6 -24 -17 16 -41
-54 -40 -88 1 -14 17 -17 29 -7 27 84 -20 163 68 172 193 5 80 94 199 124 167
16 -17 15 -25 -3 -32z m-1006 -186 c31 0 81 20 111 44 l56 43 -15 -98 c-8 -55
-18 -157 -21 -229 -3 -71 -25 -204 -49 -295 -24 -90 -38 -173 -32 -184 7 -11
-5 -31 -27 -44 -30 -19 -37 -39 -28 -81 6 -33 2 -56 -10 -56 -12 0 -18 18 -14
41 4 22 -1 35 -11 28 -30 -18 -22 -85 10 -93 21 -4 24 -15 12 -35 -33 -52 -48
-5 -54 164 -8 228 -22 356 -55 481 -15 59 -35 178 -43 264 l-14 158 64 -54
c36 -30 88 -54 120 -54z m351 -82 c4 -48 22 -97 39 -110 36 -26 43 -57 8 -36
-16 10 -18 5 -6 -14 10 -15 15 -45 12 -65 -3 -21 2 -32 13 -25 26 15 45 -59
21 -83 -12 -12 -7 -29 12 -44 18 -16 30 -55 29 -98 l-2 -73 -16 66 c-24 101
-43 103 -29 3 8 -61 6 -80 -8 -61 -10 16 -15 40 -9 55 6 15 1 27 -10 27 -11 0
-18 22 -15 49 3 28 -2 45 -12 39 -9 -6 -18 -62 -18 -124 -1 -82 -6 -102 -18
-73 -9 23 -10 81 -1 130 9 49 12 96 6 105 -5 9 3 31 17 49 19 23 20 28 2 18
-18 -11 -26 3 -27 46 -3 56 -6 76 -17 116 -3 8 -3 50 -1 92 2 51 -4 73 -18 64
-12 -7 -22 -5 -22 6 0 18 43 43 55 33 3 -2 10 -44 15 -92z m490 62 c0 -11 -10
-20 -21 -20 -12 0 -17 -7 -12 -16 6 -8 -7 -15 -28 -15 -48 0 -50 23 -4 49 45
27 65 27 65 2z m-1314 -75 c-12 -32 -9 -32 30 2 42 37 42 37 33 -15 -6 -30 -1
-52 12 -52 12 0 16 -9 9 -20 -8 -13 -25 -13 -50 0 -31 16 -43 12 -61 -22 -15
-28 -16 -38 -2 -30 15 9 20 -26 17 -105 -2 -66 -11 -115 -19 -110 -17 11 -23
-4 -55 -129 -12 -47 -29 -81 -37 -76 -23 14 10 329 38 363 17 20 17 29 1 29
-53 0 -24 151 33 174 30 12 57 23 59 24 3 1 -1 -14 -8 -33z m2346 -35 c30 -27
49 -50 43 -50 -7 0 -28 -5 -48 -12 -31 -10 -32 -8 -7 10 26 18 25 21 -5 22
-19 0 -35 11 -35 25 -1 17 -7 15 -20 -5 -16 -24 -19 -21 -20 15 0 58 25 57 92
-5z m8 -112 c0 -12 14 -17 30 -11 17 7 30 2 30 -10 0 -12 -18 -17 -39 -11 -22
5 -42 1 -45 -9 -10 -29 -69 0 -69 34 0 17 19 29 46 29 26 0 47 -10 47 -22z
m23 -140 c-49 -51 -41 -78 10 -36 30 25 11 -38 -25 -79 -20 -24 -62 53 -45 83
13 22 12 34 -2 34 -12 0 -21 14 -21 32 0 25 12 29 52 19 39 -9 48 -6 37 13
-12 20 -9 21 10 3 21 -19 17 -33 -16 -69z m-973 -17 c-16 -32 -48 -64 -71 -71
-33 -11 -36 -19 -18 -42 15 -17 16 -28 4 -28 -26 0 -47 51 -29 69 7 8 14 24
16 37 1 13 3 38 5 54 2 18 27 32 63 34 60 4 60 4 30 -53z m-620 -87 c5 -40 1
-77 -10 -84 -12 -8 -20 25 -20 82 0 108 17 109 30 2z m-618 -63 c-3 -88 -38
-128 -81 -92 -43 36 -39 55 22 112 66 61 62 62 59 -20z m-369 -66 c3 -46 -1
-90 -9 -98 -8 -7 -14 34 -14 93 0 124 16 128 23 5z m185 -14 c-7 -28 -20 -46
-30 -40 -11 7 -10 27 2 49 25 47 25 66 0 50 -11 -7 -14 2 -7 21 20 53 51 -17
35 -80z m2642 34 c-8 -19 -15 -46 -16 -59 0 -13 -9 -19 -18 -13 -23 14 -79
-33 -65 -55 6 -10 -3 -12 -20 -6 -47 18 -38 49 34 111 75 64 105 72 85 22z
m-2274 -145 c1 -45 0 -46 -16 -10 -9 22 -17 72 -16 110 l1 70 15 -60 c8 -33
16 -82 16 -110z m344 128 c0 -27 5 -28 30 -8 25 21 30 18 30 -17 0 -23 -18
-51 -40 -63 -35 -19 -40 -41 -38 -166 1 -119 5 -133 20 -84 10 33 14 71 9 85
-6 14 -2 25 7 25 21 0 41 -71 42 -146 0 -32 8 -51 20 -44 11 7 20 3 20 -9 0
-11 -7 -22 -15 -23 -8 0 -31 -4 -50 -8 -19 -3 -40 2 -46 12 -7 10 -20 13 -30
7 -26 -16 -59 77 -48 135 22 114 27 136 48 173 15 29 15 44 -1 54 -14 9 -15
20 -1 34 11 11 15 32 9 47 -6 16 0 28 12 28 12 0 22 -15 22 -32z m-653 -93
c-9 -40 -7 -41 17 -13 22 27 31 28 51 6 60 -64 11 -165 -65 -135 -33 12 -44
187 -12 187 10 0 14 -20 9 -45z m-81 -23 c23 -58 -9 -123 -39 -81 -26 35 -27
35 -29 -2 -2 -23 -8 -14 -16 21 -18 78 57 133 84 62z m951 -135 c-4 -26 -16
-45 -27 -43 -26 5 -37 59 -21 101 18 47 56 1 48 -58z m-537 -26 c0 -36 -10
-48 -39 -46 -21 2 -36 8 -33 14 3 6 11 27 18 46 19 52 54 43 54 -14z m-382
-88 c-10 -3 -13 -15 -7 -25 6 -10 -12 -7 -41 6 -49 22 -50 26 -20 49 27 19 40
19 60 1 14 -13 18 -27 8 -31z m176 11 l42 42 12 -62 c8 -39 3 -67 -13 -77 -20
-13 -20 -16 0 -17 14 0 25 -18 25 -40 0 -46 -8 -48 -60 -20 -24 13 -35 36 -30
62 7 36 4 38 -25 15 -23 -19 -28 -20 -18 -2 9 14 7 25 -2 25 -21 0 -27 56 -11
100 8 21 15 16 24 -19 l13 -50 43 43z m736 -110 c-26 -27 -47 45 -24 85 23 39
24 38 30 -16 4 -31 1 -62 -6 -69z m-390 -5 c0 -22 14 -45 30 -52 17 -6 30 -28
30 -48 0 -29 13 -36 57 -33 45 3 55 12 47 42 -7 26 -3 33 13 24 28 -18 30 -85
3 -102 -34 -21 -22 -55 15 -42 20 7 11 -9 -22 -39 -32 -28 -70 -47 -84 -41
-18 7 -23 -1 -15 -22 11 -27 1 -30 -66 -18 -56 10 -70 8 -48 -7 27 -18 27 -20
0 -21 -17 0 -41 -18 -55 -39 -27 -44 -69 -37 -133 22 -36 34 -36 35 16 48 41
11 50 22 41 51 -13 42 38 55 62 16 10 -16 19 -14 31 5 14 22 18 21 18 -3 1
-24 5 -24 21 4 15 26 32 30 82 15 67 -19 97 -11 97 27 0 15 -9 12 -21 -6 -17
-26 -23 -26 -44 2 -14 17 -35 28 -48 24 -28 -10 -47 17 -60 89 -11 64 -27 86
-27 38 0 -35 -30 -45 -49 -15 -17 28 10 82 41 82 15 0 28 9 28 20 0 11 9 20
20 20 11 0 20 -18 20 -41z m330 1 c-7 -22 -5 -40 4 -40 10 0 19 -18 21 -40 1
-22 -6 -40 -17 -40 -11 0 -14 11 -6 23 10 16 4 19 -19 10 -18 -7 -46 -18 -63
-25 -16 -7 -30 -3 -30 9 0 11 18 26 40 33 26 8 40 30 40 61 0 27 10 49 21 49
13 0 16 -17 9 -40z m2979 -40 c59 -22 64 -59 22 -178 -17 -46 -21 -78 -10 -72
10 7 19 -7 19 -31 0 -25 -16 -47 -38 -53 -29 -7 -50 -52 -85 -178 -53 -193
-60 -199 -107 -83 -71 176 -73 195 -20 346 27 78 51 171 54 206 5 69 59 84
165 43z m-2842 -135 c-37 -38 -46 -30 -38 34 12 94 38 120 51 51 7 -35 1 -71
-13 -85z m-151 8 c4 -19 -6 -33 -25 -33 -18 0 -31 17 -31 42 0 48 47 42 56 -9z
m336 -76 c21 -24 27 -37 13 -29 -17 9 -25 1 -25 -26 0 -28 -9 -37 -30 -29 -16
6 -30 1 -30 -12 0 -13 -9 -18 -20 -11 -11 7 -20 40 -20 74 0 52 4 57 30 36 25
-20 30 -19 30 8 0 42 6 41 52 -11z m-135 -45 c13 -67 -16 -108 -46 -66 -20 27
-30 30 -37 10 -6 -14 -12 -1 -12 30 -1 33 6 51 18 44 11 -7 20 -2 20 10 0 36
49 11 57 -28z m154 -124 c-18 -18 -44 -27 -59 -22 -15 6 -38 0 -50 -12 -18
-18 -28 -17 -42 6 -15 24 -23 25 -43 5 -33 -33 -57 -32 -57 4 0 20 29 31 95
36 52 4 116 9 141 11 43 4 44 1 15 -28z m3489 -18 c0 -31 -11 -50 -30 -50 -19
0 -30 19 -30 50 0 31 11 50 30 50 19 0 30 -19 30 -50z m-3931 -24 c25 -65 -19
-90 -65 -36 -24 27 -34 50 -23 50 12 0 16 8 10 18 -6 10 6 14 28 8 21 -5 43
-23 50 -40z m-662 -11 c18 -66 17 -71 -26 -85 -93 -29 -164 74 -76 109 71 29
89 24 102 -24z m165 13 c-7 -17 -12 -35 -12 -40 0 -4 -13 -8 -30 -8 -36 0 -39
23 -6 56 34 34 62 30 48 -8z m680 -101 c-11 -27 -15 -26 -43 1 -26 26 -27 36
-5 60 32 34 67 -10 48 -61z m-509 -75 c-3 -21 5 -45 19 -53 16 -10 -6 -24 -59
-38 -115 -31 -175 39 -98 116 40 40 146 21 138 -25z m2072 -168 c-15 -18 -28
-19 -42 -5 -15 15 -14 28 2 44 14 14 16 38 4 69 -10 26 -12 63 -5 81 8 22 21
1 38 -65 17 -70 18 -105 3 -124z m-2394 136 c11 0 19 -13 19 -30 0 -34 -17
-37 -57 -12 -19 12 -22 32 -11 65 13 38 17 40 23 12 5 -19 16 -35 26 -35z
m547 9 c32 -32 24 -77 -22 -132 -30 -35 -105 -28 -108 10 -1 13 -9 1 -17 -27
-8 -27 -26 -47 -40 -44 -17 4 -22 -8 -15 -35 12 -48 8 -49 -51 -16 -25 14 -48
26 -51 28 -36 16 33 106 104 135 47 20 98 53 113 74 34 46 47 47 87 7z m252
-24 c16 -25 25 -28 33 -10 15 37 47 30 47 -10 0 -20 7 -26 15 -15 8 11 33 22
55 23 22 2 69 9 105 14 46 8 65 3 65 -16 0 -32 -106 -63 -116 -34 -4 12 -33 9
-76 -9 -67 -28 -194 -29 -221 -1 -8 7 -31 13 -52 13 -20 0 -32 9 -25 20 7 12
20 16 29 10 9 -5 22 4 28 20 16 41 86 38 113 -5z m293 -159 c-7 -42 -21 -79
-33 -83 -11 -3 -34 -20 -50 -36 -17 -17 -30 -20 -30 -9 0 11 -13 16 -30 9 -16
-6 -30 -2 -30 9 0 11 10 24 21 28 15 5 15 24 -1 65 -25 68 -12 81 92 88 l73 5
-12 -76z m1239 24 c35 -54 100 -70 81 -20 -7 17 -2 30 10 30 12 0 17 -18 11
-39 -5 -22 -1 -42 9 -45 25 -9 -3 -137 -32 -149 -24 -9 -191 130 -191 158 0
30 43 13 92 -35 28 -28 59 -46 69 -40 19 12 -84 130 -113 130 -10 0 -4 -10 12
-22 27 -19 27 -20 0 -13 -29 8 -41 48 -25 80 14 29 44 15 77 -35z m-2259 -86
c-42 -9 -117 34 -102 57 7 12 36 5 72 -16 41 -24 50 -37 30 -41z m163 12 c29
-29 31 -76 3 -76 -36 0 -119 64 -108 82 16 26 77 22 105 -6z m319 -16 c-6 -34
-146 -50 -166 -19 -23 37 15 60 93 54 58 -4 77 -13 73 -35z m3401 -250 c135
-3 236 -14 249 -27 17 -17 17 -23 -1 -23 -13 0 -24 -9 -24 -20 0 -11 23 -20
50 -20 28 0 50 -10 50 -21 0 -14 -33 -17 -95 -8 -105 15 -163 49 -84 49 33 1
41 6 23 17 -14 9 -45 14 -70 11 -24 -2 -51 -5 -60 -6 -9 -1 -3 -16 15 -33 48
-48 39 -60 -64 -87 -103 -27 -118 -28 -230 -13 -53 7 -75 2 -75 -17 0 -14 -20
-36 -45 -48 l-45 -21 45 -2 c62 -2 64 -91 2 -108 -83 -21 -103 47 -47 154 17
32 30 103 30 158 l0 99 75 -15 c41 -8 177 -17 301 -19z m-6073 -495 c20 5 37
0 37 -13 0 -12 -10 -22 -21 -22 -12 0 -16 -8 -10 -18 6 -9 -7 -22 -29 -28 -22
-6 -40 -2 -40 8 0 10 10 18 21 18 12 0 17 8 11 17 -6 10 -36 13 -67 7 -49 -9
-52 -7 -28 23 18 22 38 27 58 15 17 -9 47 -12 68 -7z"/>
<path d="M2980 3418 c0 -13 23 -19 55 -14 53 7 55 5 48 -68 -5 -48 -17 -76
-35 -76 -50 0 -9 -128 47 -149 25 -10 25 -4 -2 38 -40 61 -41 71 -5 71 15 0
33 14 39 30 7 17 2 30 -11 30 -12 0 -8 16 11 37 41 45 41 52 2 92 -36 35 -149
42 -149 9z"/>
<path d="M3188 3392 c-6 -16 -7 -56 -1 -90 5 -34 1 -62 -9 -62 -10 0 -18 -9
-18 -20 0 -11 14 -20 30 -20 42 0 38 -19 -15 -66 -36 -32 -38 -38 -8 -27 20 7
40 13 44 13 27 0 49 85 29 110 -43 52 -16 139 45 146 80 10 68 44 -16 44 -42
0 -75 -11 -81 -28z"/>
<path d="M4456 3375 c-24 -18 -28 -37 -15 -70 20 -51 89 -59 144 -17 37 28 48
92 16 92 -11 0 -15 -12 -10 -27 8 -19 -5 -24 -50 -17 -73 10 -76 19 -16 43 43
18 43 19 4 20 -23 0 -56 -10 -73 -24z"/>
<path d="M4440 3226 c0 -11 20 -35 45 -53 36 -25 39 -31 11 -32 -18 -1 -39
-10 -46 -21 -7 -11 2 -14 22 -7 21 8 43 0 59 -20 20 -28 26 -29 35 -6 6 16
-19 57 -58 95 -37 36 -68 56 -68 44z"/>
<path d="M4305 2703 c-70 -44 119 -119 291 -115 109 2 139 41 34 43 -33 1 -81
13 -107 27 -25 14 -58 20 -73 15 -15 -6 -38 2 -51 18 -27 32 -57 36 -94 12z"/>
<path d="M3730 2180 c-7 -11 1 -26 19 -32 17 -7 26 -20 20 -30 -6 -10 2 -12
19 -6 41 16 32 88 -11 88 -19 0 -40 -9 -47 -20z"/>
<path d="M3907 1960 c7 -16 19 -46 25 -65 13 -36 211 -108 266 -97 15 3 35 -7
45 -21 13 -21 21 -21 33 -3 18 28 104 12 104 -19 0 -11 14 -8 32 7 28 22 37
21 62 -13 21 -27 33 -31 40 -14 5 14 33 25 63 25 40 1 46 5 24 19 -16 10 -54
15 -85 11 -31 -4 -56 1 -56 12 0 10 -22 13 -49 6 -27 -6 -60 -4 -75 5 -14 9
-69 17 -122 18 -52 1 -106 13 -119 26 -13 13 -39 23 -58 23 -25 0 -32 10 -23
33 9 22 4 29 -16 22 -15 -5 -45 5 -66 23 -31 26 -36 27 -25 2z"/>
<path d="M4866 1790 c-22 -16 -46 -24 -52 -18 -6 6 -29 1 -52 -11 -28 -15 -42
-15 -42 -2 0 12 -14 21 -31 21 -17 0 -25 -10 -18 -21 7 -12 -4 -35 -24 -51
-36 -29 -36 -30 3 -20 81 20 189 36 199 29 5 -4 23 11 40 33 26 35 33 36 50
10 11 -16 21 -20 21 -7 0 47 -51 67 -94 37z"/>
<path d="M4022 2976 c-15 -42 -16 -69 -2 -80 11 -9 15 -10 10 -3 -5 7 6 26 25
42 19 15 22 21 7 14 -22 -12 -25 -3 -15 38 19 74 2 66 -25 -11z"/>
<path d="M6560 659 c-66 -43 42 -72 140 -37 40 14 36 15 -23 7 -55 -8 -75 -3
-80 20 -5 22 -15 25 -37 10z"/>
<path d="M7211 3961 c-6 -10 -2 -39 10 -65 25 -54 179 -78 179 -27 0 15 6 43
13 61 11 28 2 31 -58 20 -43 -8 -76 -5 -84 8 -16 27 -45 28 -60 3z"/>
<path d="M7775 3946 c-47 -12 -45 -19 23 -88 66 -65 78 -68 152 -34 35 15 50
36 46 63 -7 48 -56 70 -56 25 0 -46 -42 -39 -54 8 -10 39 -38 45 -111 26z"/>
<path d="M8034 3928 c-58 -59 47 -135 146 -107 75 22 124 22 110 -1 -7 -11 -3
-20 8 -20 11 0 26 10 34 23 10 16 22 12 41 -13 22 -30 34 -33 72 -14 25 13 32
21 15 19 -16 -3 -32 4 -35 15 -2 11 7 21 20 22 146 12 84 42 -120 56 -107 8
-213 19 -236 24 -22 6 -47 4 -55 -4z"/>
<path d="M8673 3850 c-6 -16 -40 -47 -75 -68 -57 -35 -63 -49 -71 -155 -10
-143 -18 -169 -51 -157 -14 5 -65 13 -114 19 -48 5 -90 12 -94 16 -18 18 21
95 48 95 69 0 164 49 164 84 0 20 -9 36 -20 36 -11 0 -20 -13 -20 -30 0 -16
-10 -30 -21 -30 -12 0 -16 8 -10 18 6 9 -7 22 -29 28 -22 6 -45 2 -51 -8 -6
-10 -29 -18 -50 -18 -22 0 -39 -10 -39 -21 0 -13 -17 -16 -40 -9 -22 7 -40 5
-40 -5 0 -40 -155 -71 -405 -83 -49 -2 -55 -10 -55 -71 l0 -68 245 3 245 4 3
-90 c2 -49 5 -101 5 -115 5 -73 42 -11 42 70 1 130 18 153 92 124 32 -13 189
-27 348 -32 l290 -9 -5 -97 c-3 -54 3 -104 15 -111 13 -8 20 51 20 170 0 178
-1 181 -42 159 -23 -12 -47 -17 -53 -11 -6 7 -1 12 13 12 14 0 18 11 10 25 -8
14 -7 18 2 10 16 -14 68 39 69 72 1 9 -39 14 -87 11 -55 -4 -102 5 -123 23
-31 25 -34 25 -26 -1 6 -16 32 -41 59 -54 47 -24 69 -97 35 -118 -34 -21 -58
13 -37 53 17 31 15 36 -10 26 -16 -6 -30 -20 -30 -30 0 -11 -19 -14 -42 -6
-24 7 -49 5 -55 -6 -44 -67 -123 -45 -123 33 0 149 28 189 123 174 50 -8 92
-5 109 10 15 12 42 17 59 10 41 -15 149 41 149 77 0 43 -43 61 -63 26 -18 -34
-66 -29 -170 17 -78 35 -80 35 -94 -2z m-413 -289 c0 -11 -13 -15 -30 -8 -16
6 -30 1 -30 -11 0 -12 -13 -22 -30 -22 -16 0 -30 14 -30 30 0 20 20 30 60 30
33 0 60 -9 60 -19z"/>
<path d="M3360 3798 c0 -20 9 -21 202 -28 73 -2 144 -12 159 -20 24 -16 74
-16 249 -1 105 9 104 9 72 29 -15 10 -128 19 -251 21 -123 1 -270 6 -327 10
-57 4 -104 -1 -104 -11z"/>
<path d="M3700 3702 c-128 -35 -53 -114 118 -125 106 -7 109 -5 135 58 16 39
19 65 7 65 -11 0 -20 -12 -20 -27 0 -28 -7 -30 -120 -38 -38 -3 -81 -12 -95
-21 -17 -11 -25 -4 -25 24 0 26 10 37 27 31 15 -6 26 3 26 20 0 17 0 30 -1 29
-1 -1 -24 -8 -52 -16z"/>
<path d="M5640 3621 c0 -21 8 -44 18 -50 21 -13 47 45 31 71 -20 32 -49 19
-49 -21z"/>
<path d="M6280 3481 c-14 -43 -20 -91 -14 -107 6 -16 2 -38 -9 -49 -14 -14
-13 -45 0 -95 l21 -74 -73 14 c-96 18 -57 -38 40 -59 65 -13 65 -13 23 -47
-44 -37 -56 -104 -20 -104 12 0 10 -8 -5 -18 -21 -13 -20 -19 5 -29 20 -7 32
-1 32 18 0 16 8 29 17 29 10 0 13 -43 8 -95 -6 -52 -11 -111 -12 -130 -1 -19
-11 -35 -22 -35 -12 0 -7 -9 9 -20 17 -11 20 -20 8 -20 -16 0 -16 -19 0 -71
22 -70 24 -72 105 -59 49 7 89 3 96 -8 7 -12 39 -15 72 -9 32 7 59 4 59 -7 0
-10 27 -16 61 -14 53 4 59 -1 47 -39 -18 -58 -21 -60 -62 -43 -34 13 -33 15 4
31 36 15 35 16 -10 14 -27 -1 -70 5 -95 13 -25 8 -45 9 -45 3 0 -7 20 -21 45
-31 93 -41 154 -89 155 -124 0 -28 -82 -59 -106 -40 -26 20 -114 45 -114 32 0
-4 32 -21 70 -37 63 -26 70 -37 70 -108 0 -78 40 -138 78 -114 11 7 16 25 10
40 -6 15 -2 33 10 40 11 7 15 25 9 41 -7 18 7 33 41 41 47 12 61 31 54 74 -1
8 8 15 20 15 13 0 18 -18 12 -40 -6 -22 -3 -36 5 -30 51 31 395 -151 368 -195
-7 -12 -4 -15 9 -8 11 8 26 5 33 -5 6 -11 -9 -22 -34 -26 -28 -4 -42 -18 -37
-36 4 -17 7 -59 7 -95 -1 -55 4 -62 34 -45 20 10 39 15 43 11 5 -4 224 -13
488 -20 374 -9 1085 -31 1150 -35 72 -5 83 52 15 74 l-45 15 46 9 c125 24 1
48 -296 57 -512 15 -707 29 -730 53 -16 16 149 79 171 65 10 -6 34 -2 54 8 23
13 175 14 413 3 415 -18 432 -16 432 50 0 66 -34 72 -369 69 -279 -3 -301 0
-308 34 -8 45 -121 151 -145 136 -41 -25 -157 99 -169 181 l-12 80 -149 3
c-84 2 -162 14 -179 28 -25 20 -29 11 -29 -64 0 -49 -13 -107 -30 -131 -36
-52 23 -90 60 -39 18 25 29 25 71 2 82 -46 165 -39 134 12 -17 28 -44 40 -85
38 -105 -5 -124 -1 -92 19 16 10 40 14 55 8 15 -6 27 2 27 17 1 21 5 20 20 -3
18 -27 22 -27 40 0 18 26 24 26 48 -5 14 -19 34 -35 44 -35 10 -1 39 -23 64
-49 l47 -49 -42 -36 c-34 -29 -41 -58 -41 -169 0 -157 7 -153 -229 -134 -88 7
-213 8 -276 2 -181 -17 -179 -22 -156 529 1 19 75 22 121 5 6 -2 18 -2 28 0
19 3 51 -37 52 -65 0 -9 -18 -11 -40 -4 -23 7 -40 4 -40 -9 0 -11 -7 -20 -15
-19 -40 7 -65 -5 -65 -29 0 -23 116 -32 160 -13 6 3 17 4 25 2 8 -1 15 15 15
36 0 21 12 42 26 48 17 6 24 34 18 80 l-8 70 -116 0 c-63 0 -132 9 -153 20
-29 16 -50 12 -86 -15 -48 -36 -42 -81 10 -81 21 0 29 -26 29 -99 0 -107 -21
-138 -61 -90 -14 17 -41 25 -61 18 -20 -6 -72 0 -115 13 -56 16 -96 17 -138 3
-91 -32 -109 -8 -100 130 8 120 8 122 -47 130 -50 7 -53 4 -34 -32 18 -35 16
-37 -27 -24 -26 9 -111 20 -189 25 l-142 10 0 174 c-1 96 -7 193 -14 216 -14
44 38 84 54 40 5 -13 16 -17 26 -8 9 9 8 22 -3 30 -48 35 -78 126 -48 145 18
11 20 19 5 19 -17 0 -18 18 -5 64 13 44 12 57 -2 43 -12 -12 -25 -47 -29 -79
-10 -82 -12 -84 -29 -28 -8 28 -7 60 2 72 26 34 45 208 23 208 -11 0 -31 -35
-46 -79z m347 -871 c17 -16 43 -30 59 -30 17 0 35 -14 42 -31 8 -23 2 -29 -23
-21 -19 5 -78 16 -130 23 -52 8 -95 22 -95 31 0 10 -13 18 -29 18 -16 0 -34 9
-41 20 -21 33 183 24 217 -10z m613 -312 c0 -48 -47 -42 -56 9 -4 19 6 33 25
33 18 0 31 -17 31 -42z m978 -76 c83 -44 54 -71 -59 -52 -82 14 -110 36 -89
70 18 29 71 23 148 -18z"/>
<path d="M2529 3518 c-18 -28 40 -87 69 -69 15 9 14 25 -3 52 -28 44 -46 49
-66 17z"/>
<path d="M3520 3426 c0 -45 43 -50 82 -9 38 41 38 41 -22 37 -33 -2 -60 -15
-60 -28z"/>
<path d="M3688 3430 c3 -22 16 -39 29 -38 13 1 41 3 63 5 22 2 40 17 40 33 0
39 -58 39 -73 -1 -10 -26 -15 -25 -38 5 -25 34 -26 34 -21 -4z"/>
<path d="M2617 3318 c-99 -102 -83 -138 62 -138 63 0 78 8 84 45 13 70 -3 119
-35 107 -15 -6 -28 -4 -28 5 0 28 -49 17 -83 -19z"/>
<path d="M7812 3308 c-7 -17 -12 -85 -12 -150 0 -73 -8 -118 -22 -118 -14 0
-18 19 -10 49 7 27 4 54 -6 60 -30 19 -79 -10 -78 -46 1 -18 -2 -46 -6 -63 -6
-21 8 -30 43 -31 27 -1 61 -8 75 -16 46 -29 59 7 62 165 3 150 -19 221 -46
150z"/>
<path d="M8680 3212 c-1 -114 -24 -212 -48 -198 -12 7 -5 -7 17 -31 52 -60 65
-37 75 139 8 118 4 151 -17 151 -17 0 -27 -23 -27 -61z"/>
<path d="M3627 3246 c-52 -10 -79 -66 -43 -90 25 -17 133 -6 154 15 35 36 -43
88 -111 75z"/>
<path d="M7960 3139 c0 -13 -14 -18 -32 -11 -20 8 -28 3 -23 -13 5 -14 25 -25
45 -25 20 0 40 -11 45 -25 5 -15 -9 -25 -33 -25 -82 0 -40 -40 43 -42 47 0
132 -3 190 -6 58 -3 105 2 105 11 0 9 -30 17 -67 17 -36 0 -73 7 -81 15 -16
16 -27 18 -89 23 -24 1 -36 17 -35 46 1 27 -12 48 -33 52 -19 4 -35 -4 -35
-17z"/>
<path d="M9 3082 c-24 -23 -6 -64 26 -58 19 4 44 -4 55 -18 13 -17 87 -29 210
-34 105 -4 204 -12 220 -18 17 -6 53 -9 80 -5 28 3 68 7 90 9 100 7 -29 41
-156 42 -86 0 -132 7 -124 20 7 11 40 20 75 20 119 0 30 30 -102 34 -73 3
-185 8 -249 11 -64 4 -120 3 -125 -3z"/>
<path d="M6060 3083 c0 -19 -15 -24 -50 -15 -54 14 -56 12 -38 -36 7 -18 20
-27 30 -21 16 10 25 -23 24 -85 -1 -31 49 -50 65 -24 7 11 -2 37 -21 58 -26
28 -29 46 -12 74 12 21 21 25 21 10 1 -15 10 -21 21 -14 11 7 20 -2 20 -20 0
-26 7 -28 45 -7 45 24 45 24 -13 40 -32 8 -66 27 -75 41 -13 21 -16 21 -17 -1z"/>
<path d="M8415 3087 c14 -6 20 -19 14 -29 -6 -10 -2 -18 9 -18 11 0 24 8 30
17 12 19 97 15 131 -6 11 -7 21 -1 21 14 0 21 -31 29 -115 31 -63 1 -104 -3
-90 -9z"/>
<path d="M8881 2972 c55 -52 119 -60 119 -13 0 34 -13 41 -74 41 -64 0 -71 -4
-45 -28z"/>
<path d="M6752 2931 c7 -30 0 -66 -20 -94 -18 -25 -32 -55 -32 -66 0 -30 125
-26 135 4 10 29 105 34 105 6 0 -11 -13 -15 -30 -8 -16 6 -30 2 -30 -9 0 -21
187 -17 258 5 21 7 44 3 51 -8 20 -32 45 -25 56 17 18 69 -12 83 -177 84 -195
1 -288 27 -288 80 0 21 -9 38 -20 38 -12 0 -15 -21 -8 -49z"/>
<path d="M7643 2832 c-3 -152 -2 -157 34 -125 46 41 76 42 99 1 20 -35 141
-52 177 -24 15 12 30 8 40 -10 11 -18 64 -33 145 -39 70 -6 133 -19 140 -28
21 -31 193 -21 186 10 -4 20 8 24 45 15 30 -7 51 -4 51 8 0 11 10 20 21 20 13
0 16 -17 9 -40 -7 -23 -4 -40 9 -40 11 0 21 14 21 31 0 26 24 29 151 21 101
-7 146 -3 137 11 -8 13 5 12 31 -3 52 -27 67 -19 49 28 -7 19 -28 32 -45 29
-18 -2 -60 1 -93 8 -33 8 -159 18 -280 23 -615 29 -750 39 -750 55 0 9 -7 16
-15 14 -8 -2 -31 3 -50 10 -19 7 -48 17 -64 22 -16 5 -32 42 -36 85 -5 42 -10
5 -12 -82z"/>
<path d="M0 2861 c0 -54 1 -55 95 -36 177 34 435 21 400 -20 -11 -14 -16 -31
-9 -37 18 -18 64 19 64 52 0 23 20 29 85 24 51 -4 85 2 85 15 0 12 -51 22
-125 23 -69 1 -156 6 -195 9 -38 4 -144 11 -235 16 l-165 8 0 -54z"/>
<path d="M8250 2899 c-55 -20 2 -45 83 -35 l56 6 -49 22 c-28 12 -68 16 -90 7z"/>
<path d="M7280 2800 c0 -28 14 -40 45 -42 25 0 63 -4 85 -9 147 -27 180 -21
186 36 l7 55 -162 0 c-148 0 -161 -3 -161 -40z"/>
<path d="M5868 2791 c-6 -16 15 -110 47 -210 33 -100 52 -181 42 -181 -9 0
-17 -22 -17 -50 0 -31 11 -50 30 -50 17 0 30 -10 30 -22 0 -12 -15 -17 -33
-10 -24 10 -28 6 -13 -13 25 -32 90 -196 93 -235 4 -39 77 -160 97 -160 26 0
18 55 -13 86 -16 16 -32 52 -36 81 -4 28 -13 58 -21 66 -8 7 -14 39 -14 69 0
31 -8 60 -17 66 -9 6 -15 38 -13 72 2 38 -5 59 -18 53 -13 -5 -23 21 -24 65
-1 39 -8 104 -16 142 -8 39 -17 87 -20 109 -3 21 -16 42 -29 47 -14 4 -18 27
-11 56 13 52 -25 69 -44 19z"/>
<path d="M315 2693 c-41 -36 -75 -71 -75 -77 0 -18 76 -33 91 -19 7 7 22 13
34 13 11 0 22 34 24 75 2 41 3 75 2 75 -1 0 -35 -30 -76 -67z"/>
<path d="M444 2699 c-38 -15 -42 -23 -20 -47 22 -24 27 -24 33 0 3 16 14 23
25 17 10 -6 18 3 18 20 0 17 -2 30 -5 30 -3 -1 -26 -10 -51 -20z"/>
<path d="M2233 2570 c-22 -233 -33 -317 -43 -346 -5 -14 -1 -21 10 -14 12 7
17 -52 13 -158 -4 -117 1 -166 16 -157 14 8 14 3 -1 -16 -12 -16 -20 -60 -17
-99 4 -38 9 -135 13 -215 4 -106 13 -145 33 -145 19 0 24 14 14 45 -18 58 -18
67 -4 181 7 53 5 92 -3 86 -20 -12 -19 94 1 109 8 6 7 38 -3 71 -20 70 -18
207 4 242 8 13 6 29 -6 36 -26 16 -26 110 1 110 14 0 13 14 -2 41 -14 28 -16
69 -4 127 10 47 13 125 6 173 -12 84 -14 80 -28 -71z"/>
<path d="M8227 2513 c89 -86 173 -121 173 -73 0 19 -167 114 -173 98 -1 -4
-24 9 -50 30 -26 20 -3 -4 50 -55z"/>
<path d="M8700 2564 c0 -10 47 -41 105 -70 135 -69 182 -106 166 -133 -7 -11
-3 -21 9 -21 14 0 20 41 16 115 l-6 115 -145 6 c-80 3 -145 -2 -145 -12z"/>
<path d="M25 2506 c-61 -23 -14 -39 110 -39 74 0 115 4 90 8 -25 4 -45 14 -45
21 0 16 -118 23 -155 10z"/>
<path d="M5719 2510 c-2 -11 -3 -26 -2 -34 2 -8 -13 -10 -32 -4 -31 10 -31 8
2 -19 23 -19 31 -40 21 -57 -13 -21 -10 -21 15 -1 27 22 30 18 22 -25 -6 -29
0 -50 13 -50 12 0 22 -21 22 -46 0 -48 34 -94 69 -94 13 0 12 6 -2 15 -12 8
-28 59 -36 113 -7 54 -21 114 -31 133 -10 18 -12 41 -4 50 8 8 4 9 -9 2 -13
-7 -28 -2 -34 12 -5 14 -12 16 -14 5z"/>
<path d="M255 2430 c-76 -67 -77 -66 135 -65 105 1 190 8 190 16 0 22 -136 43
-182 28 -22 -7 -54 0 -72 14 -29 24 -26 28 26 40 54 11 54 12 8 14 -27 1 -75
-20 -105 -47z"/>
<path d="M60 2400 c-45 -9 -59 -18 -40 -26 38 -16 140 -9 140 10 0 24 -28 29
-100 16z"/>
<path d="M8360 2358 c0 -10 42 -18 93 -18 52 0 90 3 85 7 -20 18 -178 27 -178
11z"/>
<path d="M8660 2340 c-50 -10 -18 -15 110 -15 146 0 165 3 100 16 -92 19 -114
19 -210 -1z"/>
<path d="M1157 2262 c19 -12 21 -21 5 -31 -26 -16 -10 -51 23 -51 12 0 16 6 9
13 -7 7 -4 29 7 50 17 31 13 37 -25 37 -34 -1 -39 -5 -19 -18z"/>
<path d="M8360 2252 c0 -25 23 -31 115 -30 63 1 140 -2 170 -7 31 -5 61 -2 67
8 6 9 3 18 -6 20 -9 1 -34 6 -56 11 -137 30 -290 29 -290 -2z"/>
<path d="M8978 2272 c-4 -5 -48 -11 -98 -14 -168 -10 -202 -54 -40 -52 55 1
100 9 100 18 0 31 37 16 46 -19 6 -22 10 -14 12 20 2 53 -2 64 -20 47z"/>
<path d="M60 2241 c0 -12 -13 -21 -30 -21 -17 0 -30 -10 -30 -23 0 -15 27 -18
83 -9 58 10 89 6 102 -12 14 -21 20 -21 28 -1 6 14 33 25 60 25 28 0 44 -9 37
-20 -20 -32 46 -23 101 13 57 37 87 23 50 -22 -22 -27 -18 -28 37 -9 69 24 89
90 22 72 -22 -6 -40 -4 -40 3 0 7 -94 16 -210 19 -135 4 -210 -2 -210 -15z"/>
<path d="M5409 2129 c-38 -30 -37 -31 7 -18 33 9 57 0 83 -30 39 -44 121 -72
121 -40 0 10 16 13 35 7 30 -10 29 -7 -4 20 -50 41 -71 40 -72 -3 0 -31 -3
-31 -25 -5 -70 85 -105 101 -145 69z"/>
<path d="M5815 2050 c5 -27 18 -50 27 -50 10 0 17 -7 15 -15 -6 -25 27 -133
48 -160 11 -14 12 -25 2 -25 -9 0 -3 -9 13 -20 17 -11 53 -19 80 -18 l50 1
-45 21 c-31 15 -58 63 -89 159 -24 75 -48 132 -53 127 -5 -5 -20 -1 -33 10
-18 15 -22 8 -15 -30z"/>
<path d="M330 2032 c-33 -14 -72 -41 -87 -59 -18 -21 4 -15 65 19 119 67 131
88 22 40z"/>
<path d="M6665 2011 c-109 -32 -93 -111 20 -97 47 6 92 18 101 26 44 39 116
-4 103 -63 -10 -48 -6 -57 29 -57 33 0 42 13 42 59 0 55 3 57 58 42 60 -18
102 4 102 53 0 18 -31 26 -100 26 -55 0 -104 1 -110 3 -57 19 -193 23 -245 8z"/>
<path d="M1298 1811 c-1 -6 -3 -31 -4 -56 -1 -25 -10 -51 -20 -58 -26 -17 3
-97 36 -97 15 0 33 9 40 20 7 11 -1 15 -17 8 -40 -15 -62 27 -32 63 13 16 18
29 11 29 -7 0 -4 17 7 39 14 26 14 43 1 51 -11 7 -21 7 -22 1z"/>
<path d="M2420 1770 c0 -16 -11 -28 -25 -25 -33 7 -45 -87 -13 -106 18 -11 9
-20 -28 -30 -30 -7 -54 -21 -54 -31 0 -9 12 -12 28 -6 33 13 55 -121 25 -151
-12 -12 -9 -32 9 -54 18 -22 19 -29 3 -20 -17 10 -25 2 -25 -26 0 -28 -13 -41
-40 -41 -22 0 -40 9 -40 20 0 11 14 20 30 20 40 0 39 52 -2 68 -47 18 -48 17
-48 -43 0 -30 -9 -68 -18 -83 -31 -48 -1 -95 31 -51 15 20 28 33 29 28 0 -5 6
-27 11 -49 6 -22 11 -56 13 -75 1 -19 11 -35 22 -35 10 0 14 -5 8 -10 -21 -22
-76 16 -76 52 0 21 -9 38 -20 38 -11 0 -20 -40 -20 -89 0 -49 9 -94 20 -101
11 -7 20 0 20 15 0 15 32 43 70 61 39 18 70 42 70 53 0 11 13 15 29 9 40 -16
63 120 35 200 -32 89 -37 367 -8 396 34 34 30 96 -6 96 -16 0 -30 -13 -30 -30z"/>
<path d="M0 1700 c0 -11 29 -21 65 -23 36 -1 97 -6 135 -9 98 -9 147 14 70 33
-92 22 -270 22 -270 -1z"/>
<path d="M0 1476 c0 -49 60 -63 116 -28 15 9 24 2 24 -17 0 -22 -20 -31 -70
-31 -49 0 -70 -9 -70 -30 0 -25 37 -30 205 -32 315 -3 383 -7 410 -25 30 -18
105 2 105 28 0 11 -43 19 -95 20 -52 0 -117 13 -145 29 -55 31 -46 36 64 31
51 -3 86 9 115 38 l41 41 -125 1 c-69 0 -226 5 -350 11 l-225 11 0 -47z"/>
<path d="M6825 1418 c-9 -35 -21 -39 -78 -29 -59 11 -67 8 -67 -29 0 -52 44
-70 101 -40 31 17 49 18 65 2 38 -38 55 -24 44 33 -11 52 -9 52 23 -10 19 -36
42 -65 51 -65 23 0 20 28 -8 56 -13 13 -16 30 -7 39 8 8 26 -2 38 -22 34 -54
93 -121 93 -105 0 7 -15 36 -34 65 -26 39 -28 59 -11 87 29 46 9 67 -29 29
-25 -25 -38 -25 -99 1 -67 28 -71 28 -82 -12z"/>
<path d="M6555 1243 c5 -35 16 -63 25 -63 8 0 20 -19 26 -42 7 -25 21 -36 34
-28 13 8 18 27 12 42 -6 16 2 28 18 28 17 0 24 -12 18 -29 -8 -20 6 -33 45
-42 31 -7 68 -16 82 -20 45 -14 26 32 -20 49 -44 17 -44 18 10 32 61 16 74 50
20 51 -158 4 -230 18 -253 50 -23 31 -25 27 -17 -28z"/>
<path d="M5654 1212 c-22 -55 7 -113 46 -92 19 10 42 12 51 4 8 -8 -6 15 -32
51 -54 75 -51 74 -65 37z"/>
<path d="M7960 1203 c0 -11 70 -111 155 -223 85 -112 169 -226 185 -252 17
-26 41 -48 55 -48 14 0 25 -15 25 -33 0 -18 32 -71 70 -118 39 -47 70 -91 70
-97 0 -18 280 -410 303 -424 45 -27 58 41 15 77 -36 29 -37 37 -11 47 39 15
73 -6 73 -45 0 -29 45 -87 68 -87 6 0 -4 32 -22 70 -18 39 -41 70 -50 70 -9 0
-16 14 -16 30 0 46 31 35 56 -20 13 -27 32 -50 43 -50 29 0 0 63 -53 116 -25
25 -46 56 -46 68 0 12 -21 41 -46 64 -26 24 -64 74 -85 111 -22 37 -61 93 -89
123 -27 30 -66 76 -86 102 l-36 46 13 -50 c7 -27 33 -69 58 -92 26 -23 53 -64
61 -90 l15 -48 -53 48 c-28 27 -52 56 -52 65 0 29 -67 95 -85 84 -9 -6 -6 -23
6 -39 17 -20 18 -28 1 -28 -12 0 -23 7 -23 15 -14 170 -15 163 44 176 32 7 52
21 45 33 -8 13 3 15 31 6 39 -12 42 -9 24 25 -30 55 -83 97 -83 65 0 -14 -13
-19 -32 -12 -24 9 -29 4 -20 -21 15 -38 -19 -67 -78 -66 -36 0 -37 2 -5 20 32
19 31 25 -10 90 -46 70 -75 88 -75 46 0 -13 -16 -8 -39 12 -21 19 -47 30 -56
24 -10 -6 -18 16 -18 49 0 44 4 53 17 31 11 -20 32 -26 61 -19 25 7 83 11 130
9 64 -3 85 4 85 27 0 16 14 30 30 30 17 0 30 -14 30 -31 0 -22 12 -28 38 -20
21 7 45 2 53 -10 10 -17 19 -16 32 4 15 22 22 21 42 -5 23 -29 37 -30 113 -6
42 14 13 31 -72 42 -127 17 -102 26 71 26 90 0 163 8 163 18 0 29 -74 37 -360
39 -287 3 -587 20 -645 36 -19 5 -35 1 -35 -10z m600 -670 c0 -14 35 -64 77
-110 42 -46 73 -83 68 -83 -5 0 6 -23 24 -52 19 -28 29 -56 23 -62 -6 -6 -30
22 -53 61 -24 40 -51 73 -61 73 -10 0 -18 14 -18 31 0 17 -9 26 -20 19 -11 -7
-20 5 -20 27 0 21 -13 44 -30 50 -33 13 -42 73 -10 73 11 0 20 -12 20 -27z
m245 -192 c40 -47 77 -126 64 -138 -13 -14 -107 98 -108 130 -1 12 -21 35 -44
51 -29 19 -38 38 -27 56 13 20 25 16 53 -22 20 -26 48 -61 62 -77z"/>
<path d="M2397 1020 c-12 -34 -40 -71 -63 -83 l-43 -23 47 -17 c57 -21 120 45
121 128 1 73 -36 70 -62 -5z"/>
<path d="M5647 995 c10 -31 6 -33 -29 -14 -23 12 -47 17 -53 11 -6 -7 -2 -12
9 -12 12 0 36 -31 55 -70 44 -94 79 -92 62 5 -8 41 -24 84 -35 95 -15 14 -18
9 -9 -15z"/>
<path d="M8700 991 c0 -15 -11 -33 -25 -39 -14 -6 0 -5 30 1 36 7 55 3 55 -13
0 -19 7 -19 27 -3 15 13 33 17 40 9 7 -7 13 -2 13 12 0 16 -15 20 -40 12 -22
-7 -40 -4 -40 7 0 10 -13 24 -30 30 -18 7 -30 0 -30 -16z"/>
<path d="M8913 1007 c-47 -47 8 -85 67 -47 27 18 27 22 0 40 -36 23 -49 24
-67 7z"/>
<path d="M8600 930 c0 -6 25 -38 55 -72 30 -34 78 -88 107 -120 67 -75 93 -75
39 0 -52 74 -53 108 0 45 34 -42 39 -43 38 -10 0 20 -24 54 -53 75 -29 22 -46
28 -38 15 28 -46 -46 -22 -84 27 -37 47 -64 63 -64 40z"/>
<path d="M8982 887 c-1 -13 -29 -30 -62 -37 -33 -7 -60 -23 -60 -34 0 -11 19
-16 42 -10 27 7 38 3 32 -13 -5 -14 7 -26 28 -28 42 -3 51 25 16 46 -16 10
-15 18 2 29 14 9 20 28 14 43 -7 16 -11 18 -12 4z"/>
<path d="M1681 870 c-2 -11 -10 -58 -19 -105 -9 -47 -9 -85 1 -85 9 0 17 26
17 58 0 32 8 62 17 65 10 4 10 25 2 47 -9 22 -17 31 -18 20z"/>
<path d="M2750 840 c-30 -33 -31 -40 -6 -40 16 0 46 18 66 40 30 33 31 40 6
40 -16 0 -46 -18 -66 -40z"/>
<path d="M2227 815 c7 -25 13 -58 14 -75 1 -20 7 -16 17 10 19 47 6 110 -23
110 -11 0 -14 -20 -8 -45z"/>
<path d="M412 823 c-7 -11 5 -30 26 -42 51 -27 55 -27 70 11 9 24 4 29 -21 20
-19 -8 -40 -3 -48 9 -10 16 -18 17 -27 2z"/>
<path d="M573 787 c-50 -45 -53 -55 -26 -71 56 -31 176 52 172 121 0 7 -11 -1
-25 -18 -40 -52 -100 -67 -74 -19 28 52 21 50 -47 -13z"/>
<path d="M280 778 c0 -8 10 -18 21 -22 12 -4 -20 -49 -70 -99 -90 -92 -133
-181 -51 -107 22 20 40 26 40 14 0 -12 -9 -27 -20 -34 -23 -14 -27 -50 -5 -50
26 0 63 97 40 105 -11 4 2 32 30 62 35 37 56 47 66 32 8 -13 2 -31 -13 -41
-16 -10 -20 -18 -11 -18 53 -1 121 82 77 93 -24 7 -44 20 -44 31 0 10 8 13 19
7 10 -6 23 -4 29 6 7 10 -15 22 -48 27 -33 5 -60 2 -60 -6z"/>
<path d="M2978 735 c-21 -252 -6 -655 24 -655 9 0 8 22 -2 50 -18 47 -12 58
25 52 8 -1 15 6 15 15 0 9 -7 23 -15 31 -8 9 -15 60 -15 114 0 54 7 98 15 98
8 0 15 10 15 21 0 12 -9 16 -20 9 -11 -7 -20 2 -20 19 0 17 7 31 15 31 8 0 15
54 16 120 1 105 -45 188 -53 95z"/>
<path d="M2474 660 c-6 -22 -2 -45 8 -51 10 -6 18 -29 18 -50 0 -22 8 -39 17
-39 10 0 14 34 10 75 -6 55 -2 67 12 45 17 -24 20 -22 21 15 0 58 -71 62 -86
5z"/>
<path d="M602 617 c-19 -32 -38 -39 -83 -30 -44 9 -65 2 -87 -31 -43 -60 -17
-86 31 -31 l40 45 -10 -45 c-5 -25 -3 -45 6 -45 25 0 162 157 145 168 -9 5
-27 -9 -42 -31z"/>
<path d="M4279 537 c-8 -79 -4 -93 25 -91 18 1 28 11 21 22 -7 12 -18 52 -25
91 l-13 71 -8 -93z"/>
<path d="M8714 579 c11 -40 86 -96 86 -63 0 16 -75 104 -89 104 -4 0 -2 -18 3
-41z"/>
<path d="M311 533 c-59 -78 -63 -93 -20 -93 17 0 27 8 21 17 -6 10 7 38 28 63
37 43 52 80 31 80 -5 0 -32 -30 -60 -67z"/>
<path d="M8851 582 c-38 -15 -38 -16 5 -53 59 -50 60 -99 2 -68 -37 20 -39 18
-19 -19 15 -28 42 -42 83 -42 l60 0 -51 67 c-63 82 -63 92 -6 78 40 -11 42 -8
18 22 -31 36 -35 37 -92 15z"/>
<path d="M1603 475 c-39 -153 -48 -255 -23 -255 13 0 18 16 11 38 -7 21 -3 44
8 51 12 8 21 -4 21 -28 0 -22 9 -41 20 -41 11 0 20 10 20 21 0 13 27 17 72 10
52 -8 69 -5 63 14 -5 15 -34 22 -72 19 -61 -6 -89 24 -38 41 18 6 16 17 -9 42
-31 31 -34 30 -46 -8 -8 -23 -18 -38 -24 -32 -18 19 17 93 44 93 39 0 59 39
32 66 -16 16 -22 13 -22 -12 0 -19 -9 -34 -20 -34 -12 0 -15 21 -8 50 7 28 8
50 3 50 -5 0 -20 -38 -32 -85z"/>
<path d="M7080 400 c0 -28 13 -40 44 -40 34 0 39 -5 20 -24 -33 -33 -30 -56 6
-56 34 0 40 -31 11 -50 -11 -6 -69 1 -129 17 -80 21 -112 22 -118 6 -13 -41
34 -63 142 -66 105 -3 159 -24 109 -41 -14 -5 -25 -17 -25 -27 0 -10 13 -13
29 -6 38 14 103 -45 66 -60 -14 -6 -10 -11 11 -11 23 -1 31 -11 22 -27 -8 -14
-7 -18 3 -9 29 26 27 76 -2 87 -16 6 -24 19 -18 29 6 10 -3 18 -21 18 -24 0
-27 8 -13 34 13 23 12 49 -3 75 -12 23 -24 53 -26 67 -15 86 -108 159 -108 84z"/>
<path d="M205 387 c-34 -14 -32 -40 5 -54 44 -17 90 6 88 44 -1 21 -5 24 -11
8 -6 -14 -24 -25 -40 -25 -16 0 -24 9 -17 20 13 22 12 22 -25 7z"/>
<path d="M2431 365 c-18 -19 -12 -48 7 -36 10 6 25 -65 33 -159 14 -179 39
-208 129 -150 26 17 26 19 -3 20 -26 0 -32 19 -30 90 2 50 -5 90 -14 90 -10 0
-12 14 -6 30 7 17 1 30 -13 30 -17 1 -16 6 3 18 21 13 12 24 -34 47 -33 17
-66 26 -72 20z"/>
<path d="M305 306 c-33 -71 -16 -83 34 -24 46 56 51 78 16 78 -14 0 -36 -24
-50 -54z"/>
<path d="M1242 316 c4 -99 33 -152 33 -61 0 47 -8 90 -17 96 -10 6 -17 -9 -16
-35z"/>
<path d="M6406 311 c-19 -21 -15 -29 19 -38 24 -6 50 -1 58 11 10 17 22 17 45
-2 19 -16 47 -20 76 -10 42 14 39 17 -34 40 -104 32 -135 32 -164 -1z"/>
<path d="M6687 260 c9 -54 5 -59 -37 -48 -25 6 -50 4 -56 -5 -6 -10 12 -18 38
-20 94 -6 119 -24 76 -57 -37 -28 -36 -29 7 -29 40 -1 55 19 47 64 -1 9 25 21
58 28 33 7 60 19 60 28 0 8 -20 11 -45 5 -36 -8 -39 -5 -15 12 17 12 20 22 7
22 -12 0 -33 -13 -46 -29 -13 -16 -38 -23 -55 -17 -28 11 -28 15 3 38 39 28
26 68 -21 68 -22 0 -28 -16 -21 -60z"/>
<path d="M134 206 c9 -22 -1 -29 -36 -26 -73 6 -98 2 -98 -18 0 -35 151 -21
175 17 19 30 16 39 -15 47 -26 7 -34 1 -26 -20z"/>
<path d="M1597 206 c-46 -7 -55 -21 -66 -99 -10 -66 -22 -87 -42 -79 -15 5
-33 2 -40 -9 -6 -11 31 -19 90 -19 61 0 101 9 101 22 0 13 19 18 45 12 143
-34 246 -37 206 -5 -21 17 -68 31 -104 31 -35 0 -70 9 -77 20 -7 11 -22 20
-35 20 -12 0 -16 -6 -9 -13 15 -14 -77 -67 -113 -66 -13 0 2 22 32 49 30 26
55 63 55 80 0 18 8 28 17 22 9 -6 16 3 16 19 0 16 -5 28 -11 26 -7 -2 -36 -7
-65 -11z"/>
<path d="M3462 158 c-27 -77 -27 -78 -4 -78 20 0 52 117 36 132 -5 6 -19 -19
-32 -54z"/>
<path d="M6420 188 c0 -14 -16 -20 -38 -14 -21 5 -55 0 -75 -11 -30 -18 -19
-22 57 -22 81 -1 163 -38 92 -43 -14 -1 0 -13 32 -27 54 -24 56 -27 20 -48
-36 -21 -36 -22 7 -22 27 -1 45 11 45 29 0 36 2 36 72 9 47 -18 51 -17 29 10
-14 17 -38 31 -53 31 -35 0 -37 33 -3 47 14 5 5 11 -19 11 -25 1 -54 19 -65
41 -23 41 -101 48 -101 9z"/>
<path d="M3553 147 c-19 -20 -16 -107 5 -107 20 0 42 48 42 92 0 29 -24 37
-47 15z"/>
<path d="M6971 116 c11 -57 26 -68 41 -29 7 19 34 33 63 33 69 0 51 12 -39 26
-66 10 -72 7 -65 -30z"/>
<path d="M6960 37 c-27 -11 -99 -14 -160 -8 -78 9 -101 7 -80 -8 17 -11 136
-20 270 -19 132 1 229 6 215 11 -14 6 -20 19 -14 29 6 10 -7 18 -30 18 -22 0
-41 -9 -41 -20 0 -11 -13 -20 -30 -20 -16 0 -30 9 -30 20 0 25 -34 24 -100 -3z"/>
</g>
</svg>
