<?xml version="1.0" standalone="no"?>
<!DOCTYPE svg PUBLIC "-//W3C//DTD SVG 20010904//EN"
 "http://www.w3.org/TR/2001/REC-SVG-20010904/DTD/svg10.dtd">
<svg version="1.0" xmlns="http://www.w3.org/2000/svg"
 width="300.000000pt" height="164.000000pt" viewBox="0 0 300.000000 164.000000"
 preserveAspectRatio="xMidYMid meet">
<metadata>
Created by potrace 1.10, written by Peter Selinger 2001-2011
</metadata>
<g transform="translate(0.000000,164.000000) scale(0.050000,-0.050000)"
fill="#e06666" stroke="none">
<path d="M2396 3023 c-316 -129 -579 -239 -585 -245 -6 -6 76 -56 181 -110
l193 -98 -13 -273 c-13 -289 -11 -297 83 -297 26 0 29 21 19 136 -6 74 -6 191
0 259 l11 123 359 -180 358 -179 577 292 c318 161 592 303 610 316 29 21
-1131 497 -1199 492 -11 -1 -278 -107 -594 -236z m619 -258 c5 -16 -11 -25
-44 -25 -28 0 -199 -37 -379 -82 l-327 -82 -20 -83 -20 -83 -3 92 -2 92 330
86 c182 47 336 94 342 104 16 26 113 11 123 -19z m-771 -620 c5 -89 1 -105
-29 -105 -31 0 -34 14 -24 115 23 214 41 211 53 -10z"/>
<path d="M2385 2205 c-23 -230 -24 -228 205 -337 308 -146 639 -122 946 69
l86 53 -13 190 c-17 248 0 243 -326 81 l-283 -141 -281 140 c-155 77 -289 140
-298 140 -9 0 -25 -88 -36 -195z"/>
<path d="M1861 1502 c-35 -66 -3 -946 35 -977 22 -18 123 -25 335 -25 l304 0
24 57 c13 32 21 97 17 145 l-6 88 -114 10 -114 10 -17 -70 c-9 -38 -27 -69
-41 -68 -13 1 -55 3 -94 5 l-70 3 0 340 0 340 55 0 c109 -1 142 -21 149 -87 6
-63 7 -63 131 -69 l125 -6 0 150 c0 194 4 192 -388 192 -284 0 -312 -3 -331
-38z"/>
<path d="M2660 1420 l0 -120 110 0 110 0 0 -403 0 -403 123 13 c68 7 126 15
129 18 2 3 12 176 21 385 l17 380 105 6 105 6 0 87 c0 48 5 102 12 119 11 29
-29 32 -360 32 l-372 0 0 -120z"/>
<path d="M3460 1022 l0 -522 68 0 c174 0 192 13 192 140 l0 115 212 8 c280 11
271 -4 263 396 -6 377 24 351 -420 371 l-315 13 0 -521z m456 133 l6 -155 -91
0 -91 0 0 161 0 161 85 -6 85 -6 6 -155z"/>
<path d="M4740 190 c0 -117 4 -130 40 -130 22 0 40 9 40 20 0 11 -9 20 -20 20
-11 0 -20 35 -20 79 0 43 9 84 20 91 34 21 22 50 -20 50 -36 0 -40 -13 -40
-130z"/>
<path d="M5930 190 c0 -90 8 -130 25 -130 17 0 25 39 25 130 0 92 -7 130 -25
130 -18 0 -26 -38 -25 -130z"/>
<path d="M20 192 l0 -112 70 0 c49 0 70 9 70 30 0 34 -31 40 -50 10 -23 -38
-50 2 -50 73 0 66 4 70 50 59 29 -7 50 -4 50 8 0 11 -11 20 -25 20 -14 0 -45
6 -70 13 -43 11 -45 6 -45 -101z"/>
<path d="M4252 237 c-20 -100 -15 -161 13 -152 27 9 40 190 15 205 -8 5 -21
-19 -28 -53z"/>
<path d="M1028 248 c7 -17 12 -62 12 -100 0 -37 8 -68 19 -68 10 0 18 45 18
100 -1 76 -8 100 -31 100 -19 0 -26 -11 -18 -32z"/>
<path d="M1104 180 c-4 -60 2 -100 15 -100 22 0 26 22 30 135 4 106 -38 74
-45 -35z"/>
<path d="M2033 250 c-7 -16 -30 -30 -52 -30 -33 0 -41 -13 -41 -70 0 -67 3
-70 70 -70 l70 0 0 100 c0 97 -24 132 -47 70z"/>
<path d="M2205 252 c22 -17 35 -53 35 -99 0 -40 9 -73 20 -73 11 0 20 33 20
73 0 46 13 82 35 99 31 23 24 27 -55 27 -79 0 -86 -4 -55 -27z"/>
<path d="M2920 191 c0 -90 31 -139 52 -82 7 17 32 31 55 31 35 0 44 13 48 70
5 69 4 70 -75 70 l-80 0 0 -89z"/>
<path d="M4840 180 l0 -100 70 0 c49 0 70 9 70 30 0 35 -33 40 -45 6 -15 -46
-55 8 -55 75 0 72 31 90 76 45 19 -19 24 -16 24 10 0 26 -17 34 -70 34 l-70 0
0 -100z"/>
<path d="M5020 260 c0 -11 9 -20 20 -20 11 0 20 -36 20 -80 0 -44 9 -80 20
-80 11 0 20 36 20 80 0 44 9 80 20 80 11 0 20 9 20 20 0 11 -27 20 -60 20 -33
0 -60 -9 -60 -20z"/>
<path d="M5180 180 c0 -55 9 -100 20 -100 11 0 20 14 20 30 0 19 19 30 50 30
44 0 50 9 50 70 0 67 -3 70 -70 70 l-70 0 0 -100z"/>
<path d="M5442 175 c2 -83 5 -94 18 -55 23 72 23 160 0 160 -11 0 -19 -47 -18
-105z"/>
<path d="M2700 170 c0 -87 2 -90 60 -90 41 0 60 10 60 31 0 23 -12 28 -40 19
-31 -10 -40 -4 -40 29 0 29 13 41 45 41 41 0 40 3 -12 30 -76 40 -73 43 -73
-60z"/>
<path d="M4100 170 c0 -87 2 -90 60 -90 41 0 60 10 60 31 0 23 -12 28 -40 19
-29 -9 -40 -4 -40 21 0 18 18 38 41 43 38 10 37 13 -13 39 -71 36 -68 39 -68
-63z"/>
<path d="M190 223 c-47 -46 -6 -143 60 -143 100 0 109 130 10 144 -33 5 -65 5
-70 -1z"/>
<path d="M735 224 c-30 -3 -55 -18 -55 -31 0 -14 25 -35 55 -47 l55 -22 -55
-2 c-81 -3 -67 -42 15 -42 57 0 70 8 70 40 0 27 -13 40 -40 40 -55 0 -51 36 5
44 25 3 36 11 25 17 -11 6 -45 7 -75 3z"/>
<path d="M860 160 c0 -82 92 -122 132 -57 10 16 1 20 -29 12 -24 -6 -48 -3
-54 7 -6 10 7 18 30 18 91 0 80 69 -14 87 -65 12 -65 11 -65 -67z"/>
<path d="M1630 218 c-37 -18 -37 -18 5 -10 63 12 76 -21 15 -36 -83 -21 -67
-92 20 -92 66 0 70 4 70 68 0 55 -36 104 -67 91 -1 -1 -21 -10 -43 -21z"/>
<path d="M1830 222 c-47 -9 -60 -23 -60 -62 0 -66 38 -75 46 -11 9 71 44 64
44 -9 0 -33 9 -60 20 -60 11 0 20 36 20 80 0 44 -2 79 -5 77 -3 -1 -32 -8 -65
-15z"/>
<path d="M2373 226 c-7 -7 -13 -43 -13 -79 0 -70 96 -102 132 -44 10 16 1 20
-29 12 -24 -6 -48 -3 -54 7 -6 10 7 18 30 18 37 0 80 50 58 68 -18 16 -112 30
-124 18z"/>
<path d="M2575 224 c-58 -7 -79 -64 -24 -64 17 0 26 8 20 19 -6 10 13 21 44
25 30 3 46 11 35 17 -11 6 -45 7 -75 3z"/>
<path d="M3274 227 c-50 -50 -13 -147 56 -147 39 0 70 10 70 22 0 13 -18 18
-40 12 -22 -6 -45 -2 -51 8 -6 10 12 18 40 18 38 0 51 10 51 40 0 22 -13 40
-28 40 -16 0 -41 5 -56 11 -16 5 -34 4 -42 -4z"/>
<path d="M3485 226 c-63 -8 -65 -11 -65 -107 0 -96 24 -130 47 -69 7 17 30 30
52 30 34 0 41 13 41 80 0 44 -2 79 -5 77 -3 -2 -34 -7 -70 -11z"/>
<path d="M4334 227 c-50 -50 -13 -147 56 -147 67 0 70 3 70 70 0 47 -9 70 -28
70 -16 0 -41 5 -56 11 -16 5 -34 4 -42 -4z m86 -67 c0 -22 -13 -40 -30 -40
-17 0 -30 18 -30 40 0 22 13 40 30 40 17 0 30 -18 30 -40z"/>
<path d="M4555 224 c-48 -6 -55 -15 -55 -77 0 -41 8 -64 20 -57 11 7 20 34 20
61 0 27 9 49 20 49 11 0 20 -27 20 -60 0 -69 30 -80 46 -18 18 69 -10 109 -71
102z"/>
<path d="M5669 214 c-28 -72 -1 -124 66 -130 37 -4 65 3 65 15 0 11 -18 21
-40 21 -27 0 -40 13 -40 41 0 33 9 39 40 29 23 -7 40 -4 40 9 0 11 -13 21 -28
21 -16 0 -43 5 -60 12 -19 7 -36 0 -43 -18z"/>
<path d="M360 150 c0 -66 4 -70 68 -70 65 0 68 3 66 70 -2 79 -34 98 -34 20 0
-31 -11 -50 -30 -50 -19 0 -30 19 -30 50 0 28 -9 50 -20 50 -11 0 -20 -31 -20
-70z"/>
<path d="M520 150 c0 -83 35 -95 44 -15 7 68 44 65 52 -4 10 -76 44 -61 44 19
0 67 -3 70 -70 70 -67 0 -70 -3 -70 -70z"/>
<path d="M1180 150 c0 -83 35 -95 44 -15 7 68 44 65 52 -4 10 -76 44 -61 44
19 0 67 -3 70 -70 70 -67 0 -70 -3 -70 -70z"/>
<path d="M1360 149 c0 -63 5 -70 40 -59 29 9 40 4 40 -20 0 -24 -11 -29 -40
-20 -23 7 -40 4 -40 -9 0 -58 115 -20 128 42 24 122 18 137 -58 137 -67 0 -70
-3 -70 -71z"/>
<path d="M3100 150 c0 -38 9 -70 20 -70 11 0 20 27 20 60 0 59 26 79 50 40 7
-12 21 -15 32 -9 33 21 -3 49 -63 49 -54 0 -59 -6 -59 -70z"/>
<path d="M3635 206 c56 -11 60 -46 5 -46 -27 0 -40 -13 -40 -40 0 -32 13 -40
70 -40 67 0 70 3 70 70 0 68 -2 70 -75 67 -46 -1 -58 -6 -30 -11z"/>
<path d="M3760 150 c0 -38 9 -70 20 -70 11 0 20 22 20 49 0 52 42 94 55 55 12
-34 45 -29 45 6 0 21 -21 30 -70 30 -67 0 -70 -3 -70 -70z"/>
<path d="M3960 203 c56 -15 81 -83 30 -83 -18 0 -27 9 -20 20 7 11 -2 20 -20
20 -65 0 -23 -70 45 -76 62 -6 65 -4 65 65 0 69 -2 71 -75 69 -62 -2 -67 -5
-25 -15z"/>
<path d="M5500 150 c0 -38 9 -70 20 -70 11 0 20 27 20 60 0 40 10 60 30 60 20
0 30 -20 30 -60 0 -33 9 -60 20 -60 11 0 20 32 20 70 0 67 -3 70 -70 70 -67 0
-70 -3 -70 -70z"/>
<path d="M2610 140 c7 -11 -10 -20 -39 -20 -28 0 -51 -9 -51 -20 0 -11 32 -20
70 -20 57 0 70 8 70 40 0 23 -13 40 -31 40 -17 0 -26 -9 -19 -20z"/>
</g>
</svg>
