<?xml version="1.0" standalone="no"?>
<!DOCTYPE svg PUBLIC "-//W3C//DTD SVG 20010904//EN"
 "http://www.w3.org/TR/2001/REC-SVG-20010904/DTD/svg10.dtd">
<svg version="1.0" xmlns="http://www.w3.org/2000/svg"
 width="289.000000pt" height="181.000000pt" viewBox="0 0 289.000000 181.000000"
 preserveAspectRatio="xMidYMid meet">
<metadata>
Created by potrace 1.10, written by Peter Selinger 2001-2011
</metadata>
<g transform="translate(0.000000,181.000000) scale(0.100000,-0.100000)"
fill="#000000" stroke="none">
<path d="M584 1600 c-55 -22 -54 -5 -54 -643 0 -621 1 -634 45 -651 9 -3 221
-6 470 -6 374 0 464 -3 513 -15 92 -24 174 -1 239 67 43 45 65 101 65 168 0
64 -17 111 -58 159 -28 34 -113 81 -146 81 -17 0 -18 25 -18 394 l0 395 -24
28 -24 28 -494 2 c-271 1 -503 -2 -514 -7z m956 -44 c0 -2 3 -11 6 -20 5 -13
-12 -16 -128 -18 -125 -3 -133 -4 -133 -23 0 -19 8 -20 133 -23 120 -2 132 -4
132 -21 0 -17 -23 -18 -485 -18 l-485 -1 0 52 c0 29 5 57 12 64 9 9 129 12
480 12 257 0 468 -2 468 -4z m13 -172 l47 -6 0 -309 c0 -288 -1 -309 -17 -309
-34 0 -119 -47 -147 -81 -41 -48 -58 -95 -58 -159 0 -61 21 -122 54 -157 l21
-23 -425 0 c-342 0 -428 3 -437 13 -7 10 -11 165 -11 518 0 277 0 507 0 510 0
8 907 10 973 3z"/>
<path d="M617 1506 c-7 -19 18 -40 39 -32 8 3 14 14 12 23 -4 22 -43 29 -51 9z"/>
<path d="M707 1506 c-6 -15 11 -36 29 -36 14 0 27 28 18 41 -8 14 -41 11 -47
-5z"/>
<path d="M794 1505 c-8 -19 3 -35 26 -35 19 0 34 25 24 41 -8 14 -44 10 -50
-6z"/>
<path d="M911 1305 c-131 -32 -161 -47 -161 -82 0 -16 36 -39 75 -47 103 -24
105 -25 105 -61 0 -56 18 -65 134 -65 116 0 136 10 136 68 0 33 0 33 103 58
27 6 27 6 27 -44 0 -51 16 -72 39 -49 15 15 14 149 -2 170 -11 16 -266 87
-307 86 -8 0 -76 -15 -149 -34z m116 -32 c-4 -3 -10 -3 -14 0 -3 4 0 7 7 7 7
0 10 -3 7 -7z m90 0 c-4 -3 -10 -3 -14 0 -3 4 0 7 7 7 7 0 10 -3 7 -7z m-130
-10 c-4 -3 -10 -3 -14 0 -3 4 0 7 7 7 7 0 10 -3 7 -7z m170 0 c-4 -3 -10 -3
-14 0 -3 4 0 7 7 7 7 0 10 -3 7 -7z m-210 -10 c-4 -3 -10 -3 -14 0 -3 4 0 7 7
7 7 0 10 -3 7 -7z m-40 -10 c-4 -3 -10 -3 -14 0 -3 4 0 7 7 7 7 0 10 -3 7 -7z
m220 -10 c-4 -3 -10 -3 -14 0 -3 4 0 7 7 7 7 0 10 -3 7 -7z m40 -10 c-4 -3
-10 -3 -14 0 -3 4 0 7 7 7 7 0 10 -3 7 -7z"/>
<path d="M721 984 c-63 -53 -26 -154 56 -154 80 0 114 102 52 154 -17 14 -41
26 -54 26 -13 0 -37 -12 -54 -26z m83 -40 c19 -18 19 -20 6 -45 -6 -11 -21
-19 -35 -19 -20 0 -45 24 -45 44 0 10 32 36 45 36 7 0 21 -7 29 -16z"/>
<path d="M921 981 c-8 -5 -11 -16 -8 -25 6 -14 38 -16 276 -16 219 0 270 3
274 14 13 32 -15 36 -272 36 -141 0 -262 -4 -270 -9z"/>
<path d="M913 885 c-11 -31 13 -36 168 -33 146 3 154 4 154 23 0 19 -8 20
-158 23 -136 2 -158 0 -164 -13z"/>
<path d="M1294 885 c-9 -23 5 -35 41 -35 35 0 51 20 32 39 -16 16 -67 14 -73
-4z"/>
<path d="M755 782 c-64 -13 -88 -100 -40 -147 55 -56 145 -16 145 63 0 56 -49
95 -105 84z m49 -61 c23 -25 6 -61 -29 -61 -33 0 -49 30 -29 58 19 27 36 28
58 3z"/>
<path d="M912 743 c3 -17 25 -18 266 -21 257 -2 262 -2 262 18 0 20 -6 20
-266 20 -247 0 -265 -1 -262 -17z"/>
<path d="M912 653 c3 -16 17 -18 143 -18 118 0 140 2 140 15 0 13 -24 15 -143
18 -133 2 -143 1 -140 -15z"/>
<path d="M1244 659 c-11 -18 11 -31 47 -27 23 2 35 9 37 21 3 14 -4 17 -37 17
-22 0 -43 -5 -47 -11z"/>
<path d="M715 535 c-34 -33 -34 -93 -1 -124 33 -31 89 -31 122 0 55 52 16 149
-61 149 -25 0 -44 -8 -60 -25z m95 -46 c9 -16 8 -25 -6 -40 -22 -25 -39 -24
-58 3 -11 15 -12 26 -5 40 13 25 55 23 69 -3z"/>
<path d="M917 534 c-4 -4 -7 -13 -7 -21 0 -11 37 -13 198 -11 167 3 197 5 197
18 0 13 -29 15 -191 18 -104 1 -193 -1 -197 -4z"/>
<path d="M917 444 c-4 -4 -7 -13 -7 -21 0 -10 25 -13 111 -13 100 0 110 2 107
18 -3 15 -17 17 -104 20 -55 1 -103 0 -107 -4z"/>
<path d="M1180 430 c0 -17 7 -20 40 -20 33 0 40 3 40 20 0 17 -7 20 -40 20
-33 0 -40 -3 -40 -20z"/>
</g>
</svg>
