<?xml version="1.0" standalone="no"?>
<!DOCTYPE svg PUBLIC "-//W3C//DTD SVG 20010904//EN"
 "http://www.w3.org/TR/2001/REC-SVG-20010904/DTD/svg10.dtd">
<svg version="1.0" xmlns="http://www.w3.org/2000/svg"
 width="216.000000pt" height="185.000000pt" viewBox="0 0 216.000000 185.000000"
 preserveAspectRatio="xMidYMid meet">
<metadata>
Created by potrace 1.10, written by Peter Selinger 2001-2011
</metadata>
<g transform="translate(0.000000,185.000000) scale(0.100000,-0.100000)"
fill="#000000" stroke="none">
<path d="M641 1533 c-102 -53 -101 -175 2 -226 65 -33 145 7 168 83 10 32 9
44 -7 76 -35 71 -103 98 -163 67z m88 -38 c85 -44 35 -181 -59 -160 -77 17
-91 126 -20 162 32 16 45 16 79 -2z"/>
<path d="M657 1424 c-42 -23 -28 -39 33 -39 63 0 75 16 29 39 -18 9 -33 16
-33 16 -1 -1 -14 -8 -29 -16z"/>
<path d="M1260 1524 c-90 -40 -86 -36 -124 -126 -9 -20 -16 -39 -16 -43 0 -7
23 -63 44 -105 16 -34 92 -73 141 -73 49 0 125 39 141 73 21 42 44 98 44 105
0 4 -7 23 -16 43 -38 90 -36 88 -126 126 -44 19 -44 19 -88 0z"/>
<path d="M856 1271 c-5 -8 23 -39 31 -33 1 1 21 2 43 2 29 0 40 -4 40 -15 0
-12 -15 -15 -75 -15 -66 0 -77 3 -99 25 -23 23 -33 25 -106 25 -73 0 -83 -2
-106 -25 -18 -18 -36 -25 -62 -25 -21 0 -48 -7 -61 -16 -21 -15 -25 -15 -54 1
-21 11 -49 15 -82 13 -47 -3 -50 -5 -53 -33 -2 -16 -8 -35 -14 -42 -16 -19 0
-33 38 -33 33 0 48 20 24 35 -5 3 -10 13 -10 21 0 10 12 14 39 14 55 0 71 -25
71 -113 0 -59 -2 -68 -16 -63 -9 3 -33 6 -55 6 -37 0 -39 2 -39 31 0 24 -4 30
-17 27 -15 -3 -19 -16 -21 -72 -2 -42 2 -73 9 -82 10 -12 40 -15 151 -13 96 1
143 -3 153 -11 12 -10 15 -48 15 -210 l0 -197 -32 -9 c-19 -6 -34 -17 -36 -28
-4 -16 0 -18 29 -12 18 3 43 13 56 21 23 15 23 19 23 198 l0 182 50 0 50 0 0
-180 c0 -99 4 -185 8 -191 9 -14 90 -40 98 -31 13 13 -6 35 -35 42 l-31 7 0
192 c0 172 2 196 20 231 17 33 20 59 20 157 l0 118 73 0 c81 0 117 16 117 54
0 38 -30 56 -93 56 -31 0 -58 -4 -61 -9z m-184 -158 c2 -88 6 -108 18 -108 12
0 16 20 18 108 l3 108 32 -3 32 -3 3 -122 3 -123 -91 0 -90 0 0 118 c0 65 3
122 7 125 3 4 19 7 34 7 l28 0 3 -107z m-112 -25 l0 -83 -27 0 c-16 0 -41 -4
-57 -8 l-28 -8 4 74 c4 88 16 107 69 107 l39 0 0 -82z m-169 -128 c33 -18 21
-30 -31 -30 -43 0 -50 3 -50 20 0 16 7 20 31 20 17 0 39 -5 50 -10z m169 -14
c0 -7 -21 -12 -52 -13 -52 -2 -53 -2 -31 16 23 19 83 18 83 -3z"/>
<path d="M1215 1128 c-30 -17 -35 -28 -35 -85 l0 -53 -162 -2 -163 -3 -3 -47
c-3 -39 0 -47 17 -53 20 -6 21 -13 21 -236 0 -214 1 -230 18 -227 15 3 17 21
20 181 l2 178 123 -3 122 -3 3 -178 c2 -148 5 -177 17 -177 12 0 15 19 15 105
l0 105 120 0 119 0 3 -102 c2 -84 6 -103 18 -103 13 0 15 24 15 155 l0 155
-42 3 -43 3 15 29 c11 22 15 65 15 179 l0 150 -26 20 c-22 17 -41 21 -98 21
-39 0 -80 -6 -91 -12z m173 -121 l3 -88 -88 3 -88 3 -3 73 c-4 98 1 104 97
100 l76 -3 3 -88z m-218 -156 l0 -30 -120 -3 -120 -3 0 33 0 32 120 0 120 0 0
-29z m220 -12 c0 -31 -6 -47 -29 -70 -26 -25 -37 -29 -85 -29 l-56 0 0 70 0
70 85 0 85 0 0 -41z m54 -154 c5 -13 -11 -15 -109 -15 -96 0 -115 3 -115 15 0
12 19 15 109 15 88 0 110 -3 115 -15z"/>
<path d="M1255 1060 c-10 -17 12 -37 25 -24 8 8 6 15 -4 23 -10 9 -16 9 -21 1z"/>
<path d="M1250 975 c0 -10 7 -15 18 -13 21 4 19 22 -2 26 -10 2 -16 -3 -16
-13z"/>
<path d="M1130 860 c0 -7 3 -10 7 -7 3 4 3 10 0 14 -4 3 -7 0 -7 -7z"/>
<path d="M1408 683 c7 -3 16 -2 19 1 4 3 -2 6 -13 5 -11 0 -14 -3 -6 -6z"/>
<path d="M1058 598 c-2 -114 -6 -142 -17 -140 -22 5 -51 -9 -51 -24 0 -10 13
-14 50 -14 l50 0 0 139 c0 137 0 140 23 143 38 5 27 33 -15 36 l-37 3 -3 -143z"/>
</g>
</svg>
