<?xml version="1.0" standalone="no"?>
<!DOCTYPE svg PUBLIC "-//W3C//DTD SVG 20010904//EN"
 "http://www.w3.org/TR/2001/REC-SVG-20010904/DTD/svg10.dtd">
<svg version="1.0" xmlns="http://www.w3.org/2000/svg"
 width="732.000000pt" height="552.000000pt" viewBox="0 0 732.000000 552.000000"
 preserveAspectRatio="xMidYMid meet">
<metadata>
Created by potrace 1.10, written by Peter Selinger 2001-2011
</metadata>
<g transform="translate(0.000000,552.000000) scale(0.100000,-0.100000)"
fill="#000000" stroke="none">
<path d="M1103 4734 c-18 -8 -46 -33 -63 -56 l-30 -41 0 -1749 c0 -1276 3
-1755 11 -1771 17 -34 51 -67 84 -85 26 -13 113 -15 715 -16 l685 -1 5 -75 c5
-74 5 -74 48 -107 l44 -33 849 0 c922 0 875 -3 929 55 l25 27 0 645 0 646 239
237 239 238 1 51 1 51 -105 105 c-61 61 -118 109 -136 115 -48 16 -91 -6 -160
-84 -32 -36 -64 -66 -70 -66 -8 0 -10 103 -6 373 5 401 3 424 -44 468 -25 23
-31 24 -202 26 -97 2 -182 3 -188 3 -8 0 -11 128 -10 453 1 248 -2 468 -7 487
-11 43 -51 88 -94 106 -49 21 -2713 19 -2760 -2z m2769 -82 l23 -23 0 -467 0
-467 -655 -5 c-486 -4 -660 -8 -676 -17 -12 -7 -29 -25 -39 -40 -17 -26 -18
-90 -19 -1288 l-1 -1260 -674 -2 c-741 -2 -714 -4 -744 59 -14 30 -15 209 -14
1753 2 1647 3 1721 20 1747 10 15 26 29 35 31 9 3 626 4 1369 3 l1352 -1 23
-23z m455 -1048 c10 -14 13 -113 13 -439 l0 -422 -138 -134 c-75 -74 -172
-171 -216 -217 -43 -46 -81 -81 -84 -78 -3 4 -5 198 -4 434 l1 427 154 -4
c162 -4 197 3 197 39 0 10 -6 22 -12 26 -7 5 -87 8 -178 9 l-165 0 4 126 c3
136 0 146 -45 135 l-26 -7 3 -124 c2 -68 1 -126 -2 -129 -3 -4 -276 -9 -327
-7 -11 1 -13 25 -12 114 3 147 3 145 -20 152 -44 14 -52 -9 -48 -139 l3 -121
-172 -3 -173 -2 0 129 c0 122 -1 130 -20 136 -42 13 -48 -7 -42 -141 l5 -125
-192 2 c-210 2 -223 -1 -202 -47 l12 -27 187 4 187 4 2 -1040 c1 -572 2 -1046
3 -1052 0 -15 46 -18 55 -3 3 5 5 480 5 1055 l0 1045 172 -2 173 -3 -1 -675
-2 -674 -77 -71 -76 -70 -15 -105 c-8 -57 -21 -133 -30 -168 -28 -111 1 -134
116 -95 36 13 71 21 79 18 11 -4 12 -28 6 -124 -6 -102 -4 -120 10 -134 12
-13 21 -14 36 -7 27 15 31 42 21 155 -5 61 -5 105 0 112 5 7 31 15 56 19 43 6
55 14 150 111 56 58 102 110 102 114 0 5 8 9 18 9 16 0 17 -19 17 -257 l0
-258 30 0 30 0 0 295 0 295 27 30 c16 17 28 33 28 38 0 4 11 7 25 7 16 0 25
-6 25 -15 0 -27 38 -55 74 -55 26 0 41 7 60 31 14 17 26 39 26 50 0 29 -30 69
-51 69 -47 0 -27 32 96 156 69 69 128 124 131 121 3 -3 5 -272 5 -599 -1 -590
-1 -593 -22 -610 -20 -17 -76 -18 -864 -18 l-844 0 -20 26 -21 27 0 1331 c0
732 4 1336 8 1342 4 6 15 15 24 20 10 5 367 8 864 7 795 -2 849 -3 861 -19z
m-496 -899 l-1 -470 -88 -85 c-49 -47 -121 -120 -160 -162 -40 -43 -78 -78
-84 -78 -10 0 -12 131 -11 632 2 348 3 633 3 633 0 0 77 0 171 0 l171 0 -1
-470z m902 101 c48 -52 87 -101 87 -110 0 -8 -31 -48 -70 -88 l-69 -73 -109
105 c-60 58 -110 112 -111 120 0 8 27 43 61 77 90 89 100 88 211 -31z m-210
-202 l109 -112 -17 -25 c-9 -14 -24 -27 -33 -29 -20 -4 -232 201 -232 225 0
15 48 60 59 55 3 -2 55 -53 114 -114z m-108 -110 c58 -59 105 -109 105 -112 0
-10 -945 -949 -965 -959 -11 -6 -38 -13 -60 -17 -22 -4 -48 -9 -57 -12 -11 -3
-36 14 -73 51 l-55 56 6 67 7 67 481 482 c264 266 486 483 493 483 7 0 60 -48
118 -106z"/>
<path d="M1797 4405 c-119 -34 -175 -135 -133 -236 22 -52 60 -78 158 -110 34
-10 68 -19 77 -19 21 0 87 -33 112 -56 24 -21 24 -72 1 -99 -9 -11 -36 -29
-59 -39 -75 -33 -157 0 -195 81 -36 75 -95 89 -118 28 -14 -37 7 -90 55 -137
74 -73 195 -98 300 -60 107 37 155 98 155 196 0 63 -19 103 -64 134 -36 24
-170 72 -204 72 -62 0 -139 71 -116 108 49 77 195 78 231 1 14 -29 58 -79 70
-79 4 0 19 9 33 20 20 15 24 27 24 62 -1 37 -7 48 -44 80 -23 21 -59 43 -79
48 -58 18 -152 20 -204 5z"/>
<path d="M2461 4389 c-17 -17 -34 -43 -37 -57 -3 -15 -12 -40 -19 -57 -27 -63
-52 -124 -92 -230 -9 -22 -19 -49 -24 -60 -4 -11 -18 -45 -29 -75 -12 -30 -26
-63 -31 -72 -22 -43 10 -98 56 -98 30 0 50 28 79 112 l21 63 132 3 133 3 19
-43 c10 -24 26 -60 35 -81 9 -20 27 -43 41 -49 22 -10 30 -8 53 9 15 11 28 28
30 37 2 9 -24 85 -59 169 -34 84 -68 169 -75 190 -8 20 -18 45 -23 55 -5 9
-24 52 -42 95 -49 120 -106 148 -168 86z m89 -159 c0 -8 9 -40 21 -70 11 -30
25 -68 31 -85 6 -16 15 -35 20 -42 19 -24 -4 -31 -102 -30 -97 0 -100 1 -100
23 0 13 4 25 9 28 8 5 31 67 61 161 18 58 31 71 47 49 7 -10 13 -25 13 -34z"/>
<path d="M2799 4392 c-11 -8 -19 -25 -19 -42 0 -43 28 -54 121 -47 43 3 81 1
87 -5 5 -5 7 -102 4 -243 -2 -129 -1 -246 2 -260 3 -13 18 -32 31 -41 33 -22
80 -4 90 34 3 14 6 132 5 262 -1 129 -1 241 -1 247 1 10 23 11 91 6 78 -5 93
-4 110 12 23 21 25 44 7 68 -11 16 -39 18 -261 20 -191 1 -253 -1 -267 -11z"/>
<path d="M1371 3425 c-36 -31 -43 -82 -13 -107 21 -20 43 -21 320 -19 146 1
221 4 217 11 -4 6 -97 10 -246 10 -200 0 -239 2 -239 14 0 18 54 73 81 81 35
12 14 30 -38 33 -42 2 -55 -1 -82 -23z"/>
<path d="M2123 3443 c-58 -11 -63 -14 -63 -38 0 -28 17 -42 33 -26 6 6 24 11
39 11 40 0 98 26 98 44 0 13 -11 15 -49 13 -27 -1 -53 -3 -58 -4z"/>
<path d="M1735 3431 c-149 -5 -169 -7 -116 -13 80 -10 346 -8 386 2 29 7 29 8
-10 9 -22 1 -49 3 -60 4 -11 2 -101 1 -200 -2z"/>
<path d="M2320 3420 c20 -13 57 -13 65 0 4 6 -11 10 -37 10 -31 0 -39 -3 -28
-10z"/>
<path d="M1971 3320 c-40 -20 -29 -32 32 -33 70 -1 119 12 115 30 -5 24 -103
26 -147 3z"/>
<path d="M2180 3309 c-15 -4 24 -7 93 -8 70 -1 116 3 113 8 -7 11 -170 11
-206 0z"/>
<path d="M1403 3029 c-28 -17 -33 -27 -33 -58 0 -59 44 -86 104 -62 15 6 11
10 -23 23 -46 18 -51 36 -20 64 15 13 40 19 92 22 96 5 112 22 22 22 -39 0
-79 3 -90 5 -11 3 -35 -4 -52 -16z"/>
<path d="M1678 3038 c-8 -7 -20 -27 -27 -45 -8 -20 -28 -39 -57 -55 -24 -12
-44 -26 -44 -30 0 -5 0 -11 0 -15 0 -12 103 -9 138 5 24 9 32 18 32 37 0 22
-3 25 -25 19 -29 -7 -31 2 -9 34 18 26 39 29 48 7 5 -13 13 -12 56 10 28 14
48 30 45 35 -9 15 -138 12 -157 -2z"/>
<path d="M1910 3029 c0 -12 358 -11 400 2 14 4 -71 8 -187 8 -145 1 -213 -2
-213 -10z"/>
<path d="M2415 3030 c-3 -5 3 -10 14 -10 12 0 21 5 21 10 0 6 -6 10 -14 10 -8
0 -18 -4 -21 -10z"/>
<path d="M2297 2924 c-16 -8 -27 -20 -25 -26 6 -16 107 -16 120 -1 6 7 17 13
24 13 20 0 17 15 -3 18 -10 1 -34 4 -53 7 -22 3 -45 -1 -63 -11z"/>
<path d="M1912 2913 c48 -2 129 -2 180 0 51 1 12 3 -87 3 -99 0 -141 -2 -93
-3z"/>
<path d="M1381 2529 c-40 -39 -41 -79 -5 -108 23 -18 40 -21 123 -20 53 0 119
4 146 9 46 7 42 7 -40 9 -96 2 -192 27 -210 55 -7 12 -4 22 13 38 22 22 30 23
229 26 116 2 201 7 193 12 -7 4 -104 9 -216 9 l-202 1 -31 -31z"/>
<path d="M1910 2545 c-19 -23 -8 -50 20 -50 14 0 30 -3 37 -8 10 -6 82 34 118
65 5 4 -30 8 -77 8 -63 0 -89 -4 -98 -15z"/>
<path d="M2228 2543 c28 -2 76 -2 105 0 28 2 5 3 -53 3 -58 0 -81 -1 -52 -3z"/>
<path d="M1915 2470 c-3 -5 -17 -10 -31 -10 -14 0 -44 -10 -67 -21 -53 -27
-54 -28 -39 -38 16 -10 153 -5 163 6 4 4 10 23 14 41 6 28 4 32 -14 32 -11 0
-23 -4 -26 -10z"/>
<path d="M2138 2413 c46 -2 118 -2 160 0 42 1 5 3 -83 3 -88 0 -123 -2 -77 -3z"/>
<path d="M1449 2069 c-8 -5 -24 -9 -36 -9 -52 0 -85 -82 -51 -126 21 -26 50
-30 92 -14 20 7 26 17 26 39 0 16 -5 33 -11 37 -8 4 -8 9 1 18 8 8 13 7 19 -3
7 -10 17 -7 50 14 23 14 41 31 39 37 -5 13 -110 19 -129 7z"/>
<path d="M2174 2068 c-27 -15 -44 -38 -44 -62 0 -16 3 -17 12 -8 15 15 55 16
64 1 5 -8 9 -7 15 4 5 8 23 18 39 22 17 4 35 15 40 26 6 10 9 19 8 20 -26 6
-119 4 -134 -3z"/>
<path d="M1700 2051 c-49 -9 192 -18 300 -11 75 4 80 6 45 12 -48 9 -296 8
-345 -1z"/>
<path d="M2052 1948 c-23 -11 -40 -23 -37 -29 8 -12 126 -12 159 1 34 13 36
50 3 50 -13 0 -29 -6 -35 -12 -9 -9 -17 -10 -30 -2 -13 8 -28 6 -60 -8z"/>
<path d="M1520 1930 c0 -6 76 -10 209 -10 129 0 212 4 216 10 4 7 -68 10 -209
10 -137 0 -216 -4 -216 -10z"/>
<path d="M2300 1930 c0 -5 20 -10 45 -10 25 0 45 5 45 10 0 6 -20 10 -45 10
-25 0 -45 -4 -45 -10z"/>
<path d="M1465 1722 c-55 -1 -103 -6 -107 -10 -13 -13 -12 -222 1 -235 7 -7
36 -10 79 -9 71 4 112 21 52 23 -64 1 -80 6 -95 25 -19 25 -19 118 0 147 13
20 23 23 86 22 l72 0 13 -35 c7 -19 13 -45 13 -57 1 -13 5 -23 10 -23 12 0 20
110 9 131 -10 23 -20 24 -133 21z"/>
<path d="M2030 1660 l-104 -5 -15 -38 c-12 -31 -12 -42 -1 -62 7 -14 22 -28
33 -31 26 -8 328 6 322 15 -2 4 -57 8 -122 9 -169 2 -189 7 -197 44 -3 16 -3
34 0 39 3 5 89 9 192 10 214 1 292 15 112 20 -63 2 -162 2 -220 -1z"/>
<path d="M2365 1539 c-4 -6 -5 -13 -2 -15 8 -8 77 7 77 17 0 13 -67 11 -75 -2z"/>
<path d="M1565 1500 c-13 -15 -15 -24 -8 -31 19 -19 48 -6 48 20 0 32 -17 36
-40 11z"/>
<path d="M3230 3063 c-92 -34 -73 -165 24 -165 44 0 55 7 72 47 18 44 2 90
-37 110 -30 16 -35 17 -59 8z"/>
<path d="M2784 3023 c-30 -33 -26 -67 12 -100 40 -36 75 -31 107 17 23 33 21
55 -5 85 -30 35 -81 34 -114 -2z m76 -27 c0 -2 -7 -9 -15 -16 -12 -10 -15 -10
-15 4 0 9 7 16 15 16 8 0 15 -2 15 -4z"/>
<path d="M4053 3043 c-25 -3 -33 -9 -33 -24 0 -21 10 -25 26 -9 6 6 18 8 28 4
13 -5 16 -13 11 -33 -9 -34 -13 -37 -27 -23 -21 21 -50 15 -46 -10 4 -30 47
-53 81 -44 27 7 57 50 57 84 0 20 -40 63 -56 60 -5 0 -24 -3 -41 -5z"/>
<path d="M2790 2631 c-45 -44 -41 -84 10 -116 22 -14 44 -25 49 -25 5 0 23 14
40 31 30 29 40 64 23 71 -5 2 -15 17 -23 33 -20 43 -60 46 -99 6z m100 -48 c0
-14 -34 -43 -52 -43 -20 0 -24 20 -6 38 13 13 58 17 58 5z"/>
<path d="M3206 2625 c-35 -32 -35 -76 0 -104 52 -41 102 -20 111 45 4 34 1 45
-18 63 -30 28 -60 27 -93 -4z m74 -54 c0 -26 -17 -36 -35 -21 -23 19 -18 40
10 40 18 0 25 -5 25 -19z"/>
<path d="M4033 2633 c-13 -8 -23 -22 -23 -29 0 -19 29 -18 36 1 3 8 14 17 25
20 10 4 19 11 19 16 0 14 -32 10 -57 -8z"/>
<path d="M2805 2240 c-11 -4 -29 -23 -39 -43 -19 -34 -19 -35 3 -71 34 -55
102 -61 142 -13 56 67 -23 161 -106 127z"/>
<path d="M3238 2232 c-35 -4 -38 -32 -4 -32 46 0 64 -62 20 -68 -16 -2 -26 6
-38 33 -10 19 -20 33 -24 31 -13 -8 -6 -53 11 -80 36 -54 117 -21 117 47 0 53
-27 76 -82 69z"/>
<path d="M2785 1810 c-3 -6 -7 -28 -7 -50 -1 -77 63 -106 116 -54 30 31 33 54
10 89 -14 21 -24 25 -65 25 -26 0 -51 -5 -54 -10z m75 -45 c0 -8 -9 -15 -20
-15 -11 0 -20 7 -20 15 0 8 9 15 20 15 11 0 20 -7 20 -15z"/>
<path d="M3196 1795 c-24 -36 -11 -48 21 -19 14 13 35 24 45 24 11 0 16 5 13
10 -13 20 -62 11 -79 -15z"/>
<path d="M2804 1413 c-52 -43 -51 -83 5 -130 34 -29 43 -28 80 3 34 28 41 66
16 90 -8 8 -18 21 -22 29 -13 23 -56 27 -79 8z m71 -46 c17 -13 17 -15 -4 -36
-25 -25 -44 -23 -49 3 -4 17 14 46 27 46 4 0 15 -6 26 -13z"/>
<path d="M4037 1419 c-9 -5 -24 -23 -32 -39 -42 -82 79 -152 129 -74 25 37 20
69 -15 98 -33 28 -53 32 -82 15z"/>
<path d="M3705 1368 c8 -31 -24 -58 -67 -58 -34 0 -35 -9 -3 -33 23 -16 27
-16 55 -2 51 26 62 74 24 106 -13 11 -14 9 -9 -13z"/>
<path d="M3610 3030 c-43 -43 -12 -120 50 -120 59 0 92 74 53 120 -23 26 -77
26 -103 0z m76 -31 c8 -14 -16 -61 -30 -56 -17 6 -29 34 -23 51 7 18 42 22 53
5z"/>
<path d="M3607 2635 c-38 -36 -37 -86 2 -126 34 -33 56 -36 91 -12 35 24 40
33 40 79 0 33 -5 44 -30 62 -38 29 -69 28 -103 -3z"/>
<path d="M3612 2210 c-12 -11 -19 -27 -16 -35 7 -18 24 -10 24 11 0 16 46 38
61 28 5 -3 9 0 9 5 0 19 -55 12 -78 -9z"/>
<path d="M3452 1563 c2 -9 8 -18 15 -20 7 -3 9 3 6 16 -6 25 -26 28 -21 4z"/>
</g>
</svg>
